{
.appVersion = "3434";
.formatVersion = 3;
DisplayStrings = (
"",
"/thankyou_western",
"/yes",
"/stop",
"/eat"
);
customParameters = (
{
name = glyphOrder;
value = (
.notdef,
NULL,
CR,
space,
"**Basic Needs**",
drink,
eat,
sleep,
medicine,
healthcare,
hygiene,
air,
shelter,
safe,
warmth,
help,
power,
yes,
no,
please,
ok,
"**Social**",
agree_china,
alone,
bye_asia,
bye_india,
bye_western,
cannothear,
celebrate,
come_western,
come_japan,
connection,
empowerment,
enemy,
exhange,
faster,
friend_uk_us,
friend_france,
friend_spain,
happy,
hello,
leave,
listen,
look,
me,
move,
pause,
payment,
payment_japan,
phone,
promise,
protection,
quiet,
respect_asia,
slower,
solidarity,
sorry,
speak,
speakdown,
speakup,
support,
thankyou_western,
thankyou_asia,
together,
us,
victory,
wait,
welcome_india,
welcome_western,
what,
what_italy,
when,
where,
win,
work,
write,
you,
you_rock,
"**Emotion**",
aggressiveness,
altruism,
anticipation,
anxious,
boredom,
calm,
cold,
confidence,
confusion,
contempt,
curious,
disapproval,
disgust,
distrust,
fear,
flourishing,
forgiveness,
gratitude,
grief,
guilt,
heart01_western,
heart02_korea,
hope,
hug,
hurt,
joy,
liberation,
love,
luck,
luck_germany,
optimism,
pain,
purity,
relief,
serenity,
shock,
shyness,
stress,
surprise,
trust,
uncertainty,
upset,
"**Conflict**",
attack,
break,
build,
captured,
crouch,
death_western,
death_italy,
evacuate,
explosion,
fight,
freeze,
getout,
hurry,
protect,
protest,
regroup,
retaliate,
surrender,
tool,
transport_air,
transport_ground,
vehicle,
walk_run,
weapon,
withdraw,
"**Peace**",
agreement,
applause,
perfect,
perfect_italy,
chill,
clarifying,
directresponse,
disagreement,
feelingbetter,
feelingunderstood,
hardblock,
haveaquestion,
oppose,
play,
pointofprocess,
precision,
silence,
veto,
wanttoadd,
wanttotalk,
"**Description**",
one_europe,
one_us_china,
one_japan,
two_europe,
two_us_china,
two_japan,
three_europe,
three_us_china,
three_japan,
four_europe,
four_us_china,
four_japan,
five_europe,
five_us_china,

glyphs = (
{
glyphname = .notdef;
lastChange = "2025-08-15 09:19:39 +0000";
layers = (
{
layerId = m01;
shapes = (
{
closed = 1;
nodes = (
(849,0,l),
(849,1180,l),
(80,1180,l),
(80,0,l)
);
},
{
closed = 1;
nodes = (
(195,1073,l),
(734,1073,l),
(734,107,l),
(195,107,l)
);
}
);
width = 929;
}
);
},
{
glyphname = drink;
lastChange = "2025-08-15 09:11:12 +0000";
layers = (
{
layerId = m01;
shapes = (
{
closed = 1;
nodes = (
(703,749,o),
(759,806,o),
(759,882,cs),
(759,961,o),
(679,1061,o),
(629,1112,c),
(579,1061,o),
(498,961,o),
(498,882,cs),
(498,806,o),
(554,749,o),
(629,749,cs)
);
},
{
pos = (0,-167);
ref = five_us_china;
},
{
pos = (1259,-167);
ref = five_us_china;
scale = (-1,1);
}
);
width = 1259;
}
);
unicode = 57344;
},
{
glyphname = eat;
lastChange = "2025-08-15 09:11:12 +0000";
layers = (
{
layerId = m01;
shapes = (
{
closed = 1;
nodes = (
(549,666,o),
(548,675,o),
(544,686,cs),
(519,750,ls),
(515,762,o),
(509,769,o),
(499,777,cs),
(372,868,ls),
(357,879,o),
(343,883,o),
(329,883,cs),
(307,883,o),
(288,868,o),
(288,846,c),
(297,854,o),
(313,859,o),
(327,859,cs),
(344,859,o),
(360,854,o),
(374,844,cs),
(485,761,ls),
(496,753,o),
(505,741,o),
(512,728,cs),
(548,657,l)
);
},
{
closed = 1;
nodes = (
(331,793,o),
(350,775,o),
(354,733,c),
(409,690,ls),
(427,676,o),
(428,666,o),
(428,656,cs),
(428,617,l),
(354,617,l),
(348,558,ls),
(347,553,o),
(344,549,o),
(339,549,cs),
(334,549,o),
(331,554,o),
(332,561,cs),
(339,616,o),
(341,670,o),
(338,733,cs),
(336,763,o),
(321,776,o),
(296,776,cs),
(267,776,o),
(258,754,o),
(258,726,cs),
(259,703,o),
(257,666,o),
(246,651,cs),
(223,619,o),
(193,558,o),
(185,531,c),
(79,494,l),
(63,485,o),
(58,459,o),
(60,436,cs),
(64,394,o),
(120,317,o),
(156,321,cs),
(161,321,o),
(165,323,o),
(172,327,cs),
(202,343,o),
(221,348,o),
(249,354,cs),
(306,365,o),
(327,363,o),
(350,373,cs),
(396,393,o),
(520,544,o),
(545,585,cs),
(554,600,o),
(553,612,o),
(548,622,cs),
(496,724,ls),
(490,734,o),
(485,741,o),
(475,749,cs),
(369,828,ls),
(354,839,o),
(340,843,o),
(326,843,cs),
(308,843,o),
(292,833,o),
(287,818,cs),
(284,807,o),
(286,799,o),
(288,792,c)
);
},
{
closed = 1;
nodes = (
(400,677,ls),
(409,670,o),
(412,663,o),
(412,657,cs),
(412,633,l),
(377,633,l),
(378,661,l),
(355,688,l),
(355,712,l)
);
},
{
closed = 1;
nodes = (
(272,828,o),
(272,830,o),
(273,832,c),
(270,844,o),
(271,854,o),
(276,864,c),
(273,865,o),
(269,866,o),
(264,866,cs),
(243,866,o),
(229,855,o),
(229,835,cs),
(229,831,o),
(230,824,o),
(233,820,c),
(246,828,o),
(259,828,o),
(272,826,c)
);
},
{
closed = 1;
nodes = (
(242,694,o),
(240,670,o),
(230,653,c),
(221,762,ls),
(219,783,o),
(224,799,o),
(238,806,cs),
(248,811,o),
(260,812,o),
(270,810,c),
(268,802,o),
(270,795,o),
(273,787,c),
(254,779,o),
(242,759,o),
(242,727,cs)
);
}
);
width = 612;
}
);
unicode = 57345;
},
{
glyphname = sleep;
lastChange = "2025-08-15 09:11:12 +0000";
layers = (
{
layerId = m01;
shapes = (
{
closed = 1;
nodes = (
(859,613,o),
(863,616,o),
(863,622,cs),
(863,625,o),
(862,629,o),
(856,630,cs),
(781,644,ls),
(589,681,o),
(501,769,o),
(474,964,cs),
(460,1065,ls),
(459,1069,o),
(456,1072,o),
(452,1072,cs),
(447,1072,o),
(443,1068,o),
(444,1062,cs),
(458,962,ls),
(485,761,o),
(578,666,o),
(779,628,cs),
(853,614,ls)
);
},
{
angle = 30;
pos = (314,-155);
ref = welcome_india;
}
);
width = 923;
}
);
unicode = 57346;
},
{
glyphname = medicine;
lastChange = "2025-08-15 09:11:12 +0000";
layers = (
{
layerId = m01;
shapes = (
{
closed = 1;
nodes = (
(511,803,ls),
(490,841,o),
(445,856,o),
(404,832,cs),
(363,808,o),
(353,762,o),
(375,725,cs),
(429,631,ls),
(450,594,o),
(495,579,o),
(536,603,cs),
(577,627,o),
(587,673,o),
(565,710,cs)
);
},
{
angle = 180;
pos = (960,1090);
ref = SideHand_Base;
},
{
closed = 1;
nodes = (
(392,728,ls),
(372,762,o),
(375,797,o),
(412,818,cs),
(449,840,o),
(481,823,o),
(500,790,cs),
(522,752,l),
(414,690,l)
);
},
{
closed = 1;
nodes = (
(738,645,o),
(714,619,o),
(680,619,cs),
(645,619,o),
(621,645,o),
(621,677,cs),
(621,709,o),
(645,735,o),
(680,735,cs),
(714,735,o),
(738,709,o),
(738,677,cs)
);
},
{
closed = 1;
nodes = (
(650,641,l),
(664,633,l),
(709,713,l),
(695,721,l)
);
}
);
width = 955;
}
);
unicode = 57347;
},
{
glyphname = healthcare;
lastChange = "2025-08-15 09:11:12 +0000";
layers = (
{
layerId = m01;
shapes = (
{
closed = 1;
nodes = (
(703,761,l),
(703,857,l),
(799,857,l),
(799,1005,l),
(703,1005,l),
(703,1101,l),
(555,1101,l),
(555,1005,l),
(459,1005,l),
(459,857,l),
(555,857,l),
(555,761,l)
);
},
{
pos = (0,-157);
ref = five_us_china;
},
{
pos = (1259,-157);
ref = five_us_china;
scale = (-1,1);
}
);
width = 1259;
}
);
unicode = 57348;
},
{
glyphname = hygiene;
lastChange = "2025-08-15 09:11:12 +0000";
layers = (
{
background = {
shapes = (
{
closed = 1;
nodes = (
(423,406,o),
(437,409,o),
(452,415,c),
(459,386,o),
(485,364,o),
(516,364,cs),
(552,364,o),
(581,393,o),
(581,429,cs),
(581,463,o),
(554,493,o),
(519,494,c),
(520,501,o),
(521,512,o),
(521,519,c),
(568,523,o),
(604,563,o),
(604,610,cs),
(604,658,o),
(563,699,o),
(515,699,cs),
(474,699,o),
(438,669,o),
(428,634,c),
(419,635,o),
(414,635,o),
(407,635,cs),
(343,635,o),
(292,584,o),
(292,521,cs),
(292,457,o),
(343,406,o),
(407,406,cs)
);
},
{
closed = 1;
nodes = (
(372,683,o),
(394,705,o),
(394,732,cs),
(394,758,o),
(372,780,o),
(345,780,cs),
(319,780,o),
(297,758,o),
(297,732,cs),
(297,705,o),
(319,683,o),
(345,683,cs)
);
}
);
};
layerId = m01;
shapes = (
{
closed = 1;
nodes = (
(533,126,o),
(661,129,o),
(758,245,cs),
(933,454,ls),
(951,475,o),
(949,499,o),
(929,516,cs),
(909,533,o),
(886,530,o),
(868,508,cs),
(769,390,ls),
(766,387,o),
(762,386,o),
(758,389,cs),
(754,393,o),
(754,397,o),
(757,401,cs),
(928,604,ls),
(946,626,o),
(945,649,o),
(925,666,cs),
(905,683,o),
(881,681,o),
(863,659,cs),
(692,455,ls),
(689,451,o),
(684,451,o),
(681,454,cs),
(677,458,o),
(676,462,o),
(680,466,cs),
(867,689,ls),
(885,711,o),
(884,734,o),
(864,751,cs),
(844,767,o),
(820,765,o),
(802,744,cs),
(614,520,ls),
(611,516,o),
(607,516,o),
(603,519,cs),
(599,522,o),
(599,527,o),
(602,530,cs),
(761,720,ls),
(779,741,o),
(778,764,o),
(758,781,cs),
(738,798,o),
(714,796,o),
(696,774,cs),
(497,537,ls),
(493,533,o),
(489,533,o),
(485,536,cs),
(481,539,o),
(481,543,o),
(484,547,cs),
(553,629,ls),
(571,651,o),
(571,673,o),
(553,688,cs),
(545,695,o),
(538,697,o),
(527,697,cs),
(516,697,o),
(504,691,o),
(494,679,cs),
(467,646,ls),
(353,510,o),
(282,337,o),
(439,205,cs)
);
},
{
closed = 1;
nodes = (
(786,731,o),
(829,785,o),
(829,843,cs),
(829,911,o),
(771,964,o),
(702,964,cs),
(647,964,o),
(598,927,o),
(582,880,c),
(573,881,o),
(567,881,o),
(559,881,cs),
(512,881,o),
(469,862,o),
(440,829,c),
(459,826,l),
(484,851,o),
(520,865,o),
(559,865,cs),
(569,865,o),
(575,865,o),
(586,864,cs),
(591,864,o),
(594,867,o),
(595,871,cs),
(607,913,o),
(652,948,o),
(702,948,cs),
(763,948,o),
(813,903,o),
(813,843,cs),
(813,794,o),
(781,749,o),
(736,733,c),
(732,716,l)
);
},
{
closed = 1;
nodes = (
(517,929,o),
(550,962,o),
(550,1001,cs),
(550,1039,o),
(517,1072,o),
(478,1072,cs),
(439,1072,o),
(406,1039,o),
(406,1001,cs),
(406,962,o),
(439,929,o),
(478,929,cs)
);
},
{
closed = 1;
nodes = (
(447,944,o),
(422,970,o),
(422,1001,cs),
(422,1032,o),
(447,1057,o),
(478,1057,cs),
(509,1057,o),
(534,1032,o),
(534,1001,cs),
(534,970,o),
(509,944,o),
(478,944,cs)
);
},
{
closed = 1;
nodes = (
(671,769,l),
(513,769,l),
(502,745,o),
(482,737,o),
(456,737,cs),
(361,737,l),
(341,632,o),
(291,598,o),
(215,598,cs),
(192,598,o),
(160,604,o),
(135,613,cs),
(128,616,o),
(125,619,o),
(125,624,cs),
(125,629,o),
(130,632,o),
(135,630,cs),
(162,619,o),
(189,614,o),
(216,614,cs),
(283,614,o),
(329,649,o),
(345,738,cs),
(347,749,o),
(350,753,o),
(360,753,cs),
(458,753,ls),
(486,753,o),
(503,769,o),
(503,795,cs),
(503,821,o),
(486,838,o),
(458,838,cs),
(336,838,ls),
(182,838,o),
(60,768,o),
(60,605,cs),
(60,476,o),
(139,381,o),
(304,381,cs),
(331,381,l),
(334,485,o),
(388,579,o),
(465,668,c),
(416,668,ls),
(409,668,o),
(405,671,o),
(405,676,cs),
(405,682,o),
(408,684,o),
(416,684,cs),
(478,684,l),
(491,700,o),
(506,713,o),
(531,713,cs),
(562,713,o),
(581,687,o),
(582,663,c)
);
}
);
width = 1005;
}
);
unicode = 57349;
},
{
glyphname = air;
lastChange = "2025-08-15 09:11:12 +0000";
layers = (
{
layerId = m01;
shapes = (
{
closed = 1;
nodes = (
(865,362,o),
(880,429,o),
(851,521,cs),
(819,621,o),
(822,683,o),
(822,736,cs),
(822,752,o),
(818,763,o),
(808,773,cs),
(790,790,o),
(764,790,o),
(748,773,cs),
(740,765,o),
(735,753,o),
(735,739,cs),
(733,638,l),
(506,865,ls),
(486,885,o),
(462,884,o),
(444,866,cs),
(425,848,o),
(427,824,o),
(447,804,cs),
(617,634,ls),
(621,630,o),
(624,626,o),
(619,621,cs),
(615,617,o),
(610,619,o),
(606,623,cs),
(432,797,ls),
(403,826,o),
(415,859,o),
(432,877,cs),
(444,888,o),
(462,899,o),
(480,896,c),
(497,912,ls),
(516,932,o),
(517,955,o),
(499,974,cs),
(480,992,o),
(457,992,o),
(437,972,cs),
(192,727,l),
(190,828,ls),
(190,842,o),
(185,854,o),
(177,862,cs),
(161,879,o),
(135,879,o),
(117,862,cs),
(107,852,o),
(103,841,o),
(103,825,cs),
(103,772,o),
(106,710,o),
(74,610,cs),
(45,518,o),
(60,451,o),
(125,385,cs),
(203,307,o),
(304,290,o),
(407,393,c),
(294,506,ls),
(267,533,o),
(266,563,o),
(286,586,cs),
(289,590,o),
(293,590,o),
(297,587,cs),
(301,583,o),
(301,579,o),
(298,575,cs),
(284,558,o),
(286,537,o),
(304,519,cs),
(510,311,ls),
(613,207,o),
(722,218,o),
(800,296,cs)
);
},
{
closed = 1;
nodes = (
(472,474,o),
(467,476,o),
(463,480,cs),
(284,659,ls),
(268,675,o),
(256,707,o),
(278,734,cs),
(281,738,o),
(286,739,o),
(290,735,cs),
(293,732,o),
(293,728,o),
(290,724,cs),
(277,707,o),
(280,686,o),
(298,668,cs),
(474,491,ls),
(479,487,o),
(481,483,o),
(476,478,cs)
);
},
{
closed = 1;
nodes = (
(543,544,o),
(539,547,o),
(534,552,cs),
(336,750,ls),
(308,778,o),
(320,808,o),
(331,824,cs),
(334,828,o),
(339,829,o),
(343,825,cs),
(346,822,o),
(346,819,o),
(343,814,cs),
(330,796,o),
(333,776,o),
(351,758,cs),
(546,563,ls),
(550,559,o),
(553,554,o),
(547,549,cs)
);
},
{
closed = 1;
nodes = (
(645,776,ls),
(665,795,o),
(665,819,o),
(647,837,cs),
(629,856,o),
(605,856,o),
(585,836,cs),
(571,822,l),
(631,762,l)
);
},
{
closed = 1;
nodes = (
(592,865,ls),
(612,885,o),
(612,909,o),
(594,927,cs),
(576,945,o),
(552,946,o),
(532,926,cs),
(498,891,l),
(504,888,o),
(509,885,o),
(514,880,cs),
(559,833,l)
);
}
);
width = 925;
}
);
unicode = 57350;
},
{
glyphname = warmth;
lastChange = "2025-08-15 09:11:12 +0000";
layers = (
{
layerId = m01;
name = Regular;
shapes = (
{
closed = 1;
nodes = (
(53,613,o),
(52,554,o),
(89,474,c),
(119,568,o),
(117,643,o),
(117,682,cs),
(117,720,o),
(136,749,o),
(176,749,cs),
(218,749,o),
(235,722,o),
(236,688,cs),
(237,623,l),
(261,646,l),
(261,728,o),
(245,761,o),
(196,807,c),
(196,908,ls),
(196,936,o),
(180,955,o),
(153,955,cs),
(126,955,o),
(109,935,o),
(109,905,cs),
(109,852,o),
(110,790,o),
(75,680,cs)
);
},
{
closed = 1;
nodes = (
(250,782,o),
(277,737,o),
(277,663,c),
(429,815,ls),
(444,830,o),
(459,841,o),
(486,835,c),
(578,924,ls),
(598,944,o),
(599,967,o),
(581,986,cs),
(562,1004,o),
(538,1004,o),
(518,984,cs),
(332,801,ls),
(328,797,o),
(323,795,o),
(319,799,cs),
(314,804,o),
(317,808,o),
(321,812,cs),
(474,965,ls),
(494,985,o),
(495,1008,o),
(476,1026,cs),
(458,1045,o),
(434,1045,o),
(414,1025,cs),
(206,818,l)
);
},
{
closed = 1;
nodes = (
(401,501,ls),
(395,495,o),
(395,491,o),
(399,487,cs),
(403,483,o),
(406,484,o),
(412,490,cs),
(599,677,ls),
(619,697,o),
(643,697,o),
(662,679,cs),
(680,660,o),
(679,637,o),
(660,617,cs),
(472,430,ls),
(467,424,o),
(466,420,o),
(470,416,cs),
(474,413,o),
(478,413,o),
(483,418,cs),
(591,526,ls),
(611,546,o),
(634,547,o),
(652,529,cs),
(671,510,o),
(671,486,o),
(651,466,cs),
(443,258,ls),
(340,155,o),
(233,165,o),
(155,243,cs),
(90,309,o),
(75,376,o),
(104,468,cs),
(136,568,o),
(133,630,o),
(133,683,cs),
(133,711,o),
(148,733,o),
(176,733,cs),
(203,733,o),
(220,712,o),
(220,686,cs),
(222,585,l),
(443,807,ls),
(463,826,o),
(487,826,o),
(503,810,cs),
(507,806,o),
(511,807,o),
(514,810,cs),
(517,813,o),
(517,818,o),
(513,822,cs),
(509,826,o),
(507,827,o),
(503,829,c),
(570,894,ls),
(590,914,o),
(614,914,o),
(633,896,cs),
(651,877,o),
(651,854,o),
(631,834,cs),
(591,795,l),
(566,804,o),
(547,790,o),
(533,776,cs),
(329,572,ls),
(324,567,o),
(323,563,o),
(327,559,cs),
(331,555,o),
(336,556,o),
(341,561,cs),
(546,767,ls),
(566,787,o),
(589,788,o),
(609,768,cs),
(629,748,o),
(621,722,o),
(608,709,cs)
);
},
{
closed = 1;
nodes = (
(864,734,o),
(867,737,o),
(867,741,cs),
(867,745,o),
(865,747,o),
(859,749,cs),
(836,757,o),
(817,767,o),
(817,784,cs),
(817,797,o),
(827,802,o),
(841,810,cs),
(854,817,o),
(872,827,o),
(872,849,cs),
(872,871,o),
(855,881,o),
(841,888,cs),
(827,895,o),
(817,901,o),
(817,915,cs),
(817,931,o),
(837,943,o),
(861,951,cs),
(865,953,o),
(867,955,o),
(867,959,cs),
(867,963,o),
(863,967,o),
(859,967,cs),
(850,967,o),
(801,948,o),
(801,915,cs),
(801,892,o),
(819,881,o),
(833,874,cs),
(847,867,o),
(856,861,o),
(856,849,cs),
(856,837,o),
(847,831,o),
(833,824,cs),
(819,817,o),
(801,806,o),
(801,784,cs),
(801,750,o),
(851,734,o),
(859,734,cs)
);
},
{
closed = 1;
nodes = (
(764,734,o),
(767,737,o),
(767,741,cs),
(767,745,o),
(765,747,o),
(759,749,cs),
(736,757,o),
(717,767,o),
(717,784,cs),
(717,797,o),
(727,802,o),
(741,810,cs),
(754,817,o),
(772,827,o),
(772,849,cs),
(772,871,o),
(755,881,o),
(741,888,cs),
(727,895,o),
(717,901,o),
(717,915,cs),
(717,931,o),
(737,943,o),
(761,951,cs),
(765,953,o),
(767,955,o),
(767,959,cs),
(767,963,o),
(763,967,o),
(759,967,cs),
(750,967,o),
(701,948,o),
(701,915,cs),
(701,891,o),
(719,881,o),
(733,874,cs),
(747,867,o),
(756,861,o),
(756,849,cs),
(756,837,o),
(747,831,o),
(733,824,cs),
(719,817,o),
(701,807,o),
(701,784,cs),
(701,750,o),
(751,734,o),
(759,734,cs)
);
}
);
visible = 1;
width = 932;
}
);
unicode = 57353;
},
{
glyphname = power;
lastChange = "2025-08-15 09:11:12 +0000";
layers = (
{
background = {
shapes = (
{
closed = 1;
nodes = (
(993,289,o),
(934,242,o),
(934,156,cs),
(934,128,o),
(940,101,o),
(950,73,cs),
(952,69,o),
(950,65,o),
(946,65,cs),
(941,65,o),
(938,67,o),
(935,75,cs),
(926,100,o),
(919,132,o),
(919,155,cs),
(919,247,o),
(978,301,o),
(1087,315,c),
(1087,636,ls),
(1087,663,o),
(1070,681,o),
(1045,681,cs),
(1020,681,o),
(1004,663,o),
(1004,636,cs),
(1004,395,ls),
(1004,389,o),
(1003,384,o),
(996,384,cs),
(990,384,o),
(988,389,o),
(988,395,cs),
(988,672,ls),
(988,699,o),
(971,716,o),
(945,716,cs),
(919,716,o),
(903,699,o),
(903,672,cs),
(903,395,ls),
(903,389,o),
(902,384,o),
(894,384,cs),
(888,384,o),
(887,389,o),
(887,395,cs),
(887,645,ls),
(887,673,o),
(870,690,o),
(844,690,cs),
(817,690,o),
(802,673,o),
(802,645,cs),
(802,395,ls),
(802,389,o),
(800,384,o),
(793,384,cs),
(787,384,o),
(786,389,o),
(786,395,cs),
(786,573,ls),
(786,601,o),
(770,618,o),
(745,618,cs),
(720,618,o),
(703,601,o),
(703,573,cs),
(703,205,ls),
(703,59,o),
(784,0,o),
(894,0,cs),
(999,0,o),
(1049,48,o),
(1087,123,cs),
(1132,207,o),
(1175,276,o),
(1217,317,cs),
(1236,336,o),
(1236,360,o),
(1219,377,cs),
(1204,393,o),
(1180,393,o),
(1160,373,cs),
(1087,303,l)
);
},
{
closed = 1;
nodes = (
(234,373,ls),
(214,393,o),
(190,393,o),
(175,377,cs),
(158,360,o),
(158,336,o),
(177,317,cs),
(219,276,o),
(262,207,o),
(307,123,cs),
(345,48,o),
(395,0,o),
(500,0,cs),
(610,0,o),
(691,59,o),
(691,205,cs),
(691,573,ls),
(691,601,o),
(674,618,o),
(649,618,cs),
(624,618,o),
(608,601,o),
(608,573,cs),
(608,395,ls),
(608,389,o),
(607,384,o),
(601,384,cs),
(594,384,o),
(592,389,o),
(592,395,cs),
(592,645,ls),
(592,673,o),
(577,690,o),
(550,690,cs),
(524,690,o),
(507,673,o),
(507,645,cs),
(507,395,ls),
(507,389,o),
(506,384,o),
(500,384,cs),
(492,384,o),
(491,389,o),
(491,395,cs),
(491,672,ls),
(491,699,o),
(475,716,o),
(449,716,cs),
(423,716,o),
(406,699,o),
(406,672,cs),
(406,395,ls),
(406,389,o),
(404,384,o),
(398,384,cs),
(391,384,o),
(390,389,o),
(390,395,cs),
(390,636,ls),
(390,663,o),
(374,681,o),
(349,681,cs),
(324,681,o),
(307,663,o),
(307,636,cs),
(307,315,l),
(416,301,o),
(475,247,o),
(475,155,cs),
(475,132,o),
(468,100,o),
(459,75,cs),
(456,67,o),
(453,65,o),
(448,65,cs),
(444,65,o),
(442,69,o),
(444,73,cs),
(454,101,o),
(460,128,o),
(460,156,cs),
(460,242,o),
(401,289,o),
(307,303,c)
);
},
{
closed = 1;
nodes = (
(697,149,l),
(582,149,l),
(697,378,l),
(697,218,l),
(812,218,l),
(697,-11,l)
);
},
{
closed = 1;
nodes = (
(597,892,l),
(505,892,ls),
(493,892,o),
(488,900,o),
(493,911,cs),
(578,1080,ls),
(585,1095,o),
(597,1092,o),
(597,1076,cs),
(597,960,l),
(690,960,ls),
(702,960,o),
(706,952,o),
(701,941,cs),
(616,771,ls),
(609,756,o),
(597,759,o),
(597,775,cs)
);
}
);
};
guides = (
{
pos = (503,1118);
}
);
layerId = m01;
shapes = (
{
closed = 1;
nodes = (
(630,882,l),
(527,882,ls),
(521,882,o),
(518,886,o),
(521,891,cs),
(620,1089,ls),
(623,1096,o),
(630,1095,o),
(630,1087,cs),
(630,950,l),
(732,950,ls),
(738,950,o),
(741,946,o),
(738,941,cs),
(639,742,ls),
(636,735,o),
(630,736,o),
(630,744,cs)
);
},
{
pos = (0,-150);
ref = five_us_china;
},
{
pos = (1259,-150);
ref = five_us_china;
scale = (-1,1);
}
);
width = 1259;
}
);
unicode = 57355;
},
{
glyphname = yes;
lastChange = "2025-09-19 10:51:38 +0000";
layers = (
{
layerId = m01;
shapes = (
{
closed = 1;
nodes = (
(132,308,o),
(60,378,o),
(60,487,cs),
(60,568,o),
(87,607,o),
(132,649,cs),
(219,727,o),
(252,774,o),
(283,857,cs),
(294,883,o),
(312,895,o),
(338,888,cs),
(362,883,o),
(371,863,o),
(364,834,cs),
(333,708,l),
(291,708,ls),
(285,708,o),
(282,704,o),
(282,700,cs),
(282,696,o),
(285,692,o),
(291,692,cs),
(470,692,ls),
(503,692,o),
(531,679,o),
(531,642,cs),
(531,619,o),
(521,606,o),
(505,600,c),
(525,596,o),
(541,580,o),
(541,552,cs),
(541,521,o),
(524,504,o),
(501,500,c),
(516,491,o),
(525,476,o),
(525,455,cs),
(525,426,o),
(510,410,o),
(490,404,c),
(500,397,o),
(505,383,o),
(505,369,cs),
(505,327,o),
(475,308,o),
(438,308,cs),
(259,308,ls)
);
}
);
width = 601;
}
);
unicode = 57357;
},
{
glyphname = ok;
lastChange = "2025-09-19 10:51:12 +0000";
layers = (
{
layerId = m01;
shapes = (
{
closed = 1;
nodes = (
(283,752,o),
(283,741,cs),
(283,735,o),
(277,733,o),
(271,735,cs),
(260,739,o),
(241,744,o),
(219,744,cs),
(132,744,o),
(60,678,o),
(60,609,cs),
(60,594,o),
(70,580,o),
(82,574,c),
(69,568,o),
(61,554,o),
(61,538,cs),
(61,512,o),
(81,488,o),
(105,460,cs),
(187,366,ls),
(208,341,o),
(247,296,o),
(277,263,cs),
(290,249,o),
(310,239,o),
(333,239,cs),
(379,239,o),
(469,297,o),
(454,333,cs),
(439,371,o),
(434,383,o),
(431,420,cs),
(418,585,l),
(389,837,ls),
(384,880,o),
(351,894,o),
(317,868,c),
(347,857,l),
(340,909,ls),
(335,938,o),
(310,953,o),
(285,946,c),
(357,735,ls),
(359,728,o),
(355,724,o),
(350,724,cs),
(345,724,o),
(343,727,o),
(341,732,cs),
(276,924,ls),
(266,952,o),
(245,963,o),
(221,955,cs),
(197,947,o),
(186,926,o),
(195,898,cs),
(242,759,l),
(252,758,o)
);
},
{
closed = 1;
nodes = (
(97,573,l),
(130,573,o),
(135,585,o),
(140,600,cs),
(152,633,o),
(177,659,o),
(221,659,cs),
(265,659,o),
(301,633,o),
(301,575,cs),
(301,529,o),
(265,492,o),
(224,492,cs),
(186,492,o),
(168,518,o),
(149,543,cs),
(129,569,o),
(124,576,o),
(98,577,c)
);
}
);
width = 516;
}
);
unicode = 57360;
},
{
glyphname = agree_china;
lastChange = "2025-09-19 10:50:54 +0000";
layers = (
{
layerId = m01;
shapes = (
{
closed = 1;
nodes = (
(677,858,o),
(684,851,o),
(690,834,cs),
(704,794,l),
(710,809,ls),
(723,842,o),
(706,866,o),
(682,866,cs),
(677,866,o),
(672,865,o),
(666,863,c)
);
},
{
closed = 1;
nodes = (
(291,804,ls),
(306,845,o),
(334,862,o),
(364,853,cs),
(385,847,o),
(399,830,o),
(400,812,c),
(411,830,o),
(431,839,o),
(456,830,cs),
(485,820,o),
(495,798,o),
(491,775,c),
(504,786,o),
(522,789,o),
(542,782,cs),
(570,772,o),
(581,753,o),
(579,731,c),
(591,763,l),
(637,637,l),
(585,497,ls),
(535,361,o),
(429,335,o),
(340,368,cs),
(274,393,o),
(247,432,o),
(223,489,cs),
(179,597,o),
(146,644,o),
(78,701,c),
(59,720,o),
(53,742,o),
(68,764,cs),
(79,780,o),
(102,787,o),
(135,765,cs),
(236,698,l),
(219,650,ls),
(217,644,o),
(221,639,o),
(226,639,cs),
(230,639,o),
(232,641,o),
(234,645,c)
);
},
{
closed = 1;
nodes = (
(666,852,o),
(645,863,o),
(620,854,cs),
(596,845,o),
(586,824,o),
(596,797,cs),
(704,497,ls),
(753,361,o),
(860,335,o),
(949,368,cs),
(1015,393,o),
(1042,432,o),
(1066,489,cs),
(1110,597,o),
(1143,644,o),
(1211,701,c),
(1231,721,o),
(1236,742,o),
(1221,764,cs),
(1210,780,o),
(1187,787,o),
(1154,765,cs),
(1053,698,l),
(1070,650,ls),
(1072,644,o),
(1068,639,o),
(1063,639,cs),
(1059,639,o),
(1057,641,o),
(1055,645,cs),
(998,804,ls),
(983,845,o),
(955,862,o),
(925,853,cs),
(904,847,o),
(890,830,o),
(889,812,c),
(878,830,o),
(858,839,o),
(833,830,cs),
(804,820,o),
(794,798,o),
(798,775,c),
(785,786,o),
(767,789,o),
(747,782,cs),
(719,772,o),
(708,753,o),
(710,731,c),
(676,826,ls)
);
}
);
width = 1290;
}
);
unicode = 57361;
},
{
glyphname = bye_western;
lastChange = "2025-09-19 10:50:34 +0000";
layers = (
{
layerId = m01;
shapes = (
{
closed = 1;
nodes = (
(486,393,ls),
(507,414,o),
(508,441,o),
(485,458,cs),
(464,474,o),
(444,471,o),
(423,450,cs),
(360,387,ls),
(336,363,o),
(346,338,o),
(357,327,cs),
(375,310,o),
(401,308,o),
(420,327,cs)
);
},
{
closed = 1;
nodes = (
(492,799,o),
(481,812,o),
(471,804,cs),
(319,702,ls),
(293,684,o),
(272,688,o),
(257,708,cs),
(245,726,o),
(248,747,o),
(271,767,cs),
(337,826,ls),
(356,842,o),
(373,846,o),
(400,850,cs),
(652,882,ls),
(727,891,o),
(773,870,o),
(804,816,cs),
(837,755,o),
(823,680,o),
(761,628,cs),
(729,602,l),
(465,781,l),
(480,791,ls)
);
},
{
closed = 1;
nodes = (
(304,355,o),
(278,355,o),
(259,373,cs),
(244,388,o),
(240,410,o),
(262,432,cs),
(389,559,ls),
(410,580,o),
(431,579,o),
(448,566,cs),
(473,547,o),
(472,521,o),
(453,502,cs),
(321,371,ls)
);
},
{
closed = 1;
nodes = (
(560,350,ls),
(584,334,o),
(607,339,o),
(621,360,cs),
(636,381,o),
(631,405,o),
(608,421,cs),
(478,509,l),
(471,497,o),
(461,486,o),
(448,475,c),
(441,478,l),
(460,490,o),
(481,482,o),
(497,469,cs),
(517,454,o),
(529,417,o),
(504,389,c)
);
},
{
closed = 1;
nodes = (
(435,320,l),
(450,318,o),
(463,325,o),
(473,339,cs),
(479,348,o),
(481,356,o),
(481,365,c)
);
},
{
closed = 1;
nodes = (
(291,605,o),
(310,609,o),
(333,592,cs),
(338,589,o),
(342,588,o),
(346,592,cs),
(349,596,o),
(347,601,o),
(342,605,cs),
(315,626,o),
(287,624,o),
(263,600,cs),
(140,476,ls),
(121,457,o),
(96,458,o),
(78,477,cs),
(63,493,o),
(60,516,o),
(82,538,cs),
(165,623,ls),
(185,643,o),
(204,647,o),
(227,630,cs),
(232,627,o),
(236,626,o),
(240,630,cs),
(243,634,o),
(241,639,o),
(236,643,cs),
(209,664,o),
(181,661,o),
(157,638,cs),
(89,568,l),
(45,639,o),
(53,708,o),
(99,774,cs),
(157,860,o),
(229,886,o),
(311,864,cs),
(351,851,l),
(340,850,o),
(335,844,o),
(328,839,cs),
(257,776,ls),
(243,763,o),
(234,747,o),
(234,731,cs),
(234,703,o),
(259,675,o),
(288,675,cs),
(311,675,o),
(325,687,o),
(353,706,cs),
(451,771,l),
(705,599,ls),
(728,583,o),
(733,560,o),
(719,538,cs),
(704,517,o),
(682,513,o),
(658,529,cs),
(454,666,ls),
(448,670,o),
(444,671,o),
(441,666,cs),
(438,661,o),
(439,657,o),
(445,653,cs),
(686,490,ls),
(709,475,o),
(714,451,o),
(700,429,cs),
(685,407,o),
(661,404,o),
(639,419,cs),
(483,524,l),
(485,542,o),
(479,562,o),
(462,576,cs),
(437,596,o),
(405,598,o),
(375,568,cs),
(229,422,ls),
(212,405,o),
(187,404,o),
(167,423,cs),
(151,439,o),
(148,461,o),
(173,486,cs),
(273,587,ls)
);
}
);
width = 881;
}
);
unicode = 57365;
},
{
glyphname = cannothear;
lastChange = "2025-09-19 10:50:27 +0000";
layers = (
{
layerId = m01;
shapes = (
{
closed = 1;
nodes = (
(597,648,o),
(628,681,o),
(628,724,cs),
(628,728,o),
(625,732,o),
(620,732,cs),
(616,732,o),
(612,728,o),
(612,724,cs),
(612,689,o),
(588,664,o),
(555,664,cs),
(523,664,o),
(510,688,o),
(504,728,cs),
(500,755,o),
(480,770,o),
(461,784,cs),
(435,804,o),
(408,824,o),
(408,876,cs),
(408,935,o),
(455,978,o),
(515,978,cs),
(575,978,o),
(621,935,o),
(621,876,cs),
(621,872,o),
(625,868,o),
(629,868,cs),
(634,868,o),
(637,872,o),
(637,876,cs),
(637,945,o),
(584,994,o),
(515,994,cs),
(447,994,o),
(392,945,o),
(392,876,cs),
(392,816,o),
(425,791,o),
(451,772,cs),
(470,757,o),
(485,746,o),
(488,726,cs),
(495,682,o),
(512,648,o),
(555,648,cs)
);
},
{
closed = 1;
nodes = (
(588,791,o),
(581,796,cs),
(558,813,o),
(534,825,o),
(534,845,cs),
(534,853,o),
(540,859,o),
(551,859,cs),
(559,859,o),
(569,856,o),
(581,846,cs),
(586,842,o),
(590,843,o),
(590,850,cs),
(591,914,o),
(560,948,o),
(514,948,cs),
(470,948,o),
(439,916,o),
(439,877,cs),
(439,873,o),
(443,869,o),
(447,869,cs),
(452,869,o),
(455,873,o),
(455,877,cs),
(455,908,o),
(479,932,o),
(514,932,cs),
(547,932,o),
(569,912,o),
(574,869,c),
(565,873,o),
(558,875,o),
(551,875,cs),
(532,875,o),
(518,861,o),
(518,845,cs),
(518,815,o),
(546,797,o),
(572,783,cs),
(581,778,o)
);
},
{
closed = 1;
nodes = (
(357,895,o),
(343,881,o),
(339,859,cs),
(289,572,ls),
(288,564,o),
(284,562,o),
(278,563,cs),
(273,564,o),
(272,567,o),
(273,575,cs),
(319,836,ls),
(324,863,o),
(310,883,o),
(285,887,cs),
(259,892,o),
(240,878,o),
(235,850,cs),
(189,589,ls),
(188,582,o),
(186,579,o),
(180,580,cs),
(175,581,o),
(172,585,o),
(174,592,c),
(200,743,ls),
(205,771,o),
(192,790,o),
(167,795,cs),
(141,799,o),
(121,785,o),
(117,758,cs),
(65,467,ls),
(40,324,o),
(110,242,o),
(218,223,cs),
(312,206,o),
(377,232,o),
(436,309,cs),
(500,393,o),
(552,426,o),
(596,457,cs),
(608,466,o),
(616,477,o),
(619,490,cs),
(623,515,o),
(608,535,o),
(584,539,cs),
(569,542,o),
(556,538,o),
(544,530,cs),
(460,474,l),
(358,476,o),
(299,449,o),
(285,370,cs),
(280,343,o),
(280,316,o),
(286,287,cs),
(287,282,o),
(284,278,o),
(279,278,cs),
(274,278,o),
(271,283,o),
(270,290,cs),
(265,316,o),
(265,349,o),
(269,371,cs),
(285,461,o),
(352,495,o),
(463,489,c),
(494,666,l),
(482,681,o),
(476,703,o),
(472,725,cs),
(470,741,o),
(457,751,o),
(438,766,cs),
(427,775,l),
(388,554,ls),
(387,547,o),
(383,544,o),
(378,545,cs),
(373,546,o),
(371,550,o),
(372,557,cs),
(413,786,l),
(394,805,o),
(376,832,o),
(376,876,cs),
(376,886,o),
(377,891,o),
(378,897,c)
);
}
);
width = 697;
}
);
unicode = 57366;
},
{
glyphname = celebrate;
lastChange = "2025-09-19 10:50:22 +0000";
layers = (
{
layerId = m01;
shapes = (
{
angle = -14.1;
pos = (367,23);
ref = ClosedFistFront_Base;
},
{
angle = 15;
pos = (159,-132);
ref = ClosedFistBack_Base;
},
{
closed = 1;
nodes = (
(553,791,o),
(556,794,o),
(556,799,cs),
(556,909,ls),
(556,914,o),
(553,917,o),
(548,917,cs),
(543,917,o),
(540,914,o),
(540,909,cs),
(540,799,ls),
(540,794,o),
(543,791,o),
(548,791,cs)
);
},
{
closed = 1;
nodes = (
(638,772,o),
(642,772,o),
(645,775,cs),
(702,832,ls),
(705,835,o),
(705,839,o),
(702,843,cs),
(698,846,o),
(694,846,o),
(691,843,cs),
(634,786,ls),
(631,783,o),
(631,779,o),
(634,775,cs)
);
},
{
closed = 1;
nodes = (
(465,779,o),
(465,783,o),
(462,786,cs),
(405,843,ls),
(402,846,o),
(398,846,o),
(394,843,cs),
(391,839,o),
(391,835,o),
(394,832,cs),
(451,775,ls),
(454,772,o),
(458,772,o),
(462,775,cs)
);
}
);
width = 1099;
}
);
unicode = 57367;
},
{
glyphname = come_western;
lastChange = "2025-09-19 10:50:18 +0000";
layers = (
{
background = {
shapes = (
{
closed = 1;
nodes = (
(168,617,ls),
(164,611,o),
(160,609,o),
(155,612,cs),
(151,615,o),
(151,619,o),
(155,626,cs),
(165,643,l),
(141,679,ls),
(128,699,o),
(119,709,o),
(98,709,cs),
(76,709,o),
(60,693,o),
(60,669,cs),
(60,644,o),
(77,622,o),
(90,604,cs),
(100,589,o),
(111,574,o),
(128,565,cs),
(269,488,ls),
(289,477,o),
(307,471,o),
(324,467,cs),
(463,435,ls),
(509,424,o),
(552,434,o),
(587,447,cs),
(669,477,o),
(713,559,o),
(697,642,cs),
(683,719,o),
(594,773,o),
(549,773,cs),
(516,773,o),
(447,761,o),
(395,745,c),
(428,746,o),
(446,732,o),
(454,708,c),
(482,715,o),
(509,699,o),
(519,671,cs),
(530,639,o),
(516,607,o),
(486,597,c),
(517,582,o),
(544,581,o),
(574,591,cs),
(589,597,o),
(611,608,o),
(628,622,cs),
(634,627,o),
(640,627,o),
(643,623,cs),
(646,618,o),
(643,612,o),
(638,609,cs),
(620,596,o),
(601,584,o),
(581,577,cs),
(544,563,o),
(509,566,o),
(468,588,c),
(480,553,ls),
(483,546,o),
(482,541,o),
(477,539,cs),
(473,537,o),
(468,540,o),
(466,545,cs),
(435,637,ls),
(433,643,o),
(434,648,o),
(438,650,cs),
(443,652,o),
(448,649,o),
(450,642,cs),
(462,605,l),
(476,610,ls),
(502,619,o),
(513,640,o),
(504,666,cs),
(495,689,o),
(474,699,o),
(447,689,cs),
(399,671,ls),
(377,663,o),
(370,650,o),
(377,630,cs),
(396,580,ls),
(399,573,o),
(397,568,o),
(393,566,cs),
(389,564,o),
(384,566,o),
(381,573,cs),
(362,625,ls),
(352,653,o),
(362,675,o),
(390,685,cs),
(439,703,l),
(431,726,o),
(410,735,o),
(384,725,cs),
(313,700,ls),
(297,694,o),
(289,681,o),
(296,660,cs),
(331,564,ls),
(334,556,o),
(332,552,o),
(328,550,cs),
(323,548,o),
(319,551,o),
(316,559,cs),
(279,661,ls),
(272,681,o),
(282,705,o),
(301,712,cs),
(381,741,l),
(374,766,o),
(352,774,o),
(327,764,cs),
(260,741,ls),
(224,727,o),
(212,698,o),
(225,663,cs),
(254,584,ls),
(257,576,o),
(255,572,o),
(251,570,cs),
(246,568,o),
(242,571,o),
(239,579,cs),
(228,608,l),
(178,634,l)
);
}
);
};
layerId = m01;
shapes = (
{
closed = 1;
nodes = (
(141,679,l),
(128,699,o),
(119,709,o),
(98,709,cs),
(76,709,o),
(60,693,o),
(60,669,cs),
(60,644,o),
(77,622,o),
(90,604,cs),
(100,589,o),
(111,574,o),
(128,565,cs),
(269,488,ls),
(289,477,o),
(307,471,o),
(324,467,cs),
(463,435,ls),
(509,424,o),
(552,434,o),
(587,447,cs),
(669,477,o),
(713,559,o),
(697,642,cs),
(683,719,o),
(594,773,o),
(549,773,cs),
(516,773,o),
(447,761,o),
(395,745,c),
(428,746,o),
(446,732,o),
(454,708,c),
(482,715,o),
(509,699,o),
(519,671,cs),
(530,639,o),
(516,607,o),
(486,597,c),
(517,582,o),
(544,581,o),
(574,591,cs),
(589,597,o),
(611,608,o),
(628,622,cs),
(634,627,o),
(640,627,o),
(643,623,cs),
(646,618,o),
(643,612,o),
(638,609,cs),
(620,596,o),
(601,584,o),
(581,577,cs),
(544,563,o),
(509,566,o),
(468,588,c),
(480,553,ls),
(483,546,o),
(482,541,o),
(477,539,cs),
(473,537,o),
(468,540,o),
(466,545,cs),
(435,637,ls),
(433,643,o),
(434,648,o),
(438,650,cs),
(443,652,o),
(448,649,o),
(450,642,cs),
(462,605,l),
(476,610,ls),
(502,619,o),
(513,640,o),
(504,666,cs),
(495,689,o),
(474,699,o),
(447,689,cs),
(399,671,ls),
(377,663,o),
(370,650,o),
(377,630,cs),
(396,580,ls),
(399,573,o),
(397,568,o),
(393,566,cs),
(389,564,o),
(384,566,o),
(381,573,cs),
(362,625,ls),
(352,653,o),
(362,675,o),
(390,685,cs),
(439,703,l),
(431,726,o),
(410,735,o),
(384,725,cs),
(313,700,ls),
(297,694,o),
(289,681,o),
(296,660,cs),
(331,564,ls),
(334,556,o),
(332,552,o),
(328,550,cs),
(323,548,o),
(319,551,o),
(316,559,cs),
(279,661,ls),
(272,681,o),
(282,705,o),
(301,712,cs),
(381,741,l),
(374,766,o),
(352,774,o),
(327,764,cs),
(260,741,ls),
(224,727,o),
(212,698,o),
(225,663,cs),
(254,584,ls),
(257,576,o),
(255,572,o),
(251,570,cs),
(246,568,o),
(242,571,o),
(239,579,cs),
(228,608,l),
(166,641,l)
);
}
);
width = 760;
}
);
unicode = 57368;
},
{
glyphname = come_japan;
lastChange = "2025-09-19 10:50:14 +0000";
layers = (
{
guides = (
{
angle = 222.4489;
pos = (428,391);
},
{
angle = 42.0492;
pos = (436,260);
}
);
layerId = m01;
shapes = (
{
angle = 5;
pos = (182,82);
ref = SideHand_Base;
},
{
closed = 1;
nodes = (
(191,415,ls),
(198,414,o),
(203,419,o),
(203,427,cs),
(209,513,ls),
(210,521,o),
(206,525,o),
(201,525,cs),
(196,525,o),
(193,522,o),
(192,514,cs),
(187,432,l),
(106,439,ls),
(99,440,o),
(95,437,o),
(95,432,cs),
(95,427,o),
(99,425,o),
(105,424,cs)
);
},
{
closed = 1;
nodes = (
(198,410,o),
(207,424,o),
(194,434,cs),
(139,473,o),
(76,564,o),
(76,680,cs),
(78,791,o),
(124,870,o),
(195,917,cs),
(203,922,o),
(196,935,o),
(187,930,cs),
(123,896,o),
(59,802,o),
(60,682,cs),
(60,560,o),
(124,463,o),
(185,420,cs)
);
},
{
closed = 1;
nodes = (
(1025,662,o),
(1028,632,o),
(1016,614,cs),
(985,569,o),
(954,537,o),
(918,520,cs),
(870,498,o),
(817,497,o),
(771,501,cs),
(689,509,l),
(559,449,ls),
(534,437,o),
(510,447,o),
(500,469,cs),
(490,491,o),
(498,514,o),
(523,526,cs),
(647,584,ls),
(652,586,o),
(654,591,o),
(652,595,cs),
(650,599,o),
(646,601,o),
(641,599,cs),
(518,541,ls),
(488,527,o),
(470,497,o),
(486,463,cs),
(487,459,o),
(489,456,o),
(492,452,c),
(390,360,ls),
(363,335,o),
(327,335,o),
(312,367,cs),
(303,386,o),
(310,403,o),
(336,426,cs),
(540,612,ls),
(573,642,o),
(599,661,o),
(617,669,cs),
(634,676,o),
(660,676,o),
(684,676,cs),
(744,677,o),
(808,699,o),
(831,710,cs),
(848,717,o),
(881,752,o),
(900,761,cs),
(936,777,o),
(991,734,o),
(1013,688,cs)
);
},
{
closed = 1;
nodes = (
(998,758,o),
(934,795,o),
(894,776,cs),
(871,766,o),
(841,732,o),
(825,724,cs),
(801,713,o),
(737,693,o),
(677,691,cs),
(652,691,o),
(627,691,o),
(610,683,cs),
(593,675,o),
(566,657,o),
(533,628,cs),
(322,435,ls),
(291,408,o),
(286,385,o),
(298,360,cs),
(321,313,o),
(374,323,o),
(400,347,cs),
(502,439,l),
(517,429,o),
(539,423,o),
(566,435,cs),
(690,492,l),
(774,485,ls),
(820,481,o),
(877,484,o),
(925,506,cs),
(961,523,o),
(1000,555,o),
(1028,601,cs),
(1044,628,o),
(1047,654,o),
(1030,690,cs)
);
},
{
closed = 1;
nodes = (
(279,390,o),
(276,381,o),
(277,372,c),
(249,345,o),
(249,326,o),
(263,307,cs),
(279,286,o),
(312,287,o),
(333,308,cs),
(338,313,l),
(344,312,o),
(351,310,o),
(361,312,c),
(345,297,ls),
(317,271,o),
(274,266,o),
(249,299,cs),
(228,327,o),
(238,358,o),
(263,381,cs),
(282,398,l)
);
}
);
width = 1101;
}
);
unicode = 57369;
},
{
glyphname = connection;
lastChange = "2025-09-19 10:50:09 +0000";
layers = (
{
layerId = m01;
shapes = (
{
closed = 1;
nodes = (
(124,662,o),
(137,662,o),
(153,662,cs),
(208,662,l),
(147,880,ls),
(140,906,o),
(131,923,o),
(105,923,cs),
(76,923,o),
(52,906,o),
(62,870,cs),
(120,660,l)
);
},
{
closed = 1;
nodes = (
(274,662,ls),
(286,662,o),
(297,659,o),
(303,657,c),
(305,904,ls),
(305,941,o),
(289,958,o),
(262,958,cs),
(236,958,o),
(220,941,o),
(220,914,cs),
(218,662,l)
);
},
{
closed = 1;
nodes = (
(431,887,ls),
(434,915,o),
(414,932,o),
(388,932,cs),
(363,932,o),
(350,914,o),
(347,887,cs),
(318,648,l),
(327,640,o),
(335,626,o),
(335,609,cs),
(335,581,o),
(315,552,o),
(282,552,cs),
(225,552,ls),
(219,552,o),
(218,549,o),
(218,546,cs),
(218,539,o),
(227,534,o),
(246,517,cs),
(296,470,o),
(305,441,o),
(305,379,cs),
(305,356,o),
(301,330,o),
(294,302,cs),
(293,297,o),
(290,294,o),
(285,294,cs),
(279,294,o),
(276,301,o),
(278,306,cs),
(285,327,o),
(289,354,o),
(289,379,cs),
(289,445,o),
(276,474,o),
(221,517,cs),
(208,527,o),
(202,535,o),
(202,547,cs),
(202,562,o),
(215,568,o),
(229,568,cs),
(280,568,ls),
(303,568,o),
(319,585,o),
(319,607,cs),
(319,630,o),
(303,646,o),
(280,646,cs),
(140,646,ls),
(113,646,o),
(103,632,o),
(94,609,cs),
(80,571,ls),
(72,552,o),
(73,534,o),
(80,508,cs),
(103,421,ls),
(133,307,o),
(188,255,o),
(298,255,cs),
(417,255,o),
(498,325,o),
(498,456,cs),
(498,547,l),
(490,539,o),
(476,532,o),
(461,532,cs),
(456,532,o),
(449,533,o),
(449,541,cs),
(449,547,o),
(454,548,o),
(458,548,cs),
(483,548,o),
(489,560,o),
(498,593,cs),
(559,816,ls),
(566,843,o),
(543,860,o),
(518,860,cs),
(494,860,o),
(486,843,o),
(478,816,cs),
(423,634,ls),
(422,629,o),
(420,626,o),
(415,626,cs),
(410,626,o),
(407,629,o),
(407,634,cs)
);
},
{
closed = 1;
nodes = (
(982,870,ls),
(992,906,o),
(968,923,o),
(939,923,cs),
(913,923,o),
(904,906,o),
(897,880,cs),
(836,662,l),
(891,662,ls),
(907,662,o),
(920,662,o),
(924,660,c)
);
},
{
closed = 1;
nodes = (
(824,914,ls),
(824,941,o),
(808,958,o),
(782,958,cs),
(755,958,o),
(739,941,o),
(739,904,cs),
(741,657,l),
(747,659,o),
(758,662,o),
(770,662,cs),
(826,662,l)
);
},
{
closed = 1;
nodes = (
(637,629,o),
(634,626,o),
(629,626,cs),
(624,626,o),
(622,629,o),
(621,634,cs),
(566,816,ls),
(558,843,o),
(550,860,o),
(526,860,cs),
(501,860,o),
(478,843,o),
(485,816,cs),
(546,593,ls),
(555,560,o),
(561,548,o),
(586,548,cs),
(590,548,o),
(595,547,o),
(595,541,cs),
(595,533,o),
(588,532,o),
(583,532,cs),
(568,532,o),
(554,539,o),
(546,547,c),
(546,456,ls),
(546,325,o),
(627,255,o),
(746,255,cs),
(856,255,o),
(911,307,o),
(941,421,cs),
(964,508,ls),
(971,534,o),
(972,552,o),
(964,571,cs),
(950,609,ls),
(941,632,o),
(931,646,o),
(904,646,cs),
(764,646,ls),
(741,646,o),
(725,630,o),
(725,607,cs),
(725,585,o),
(741,568,o),
(764,568,cs),
(815,568,ls),
(829,568,o),
(842,562,o),
(842,547,cs),
(842,535,o),
(836,527,o),
(823,517,cs),
(768,474,o),
(755,445,o),
(755,379,cs),
(755,354,o),
(759,327,o),
(766,306,cs),
(768,301,o),
(765,294,o),
(759,294,cs),
(754,294,o),
(751,297,o),
(750,302,cs),
(743,330,o),
(739,356,o),
(739,379,cs),
(739,441,o),
(748,470,o),
(798,517,cs),
(817,534,o),
(826,539,o),
(826,546,cs),
(826,549,o),
(825,552,o),
(819,552,cs),
(762,552,ls),
(729,552,o),
(709,581,o),
(709,609,cs),
(709,626,o),
(717,640,o),
(726,648,c),
(697,887,ls),
(694,914,o),
(681,932,o),
(656,932,cs),
(630,932,o),
(610,915,o),
(613,887,cs),
(637,634,ls)
);
}
);
width = 1044;
}
);
unicode = 57370;
},
{
glyphname = enemy;
lastChange = "2025-09-19 10:49:59 +0000";
layers = (
{
background = {
shapes = (
{
closed = 1;
nodes = (
(982,648,ls),
(1044,542,o),
(1013,411,o),
(901,345,cs),
(762,263,o),
(625,340,o),
(559,454,cs),
(547,474,o),
(540,493,o),
(532,513,cs),
(520,541,o),
(522,561,o),
(544,574,cs),
(549,577,o),
(555,579,o),
(562,581,c),
(603,510,ls),
(606,506,o),
(610,505,o),
(613,507,cs),
(618,510,o),
(618,514,o),
(616,518,cs),
(449,809,ls),
(440,824,o),
(433,852,o),
(458,868,cs),
(484,884,o),
(505,874,o),
(522,846,cs),
(621,678,l),
(618,679,l),
(601,714,o),
(581,759,o),
(620,780,cs),
(662,804,o),
(688,765,o),
(705,745,c),
(703,722,l),
(695,748,o),
(677,790,o),
(717,812,cs),
(757,836,o),
(784,799,o),
(801,778,c),
(800,755,l),
(791,780,o),
(772,822,o),
(812,845,cs),
(843,863,o),
(869,844,o),
(887,812,cs)
);
},
{
closed = 1;
nodes = (
(168,844,o),
(194,863,o),
(225,845,cs),
(265,822,o),
(246,780,o),
(237,755,c),
(236,778,l),
(253,799,o),
(280,836,o),
(320,812,cs),
(360,790,o),
(342,748,o),
(334,722,c),
(332,745,l),
(349,765,o),
(375,804,o),
(417,780,cs),
(456,759,o),
(436,714,o),
(419,679,c),
(416,678,l),
(515,846,ls),
(532,874,o),
(553,884,o),
(579,868,cs),
(604,852,o),
(597,824,o),
(588,809,cs),
(421,518,ls),
(419,514,o),
(419,510,o),
(424,507,cs),
(427,505,o),
(431,506,o),
(434,510,cs),
(475,581,l),
(482,579,o),
(488,577,o),
(493,574,cs),
(515,561,o),
(517,541,o),
(505,513,cs),
(497,493,o),
(490,474,o),
(478,454,cs),
(412,340,o),
(275,263,o),
(136,345,cs),
(24,411,o),
(-7,542,o),
(55,648,cs),
(150,812,ls)
);
}
);
};
layerId = m01;
shapes = (
{
angle = 30;
pos = (783,-2);
ref = PointingFinger;
},
{
closed = 1;
nodes = (
(606,785,l),
(621,811,ls),
(635,835,o),
(628,858,o),
(606,871,cs),
(588,881,o),
(572,879,o),
(558,867,c)
);
},
{
closed = 1;
nodes = (
(490,750,l),
(472,718,l),
(473,740,o),
(467,763,o),
(442,777,cs),
(416,792,o),
(392,786,o),
(377,768,c),
(377,785,o),
(369,801,o),
(350,811,cs),
(325,826,o),
(304,821,o),
(289,806,c),
(288,819,o),
(278,830,o),
(266,837,cs),
(230,858,o),
(198,841,o),
(180,809,cs),
(105,680,ls),
(27,544,o),
(51,447,o),
(177,375,cs),
(275,319,o),
(378,369,o),
(447,411,cs),
(484,433,o),
(509,450,o),
(515,464,cs),
(521,477,o),
(518,494,o),
(515,510,cs),
(500,564,l),
(466,506,ls),
(464,502,o),
(460,500,o),
(455,503,cs),
(451,505,o),
(449,508,o),
(452,514,cs),
(540,665,l)
);
}
);
width = 1098;
}
);
unicode = 57372;
},
{
glyphname = exhange;
lastChange = "2025-09-19 10:49:29 +0000";
layers = (
{
layerId = m01;
shapes = (
{
closed = 1;
nodes = (
(355,512,o),
(359,515,o),
(365,517,c),
(357,524,o),
(338,533,o),
(314,533,cs),
(270,533,o),
(227,498,o),
(227,444,cs),
(227,392,o),
(266,355,o),
(314,355,cs),
(343,355,o),
(371,368,o),
(395,408,c),
(376,408,l),
(357,376,o),
(335,370,o),
(314,370,cs),
(278,370,o),
(243,399,o),
(243,444,cs),
(243,489,o),
(278,518,o),
(314,518,cs),
(333,518,o),
(347,514,o),
(352,509,c)
);
},
{
closed = 1;
nodes = (
(124,532,o),
(112,519,o),
(106,501,cs),
(100,480,o),
(105,464,o),
(113,454,c),
(107,456,ls),
(77,465,o),
(60,486,o),
(69,514,cs),
(76,539,o),
(100,548,o),
(132,538,cs),
(136,537,l)
);
},
{
closed = 1;
nodes = (
(151,442,ls),
(125,451,o),
(114,473,o),
(121,496,cs),
(128,519,o),
(150,532,o),
(177,524,cs),
(232,507,l),
(215,482,o),
(209,453,o),
(216,419,c)
);
},
{
closed = 1;
nodes = (
(403,391,o),
(389,374,o),
(375,361,c),
(438,339,ls),
(480,324,o),
(512,320,o),
(531,320,cs),
(550,320,o),
(573,332,o),
(595,342,cs),
(650,366,o),
(713,388,o),
(747,388,cs),
(755,388,o),
(775,386,o),
(821,371,cs),
(824,370,o),
(827,370,o),
(831,370,cs),
(871,370,o),
(902,433,o),
(902,484,cs),
(902,514,o),
(892,541,o),
(874,553,cs),
(827,580,o),
(785,596,o),
(745,596,cs),
(693,596,o),
(644,574,o),
(604,551,cs),
(532,509,l),
(390,509,ls),
(362,509,o),
(345,490,o),
(345,466,cs),
(345,442,o),
(362,424,o),
(390,424,cs),
(503,424,ls),
(509,424,o),
(512,420,o),
(512,416,cs),
(512,412,o),
(509,408,o),
(503,408,cs),
(413,408,l)
);
},
{
closed = 1;
nodes = (
(567,791,l),
(588,827,o),
(615,844,o),
(648,844,cs),
(697,844,o),
(735,806,o),
(735,755,cs),
(735,705,o),
(696,666,o),
(648,666,cs),
(629,666,o),
(608,673,o),
(597,682,c),
(617,689,o),
(633,705,o),
(633,734,cs),
(633,768,o),
(608,791,o),
(572,791,cs)
);
},
{
closed = 1;
nodes = (
(838,667,o),
(850,680,o),
(856,698,cs),
(862,719,o),
(857,735,o),
(849,745,c),
(855,743,ls),
(885,734,o),
(902,713,o),
(893,685,cs),
(886,660,o),
(862,651,o),
(830,661,cs),
(826,662,l)
);
},
{
closed = 1;
nodes = (
(811,757,ls),
(837,748,o),
(848,726,o),
(841,703,cs),
(834,680,o),
(812,667,o),
(785,675,cs),
(730,692,l),
(747,717,o),
(753,746,o),
(746,780,c)
);
},
{
closed = 1;
nodes = (
(559,808,o),
(573,825,o),
(587,838,c),
(524,860,ls),
(482,875,o),
(450,879,o),
(431,879,cs),
(412,879,o),
(389,867,o),
(367,857,cs),
(312,833,o),
(249,811,o),
(215,811,cs),
(207,811,o),
(187,813,o),
(141,828,cs),
(138,829,o),
(135,829,o),
(131,829,cs),
(91,829,o),
(60,766,o),
(60,715,cs),
(60,685,o),
(70,658,o),
(88,646,cs),
(135,619,o),
(177,603,o),
(217,603,cs),
(269,603,o),
(318,625,o),
(358,648,cs),
(430,690,l),
(572,690,ls),
(600,690,o),
(617,709,o),
(617,733,cs),
(617,757,o),
(600,775,o),
(572,775,cs),
(459,775,ls),
(453,775,o),
(450,779,o),
(450,783,cs),
(450,787,o),
(453,791,o),
(459,791,cs),
(549,791,l)
);
}
);
width = 962;
}
);
unicode = 57373;
},
{
glyphname = friend_uk_us;
lastChange = "2025-09-19 10:49:21 +0000";
layers = (
{
layerId = m01;
shapes = (
{
closed = 1;
nodes = (
(188,331,o),
(288,316,o),
(391,419,cs),
(616,645,ls),
(636,664,o),
(636,688,o),
(618,707,cs),
(599,725,o),
(576,724,o),
(556,705,cs),
(485,633,l),
(495,652,o),
(494,674,o),
(473,695,cs),
(457,710,o),
(440,715,o),
(423,710,c),
(437,729,o),
(437,753,o),
(415,775,cs),
(396,794,o),
(374,794,o),
(357,782,c),
(363,799,o),
(362,814,o),
(341,835,cs),
(313,863,o),
(285,852,o),
(261,828,cs),
(178,745,ls),
(174,741,o),
(171,741,o),
(166,743,cs),
(163,747,o),
(162,752,o),
(166,756,cs),
(214,804,l),
(155,803,ls),
(140,802,o),
(123,800,o),
(113,790,cs),
(100,778,o),
(92,751,o),
(82,710,cs),
(58,616,o),
(33,486,o),
(124,396,cs)
);
},
{
closed = 1;
nodes = (
(866,736,l),
(798,804,ls),
(778,824,o),
(778,849,o),
(795,866,cs),
(812,883,o),
(838,884,o),
(858,864,cs),
(929,793,l),
(922,790,o),
(913,783,o),
(904,774,cs)
);
},
{
closed = 1;
nodes = (
(777,802,ls),
(758,822,o),
(733,821,o),
(716,804,cs),
(699,787,o),
(698,761,o),
(717,742,cs),
(794,665,l),
(855,725,l)
);
},
{
closed = 1;
nodes = (
(758,570,o),
(744,573,o),
(725,591,cs),
(654,662,ls),
(635,682,o),
(636,707,o),
(653,724,cs),
(670,741,o),
(695,742,o),
(715,722,cs),
(783,653,l),
(759,629,o),
(755,601,o),
(773,577,c)
);
},
{
closed = 1;
nodes = (
(566,728,o),
(542,728,o),
(524,710,cs),
(506,692,o),
(506,668,o),
(525,648,c),
(751,423,l),
(852,321,o),
(960,329,o),
(1038,407,cs),
(1144,513,o),
(1125,643,o),
(1043,725,cs),
(1036,732,o),
(1027,739,o),
(1021,743,cs),
(981,772,ls),
(960,788,o),
(939,787,o),
(920,767,cs),
(794,641,ls),
(775,622,o),
(773,599,o),
(792,579,cs),
(810,561,o),
(835,562,o),
(854,581,cs),
(917,644,ls),
(927,654,o),
(939,658,o),
(951,647,cs),
(961,637,o),
(963,626,o),
(961,601,cs),
(956,540,o),
(967,506,o),
(998,475,cs),
(1005,468,o),
(1015,461,o),
(1019,458,cs),
(1025,454,o),
(1024,450,o),
(1020,446,cs),
(1017,443,o),
(1013,442,o),
(1007,446,cs),
(1003,449,o),
(994,457,o),
(987,464,cs),
(956,495,o),
(939,536,o),
(944,597,cs),
(946,623,o),
(947,628,o),
(942,633,cs),
(938,637,o),
(933,638,o),
(928,633,cs),
(868,573,ls),
(839,544,o),
(805,544,o),
(784,565,c),
(761,553,o),
(739,555,o),
(717,577,cs),
(586,708,ls)
);
}
);
width = 1171;
}
);
unicode = 57375;
},
{
glyphname = friend_france;
lastChange = "2025-09-19 10:49:15 +0000";
layers = (
{
layerId = m01;
shapes = (
{
closed = 1;
nodes = (
(398,700,ls),
(396,706,o),
(395,712,o),
(396,716,c),
(380,709,ls),
(367,703,o),
(363,699,o),
(363,693,cs),
(363,688,o),
(364,684,o),
(366,677,cs),
(378,640,l),
(415,646,l)
);
},
{
closed = 1;
nodes = (
(478,657,ls),
(483,658,o),
(488,656,o),
(488,649,cs),
(488,644,o),
(486,642,o),
(482,641,cs),
(367,622,l),
(350,674,ls),
(346,685,o),
(344,693,o),
(344,697,cs),
(344,707,o),
(352,715,o),
(366,721,cs),
(552,796,l),
(555,801,o),
(556,805,o),
(556,812,cs),
(556,826,o),
(548,834,o),
(531,834,cs),
(523,834,o),
(518,833,o),
(493,827,cs),
(476,823,o),
(453,818,o),
(417,815,cs),
(382,812,o),
(350,810,o),
(314,809,cs),
(285,808,o),
(265,794,o),
(253,769,cs),
(197,655,ls),
(191,642,o),
(183,634,o),
(174,632,cs),
(119,618,ls),
(109,615,o),
(99,612,o),
(95,610,cs),
(71,601,o),
(60,569,o),
(60,534,cs),
(60,498,o),
(78,433,o),
(120,424,cs),
(131,422,o),
(140,421,o),
(154,420,cs),
(168,419,o),
(180,417,o),
(193,414,cs),
(363,380,ls),
(385,376,o),
(403,371,o),
(423,371,cs),
(446,371,o),
(460,384,o),
(472,397,cs),
(533,463,l),
(488,451,ls),
(479,449,o),
(475,452,o),
(475,457,cs),
(475,463,o),
(480,465,o),
(486,467,cs),
(559,487,ls),
(568,489,o),
(570,496,o),
(570,501,cs),
(570,505,o),
(569,512,o),
(566,518,c),
(454,487,ls),
(448,485,o),
(441,487,o),
(441,494,cs),
(441,499,o),
(446,502,o),
(451,503,cs),
(569,535,ls),
(579,538,o),
(588,544,o),
(588,556,cs),
(588,565,o),
(586,571,o),
(581,579,c),
(574,576,o),
(571,575,o),
(559,571,c),
(428,535,ls),
(422,533,o),
(416,535,o),
(416,542,cs),
(416,547,o),
(421,549,o),
(427,551,cs),
(555,586,ls),
(568,590,o),
(584,597,o),
(584,614,cs),
(584,641,o),
(566,666,o),
(547,692,cs),
(543,698,o),
(547,703,o),
(553,703,cs),
(556,703,o),
(559,702,o),
(562,699,cs),
(575,686,o),
(600,646,o),
(600,616,cs),
(600,607,o),
(598,599,o),
(594,592,c),
(598,584,o),
(601,576,o),
(603,568,c),
(618,540,o),
(646,522,o),
(681,511,cs),
(699,506,o),
(718,502,o),
(738,502,cs),
(749,502,o),
(755,504,o),
(764,504,cs),
(769,504,o),
(772,502,o),
(772,497,cs),
(772,490,o),
(758,486,o),
(739,486,cs),
(721,486,o),
(696,489,o),
(678,494,cs),
(645,504,o),
(619,519,o),
(601,542,c),
(597,533,o),
(590,527,o),
(581,521,c),
(583,517,o),
(586,508,o),
(586,499,cs),
(586,488,o),
(579,476,o),
(563,471,c),
(519,425,l),
(599,380,ls),
(620,368,o),
(640,366,o),
(656,366,cs),
(673,366,o),
(687,368,o),
(700,372,cs),
(756,389,o),
(819,408,o),
(866,408,cs),
(906,408,o),
(928,422,o),
(953,440,cs),
(972,453,o),
(981,479,o),
(981,509,cs),
(981,560,o),
(950,623,o),
(910,623,cs),
(905,623,o),
(900,622,o),
(893,620,cs),
(885,618,o),
(876,616,o),
(868,616,cs),
(848,616,o),
(833,621,o),
(816,631,cs),
(584,772,ls),
(570,781,o),
(558,782,o),
(544,776,cs),
(428,729,ls),
(415,724,o),
(412,710,o),
(415,700,cs),
(431,649,l)
);
}
);
width = 1041;
}
);
unicode = 57376;
},
{
glyphname = friend_spain;
lastChange = "2025-09-19 10:49:09 +0000";
layers = (
{
layerId = m01;
name = Regular;
shapes = (
{
closed = 1;
nodes = (
(60,512,o),
(62,463,o),
(95,459,cs),
(147,452,o),
(174,450,o),
(220,450,cs),
(253,450,o),
(270,470,o),
(270,495,cs),
(270,642,ls),
(270,685,o),
(305,712,o),
(335,712,cs),
(353,712,o),
(365,708,o),
(378,700,c),
(389,718,o),
(409,733,o),
(438,733,cs),
(465,733,o),
(486,716,o),
(495,701,c),
(505,707,o),
(514,709,o),
(525,709,cs),
(549,709,o),
(573,690,o),
(583,671,c),
(594,675,o),
(602,676,o),
(611,676,cs),
(631,676,o),
(646,670,o),
(663,654,cs),
(706,614,ls),
(710,610,o),
(715,607,o),
(726,607,cs),
(732,607,o),
(738,610,o),
(742,614,c),
(752,606,o),
(757,602,o),
(769,602,cs),
(788,602,o),
(801,616,o),
(801,635,cs),
(801,655,o),
(789,668,o),
(767,686,cs),
(629,801,ls),
(616,812,o),
(598,819,o),
(577,821,cs),
(404,840,ls),
(389,842,o),
(381,843,o),
(377,843,cs),
(361,843,o),
(270,787,o),
(256,767,cs),
(186,664,ls),
(176,650,o),
(165,643,o),
(152,642,cs),
(126,640,o),
(115,639,o),
(108,638,cs),
(82,634,o),
(60,590,o),
(60,548,cs)
);
},
{
closed = 1;
nodes = (
(303,423,o),
(286,440,o),
(286,468,cs),
(286,630,ls),
(286,670,o),
(310,696,o),
(344,696,cs),
(378,696,o),
(391,670,o),
(393,660,c),
(377,660,l),
(382,689,o),
(397,717,o),
(437,717,cs),
(477,717,o),
(490,684,o),
(491,667,c),
(478,672,l),
(486,684,o),
(500,693,o),
(523,693,cs),
(553,693,o),
(573,665,o),
(576,642,c),
(561,632,l),
(568,653,o),
(587,660,o),
(607,660,cs),
(627,660,o),
(639,654,o),
(651,643,cs),
(693,604,ls),
(701,596,o),
(707,589,o),
(707,576,cs),
(707,554,o),
(683,537,o),
(661,527,c),
(635,484,ls),
(626,470,o),
(616,462,o),
(604,462,cs),
(599,462,o),
(594,463,o),
(589,465,c),
(589,582,ls),
(589,590,o),
(587,593,o),
(582,593,cs),
(576,593,o),
(573,590,o),
(573,582,cs),
(573,478,ls),
(573,450,o),
(557,433,o),
(531,433,cs),
(505,433,o),
(488,450,o),
(488,478,cs),
(488,582,ls),
(488,590,o),
(486,593,o),
(481,593,cs),
(475,593,o),
(472,590,o),
(472,582,cs),
(472,468,ls),
(472,439,o),
(454,423,o),
(430,423,cs),
(404,423,o),
(387,440,o),
(387,468,cs),
(387,582,ls),
(387,590,o),
(385,593,o),
(380,593,cs),
(374,593,o),
(371,590,o),
(371,582,cs),
(371,468,ls),
(371,440,o),
(355,423,o),
(329,423,cs)
);
},
{
closed = 1;
nodes = (
(347,407,o),
(370,415,o),
(380,445,c),
(386,421,o),
(405,407,o),
(430,407,cs),
(451,407,o),
(468,415,o),
(477,436,c),
(502,427,o),
(521,413,o),
(521,399,cs),
(521,384,o),
(509,377,o),
(488,375,cs),
(423,369,ls),
(408,368,o),
(395,364,o),
(386,361,cs),
(377,358,o),
(370,356,o),
(364,356,cs),
(350,356,o),
(341,364,o),
(336,374,cs),
(321,407,l)
);
}
);
width = 861;
}
);
unicode = 57377;
},
{
glyphname = hello;
lastChange = "2025-09-19 10:48:59 +0000";
layers = (
{
layerId = m01;
shapes = (
{
closed = 1;
nodes = (
(91,519,o),
(76,525,o),
(72,514,cs),
(52,459,o),
(53,362,o),
(109,281,cs),
(164,201,o),
(251,167,o),
(309,173,cs),
(321,175,o),
(319,190,o),
(308,189,cs),
(247,185,o),
(175,216,o),
(122,290,cs),
(70,367,o),
(69,456,o),
(87,508,cs)
);
},
{
closed = 1;
nodes = (
(176,482,o),
(161,488,o),
(156,474,cs),
(142,429,o),
(140,374,o),
(177,319,cs),
(215,266,o),
(275,243,o),
(318,248,cs),
(334,250,o),
(332,266,o),
(319,264,cs),
(285,260,o),
(226,277,o),
(192,326,cs),
(156,378,o),
(160,440,o),
(171,469,cs)
);
},
{
angle = -135;
pos = (1176,444);
ref = five_us_china;
scale = (1,-1);
},
{
closed = 1;
nodes = (
(908,681,o),
(912,692,cs),
(932,747,o),
(931,844,o),
(875,925,cs),
(820,1005,o),
(733,1039,o),
(675,1033,cs),
(663,1031,o),
(665,1016,o),
(676,1017,cs),
(737,1021,o),
(809,990,o),
(862,916,cs),
(914,839,o),
(915,750,o),
(897,698,cs),
(893,687,o)
);
},
{
closed = 1;
nodes = (
(808,724,o),
(823,718,o),
(828,732,cs),
(842,772,o),
(844,832,o),
(807,887,cs),
(769,940,o),
(709,963,o),
(666,958,cs),
(650,956,o),
(652,940,o),
(665,942,cs),
(699,946,o),
(758,929,o),
(792,880,cs),
(828,828,o),
(824,766,o),
(813,737,cs)
);
}
);
width = 984;
}
);
unicode = 57379;
},
{
glyphname = listen;
lastChange = "2025-09-19 10:48:49 +0000";
layers = (
{
layerId = m01;
shapes = (
{
closed = 1;
nodes = (
(288,562,l),
(302,644,ls),
(307,672,o),
(329,685,o),
(353,681,cs),
(376,677,o),
(391,657,o),
(386,630,cs),
(371,547,l)
);
},
{
closed = 1;
nodes = (
(213,558,o),
(239,570,o),
(272,564,c),
(284,630,ls),
(289,658,o),
(274,678,o),
(250,682,cs),
(226,686,o),
(205,673,o),
(200,645,cs),
(188,576,ls),
(183,551,o),
(190,537,o),
(204,529,c)
);
},
{
closed = 1;
nodes = (
(177,525,o),
(166,545,o),
(171,575,cs),
(181,628,ls),
(186,656,o),
(171,676,o),
(147,680,cs),
(124,684,o),
(102,671,o),
(97,643,cs),
(88,594,ls),
(83,561,o),
(96,551,o),
(118,547,cs),
(125,546,o),
(126,541,o),
(125,537,cs),
(124,534,o),
(121,530,o),
(113,532,cs),
(99,534,o),
(87,539,o),
(80,548,c),
(65,459,ls),
(40,317,o),
(108,234,o),
(230,212,cs),
(370,188,o),
(470,277,o),
(490,391,cs),
(492,401,o),
(492,412,o),
(492,419,cs),
(493,469,ls),
(493,495,o),
(481,511,o),
(453,516,cs),
(268,549,ls),
(242,553,o),
(221,542,o),
(216,514,cs),
(212,490,o),
(227,470,o),
(254,465,cs),
(341,450,ls),
(355,447,o),
(366,439,o),
(363,423,cs),
(361,410,o),
(353,402,o),
(331,388,cs),
(278,358,o),
(257,329,o),
(249,286,cs),
(248,276,o),
(248,264,o),
(248,259,cs),
(247,252,o),
(243,251,o),
(238,252,cs),
(234,252,o),
(231,255,o),
(231,262,cs),
(231,267,o),
(232,279,o),
(234,289,cs),
(241,332,o),
(265,370,o),
(318,400,cs),
(341,413,o),
(345,415,o),
(347,423,cs),
(348,428,o),
(345,433,o),
(338,434,cs),
(255,449,ls),
(214,456,o),
(195,484,o),
(200,513,c)
);
},
{
closed = 1;
nodes = (
(387,544,l),
(440,535,ls),
(453,532,o),
(464,529,o),
(470,525,c),
(514,774,ls),
(519,801,o),
(505,821,o),
(479,825,cs),
(454,830,o),
(435,816,o),
(430,788,cs)
);
},
{
closed = 1;
nodes = (
(616,633,o),
(647,666,o),
(647,709,cs),
(647,713,o),
(644,717,o),
(639,717,cs),
(635,717,o),
(631,713,o),
(631,709,cs),
(631,674,o),
(607,649,o),
(574,649,cs),
(542,649,o),
(529,673,o),
(523,713,cs),
(519,740,o),
(499,755,o),
(480,769,cs),
(454,789,o),
(427,809,o),
(427,861,cs),
(427,920,o),
(474,963,o),
(534,963,cs),
(594,963,o),
(640,920,o),
(640,861,cs),
(640,857,o),
(644,853,o),
(648,853,cs),
(653,853,o),
(656,857,o),
(656,861,cs),
(656,930,o),
(603,979,o),
(534,979,cs),
(466,979,o),
(411,930,o),
(411,861,cs),
(411,801,o),
(444,776,o),
(470,757,cs),
(489,742,o),
(504,731,o),
(507,711,cs),
(514,667,o),
(531,633,o),
(574,633,cs)
);
},
{
closed = 1;
nodes = (
(607,776,o),
(600,781,cs),
(577,798,o),
(553,810,o),
(553,830,cs),
(553,838,o),
(559,844,o),
(570,844,cs),
(578,844,o),
(588,841,o),
(600,831,cs),
(605,827,o),
(609,828,o),
(609,835,cs),
(610,899,o),
(579,933,o),
(533,933,cs),
(489,933,o),
(458,901,o),
(458,862,cs),
(458,858,o),
(462,854,o),
(466,854,cs),
(471,854,o),
(474,858,o),
(474,862,cs),
(474,893,o),
(498,917,o),
(533,917,cs),
(566,917,o),
(588,897,o),
(593,854,c),
(584,858,o),
(577,860,o),
(570,860,cs),
(551,860,o),
(537,846,o),
(537,830,cs),
(537,800,o),
(565,782,o),
(591,768,cs),
(600,763,o)
);
}
);
width = 716;
}
);
unicode = 57381;
},
{
glyphname = look;
lastChange = "2025-09-19 10:48:45 +0000";
layers = (
{
layerId = m01;
shapes = (
{
closed = 1;
nodes = (
(864,313,o),
(954,371,o),
(939,407,cs),
(924,445,o),
(919,457,o),
(916,494,cs),
(903,659,ls),
(891,808,o),
(807,886,o),
(689,886,cs),
(648,886,o),
(616,880,o),
(586,868,cs),
(554,856,o),
(537,837,o),
(537,820,cs),
(537,809,o),
(544,797,o),
(560,794,c),
(554,826,l),
(529,811,o),
(519,796,o),
(519,774,cs),
(519,758,o),
(529,746,o),
(545,746,c),
(598,824,o),
(662,834,o),
(704,834,cs),
(736,834,o),
(768,826,o),
(768,815,cs),
(768,809,o),
(762,807,o),
(756,809,cs),
(745,813,o),
(726,818,o),
(704,818,cs),
(617,818,o),
(545,752,o),
(545,683,cs),
(545,668,o),
(555,654,o),
(567,648,c),
(554,642,o),
(546,628,o),
(546,612,cs),
(546,586,o),
(566,562,o),
(590,534,cs),
(672,440,ls),
(693,415,o),
(732,370,o),
(762,337,cs),
(775,323,o),
(795,313,o),
(818,313,cs)
);
},
{
closed = 1;
nodes = (
(671,566,o),
(653,592,o),
(634,617,cs),
(614,643,o),
(609,650,o),
(583,651,c),
(582,647,l),
(615,647,o),
(620,659,o),
(625,674,cs),
(637,707,o),
(662,733,o),
(706,733,cs),
(750,733,o),
(786,707,o),
(786,649,cs),
(786,603,o),
(750,566,o),
(709,566,cs)
);
},
{
closed = 1;
nodes = (
(206,313,o),
(226,323,o),
(239,337,cs),
(269,370,o),
(308,415,o),
(329,440,cs),
(411,534,ls),
(435,562,o),
(455,586,o),
(455,612,cs),
(455,628,o),
(447,642,o),
(434,648,c),
(446,654,o),
(456,668,o),
(456,683,cs),
(456,752,o),
(384,818,o),
(297,818,cs),
(275,818,o),
(256,813,o),
(245,809,cs),
(239,807,o),
(233,809,o),
(233,815,cs),
(233,826,o),
(265,834,o),
(297,834,cs),
(339,834,o),
(403,824,o),
(456,746,c),
(472,746,o),
(482,758,o),
(482,774,cs),
(482,796,o),
(472,811,o),
(447,826,c),
(441,794,l),
(457,797,o),
(464,809,o),
(464,820,cs),
(464,837,o),
(447,856,o),
(415,868,cs),
(385,880,o),
(353,886,o),
(312,886,cs),
(194,886,o),
(110,808,o),
(98,659,cs),
(85,494,ls),
(82,457,o),
(77,445,o),
(62,407,cs),
(47,371,o),
(137,313,o),
(183,313,cs)
);
},
{
closed = 1;
nodes = (
(251,566,o),
(215,603,o),
(215,649,cs),
(215,707,o),
(251,733,o),
(295,733,cs),
(339,733,o),
(364,707,o),
(376,674,cs),
(381,659,o),
(386,647,o),
(419,647,c),
(418,651,l),
(392,650,o),
(387,643,o),
(367,617,cs),
(348,592,o),
(330,566,o),
(292,566,cs)
);
}
);
width = 1001;
}
);
unicode = 57382;
},
{
glyphname = me;
lastChange = "2025-09-19 10:48:40 +0000";
layers = (
{
layerId = m01;
shapes = (
{
closed = 1;
nodes = (
(169,347,o),
(200,343,o),
(216,363,cs),
(232,381,o),
(232,405,o),
(203,429,cs),
(138,483,ls),
(117,500,o),
(89,505,o),
(71,486,cs),
(55,469,o),
(56,441,o),
(81,420,cs),
(147,365,ls)
);
},
{
closed = 1;
nodes = (
(226,431,ls),
(252,410,o),
(279,408,o),
(296,428,cs),
(311,446,o),
(305,476,o),
(280,497,cs),
(175,584,ls),
(152,603,o),
(123,610,o),
(104,589,cs),
(83,566,o),
(94,540,o),
(120,519,cs)
);
},
{
closed = 1;
nodes = (
(374,426,o),
(410,447,o),
(448,494,cs),
(501,560,o),
(466,584,o),
(507,658,cs),
(565,762,ls),
(601,826,o),
(521,856,o),
(494,810,cs),
(440,718,ls),
(421,685,o),
(395,667,o),
(359,695,cs),
(283,755,ls),
(256,776,o),
(228,774,o),
(213,755,cs),
(199,736,o),
(199,715,o),
(224,695,cs),
(331,607,ls),
(360,583,o),
(390,599,o),
(401,618,cs),
(409,631,o),
(422,621,o),
(416,612,cs),
(387,568,o),
(344,575,o),
(326,590,cs),
(212,685,ls),
(188,705,o),
(161,702,o),
(146,683,cs),
(127,661,o),
(135,638,o),
(164,614,cs),
(277,520,ls),
(313,490,o),
(338,511,o),
(348,530,cs),
(354,541,o),
(368,532,o),
(363,523,cs),
(341,486,o),
(317,489,o),
(305,491,c),
(322,474,o),
(326,443,o),
(311,421,c)
);
},
{
closed = 1;
nodes = (
(1105,420,ls),
(1130,441,o),
(1131,469,o),
(1115,486,cs),
(1097,505,o),
(1069,500,o),
(1048,483,cs),
(983,429,ls),
(954,405,o),
(954,381,o),
(970,363,cs),
(986,343,o),
(1017,347,o),
(1039,365,cs)
);
},
{
closed = 1;
nodes = (
(1092,540,o),
(1103,566,o),
(1082,589,cs),
(1063,610,o),
(1034,603,o),
(1011,584,cs),
(906,497,ls),
(881,476,o),
(875,446,o),
(890,428,cs),
(907,408,o),
(934,410,o),
(960,431,cs),
(1066,519,ls)
);
},
{
closed = 1;
nodes = (
(860,443,o),
(864,474,o),
(881,491,c),
(869,489,o),
(845,486,o),
(823,523,cs),
(818,532,o),
(832,541,o),
(838,530,cs),
(848,511,o),
(873,490,o),
(909,520,cs),
(1022,614,ls),
(1051,638,o),
(1059,661,o),
(1040,683,cs),
(1025,702,o),
(998,705,o),
(974,685,cs),
(860,590,ls),
(842,575,o),
(799,568,o),
(770,612,cs),
(764,621,o),
(777,632,o),
(785,618,cs),
(796,599,o),
(826,583,o),
(855,607,cs),
(962,695,ls),
(987,715,o),
(987,736,o),
(973,755,cs),
(958,774,o),
(930,776,o),
(903,755,cs),
(827,695,ls),
(791,667,o),
(765,685,o),
(746,718,cs),
(692,810,ls),
(665,856,o),
(585,826,o),
(621,762,cs),
(679,658,ls),
(720,584,o),
(685,560,o),
(738,494,cs),
(776,447,o),
(812,426,o),
(875,421,c)
);
}
);
width = 1186;
}
);
unicode = 57383;
},
{
glyphname = move;
lastChange = "2025-09-19 10:48:35 +0000";
layers = (
{
layerId = m01;
shapes = (
{
angle = 30;
pos = (378,-165);
ref = BackHand_Base;
},
{
closed = 1;
nodes = (
(74,819,o),
(86,879,o),
(136,918,cs),
(183,956,o),
(246,955,o),
(277,941,cs),
(289,935,o),
(296,951,o),
(281,957,cs),
(242,975,o),
(177,969,o),
(125,930,cs),
(74,888,o),
(58,830,o),
(60,788,cs),
(60,773,o),
(77,774,o),
(76,788,cs)
);
}
);
width = 762;
}
);
unicode = 57384;
},
{
glyphname = pause;
lastChange = "2025-09-19 10:48:30 +0000";
layers = (
{
guides = (
{
pos = (425,543);
}
);
layerId = m01;
name = Regular;
shapes = (
{
closed = 1;
nodes = (
(416,650,ls),
(416,676,o),
(424,698,o),
(448,707,c),
(448,856,ls),
(448,884,o),
(431,901,o),
(405,901,cs),
(379,901,o),
(363,884,o),
(363,856,cs),
(363,610,ls),
(363,602,o),
(361,599,o),
(355,599,cs),
(350,599,o),
(347,603,o),
(347,610,cs),
(347,901,ls),
(347,929,o),
(330,946,o),
(304,946,cs),
(278,946,o),
(262,929,o),
(262,901,cs),
(262,610,ls),
(262,602,o),
(259,599,o),
(253,599,cs),
(248,599,o),
(246,602,o),
(246,610,cs),
(246,875,ls),
(246,903,o),
(229,920,o),
(203,920,cs),
(177,920,o),
(161,903,o),
(161,875,cs),
(161,610,ls),
(161,602,o),
(159,599,o),
(153,599,cs),
(148,599,o),
(145,603,o),
(145,610,cs),
(145,763,ls),
(145,791,o),
(129,808,o),
(103,808,cs),
(77,808,o),
(60,791,o),
(60,763,cs),
(60,498,ls),
(60,333,o),
(155,254,o),
(284,254,cs),
(447,254,o),
(517,376,o),
(517,530,cs),
(517,652,ls),
(517,680,o),
(500,697,o),
(474,697,cs),
(448,697,o),
(432,680,o),
(432,652,cs),
(432,554,ls),
(432,544,o),
(428,541,o),
(417,539,cs),
(328,523,o),
(293,477,o),
(293,410,cs),
(293,383,o),
(298,356,o),
(309,329,cs),
(311,324,o),
(308,319,o),
(303,319,cs),
(298,319,o),
(295,322,o),
(292,329,cs),
(283,354,o),
(277,386,o),
(277,409,cs),
(277,485,o),
(314,536,o),
(416,555,c)
);
}
);
width = 577;
}
);
unicode = 57385;
},
{
glyphname = payment;
lastChange = "2025-09-19 10:48:25 +0000";
layers = (
{
background = {
shapes = (
{
closed = 1;
nodes = (
(628,482,o),
(604,456,o),
(570,456,cs),
(535,456,o),
(511,482,o),
(511,514,cs),
(511,546,o),
(535,572,o),
(570,572,cs),
(604,572,o),
(628,546,o),
(628,514,cs)
);
},
{
closed = 1;
nodes = (
(688,532,o),
(664,506,o),
(630,506,cs),
(595,506,o),
(571,532,o),
(571,564,cs),
(571,596,o),
(595,622,o),
(630,622,cs),
(664,622,o),
(688,596,o),
(688,564,cs)
);
}
);
};
layerId = m01;
shapes = (
{
closed = 1;
nodes = (
(424,762,o)
);
},
{
closed = 1;
nodes = (
(598,723,o),
(624,752,o),
(624,786,cs),
(624,822,o),
(597,850,o),
(560,850,cs),
(528,850,o),
(503,829,o),
(499,809,c),
(543,809,o),
(577,771,o),
(574,723,c)
);
},
{
closed = 1;
nodes = (
(668,596,o),
(641,568,o),
(604,568,cs),
(565,568,o),
(539,596,o),
(539,632,cs),
(539,667,o),
(565,696,o),
(604,696,cs),
(641,696,o),
(668,667,o),
(668,632,cs)
);
},
{
closed = 1;
nodes = (
(558,696,o),
(532,667,o),
(493,667,cs),
(455,667,o),
(428,696,o),
(428,731,cs),
(428,766,o),
(455,795,o),
(493,795,cs),
(532,795,o),
(558,763,o),
(558,731,cs)
);
},
{
angle = 180;
pos = (960,1096);
ref = SideHand_Base;
},
{
closed = 1;
nodes = (
(543,755,o),
(524,780,o),
(494,780,cs),
(464,780,o),
(444,758,o),
(444,731,cs),
(444,704,o),
(464,682,o),
(494,682,cs),
(524,682,o),
(543,704,o),
(543,731,cs)
);
}
);
width = 955;
}
);
unicode = 57386;
},
{
glyphname = phone;
lastChange = "2025-09-19 10:48:14 +0000";
layers = (
{
layerId = m01;
shapes = (
{
closed = 1;
nodes = (
(515,583,o),
(531,569,o),
(531,541,cs),
(531,519,o),
(516,498,o),
(491,494,c),
(507,485,o),
(515,467,o),
(515,449,cs),
(515,427,o),
(503,405,o),
(480,398,c),
(598,398,ls),
(627,398,o),
(644,382,o),
(644,361,cs),
(644,325,o),
(622,312,o),
(577,312,cs),
(259,312,ls),
(135,312,o),
(60,369,o),
(60,481,cs),
(60,546,o),
(83,597,o),
(132,643,cs),
(195,701,o),
(216,741,o),
(237,846,cs),
(243,876,o),
(259,890,o),
(284,889,cs),
(310,888,o),
(324,870,o),
(322,841,cs),
(310,696,l),
(280,696,ls),
(275,696,o),
(271,693,o),
(271,688,cs),
(271,683,o),
(275,680,o),
(280,680,cs),
(465,680,ls),
(493,680,o),
(522,664,o),
(522,631,cs),
(522,614,o),
(516,596,o),
(493,587,c)
);
}
);
width = 704;
}
);
unicode = 57388;
},
{
glyphname = promise;
lastChange = "2025-09-19 10:48:04 +0000";
layers = (
{
background = {
shapes = (
{
closed = 1;
nodes = (
(727,623,ls),
(746,641,o),
(746,669,o),
(730,685,cs),
(712,703,o),
(688,704,o),
(673,689,cs),
(526,542,ls),
(522,538,o),
(518,538,o),
(514,542,cs),
(511,545,o),
(511,549,o),
(514,553,cs),
(535,573,ls),
(553,591,o),
(553,617,o),
(536,634,cs),
(519,651,o),
(493,652,o),
(478,636,cs),
(468,627,ls),
(465,624,o),
(461,624,o),
(457,627,cs),
(454,631,o),
(454,635,o),
(457,638,cs),
(476,658,ls),
(493,675,o),
(491,699,o),
(475,716,cs),
(458,733,o),
(432,734,o),
(415,717,cs),
(404,706,ls),
(401,702,o),
(396,702,o),
(393,706,cs),
(389,709,o),
(389,713,o),
(393,717,cs),
(410,734,ls),
(427,751,o),
(425,776,o),
(409,793,cs),
(391,810,o),
(366,810,o),
(348,793,cs),
(234,679,ls),
(231,675,o),
(227,675,o),
(223,679,cs),
(220,682,o),
(220,687,o),
(223,690,cs),
(304,771,l),
(301,776,o),
(297,782,o),
(293,786,cs),
(275,804,o),
(255,801,o),
(230,782,cs),
(213,769,o),
(168,728,o),
(152,713,cs),
(59,619,o),
(12,472,o),
(130,354,cs),
(220,264,o),
(367,262,o),
(453,349,cs)
);
},
{
closed = 1;
nodes = (
(1033,717,o),
(1041,723,o),
(1049,727,c),
(968,808,ls),
(949,827,o),
(922,828,o),
(905,810,cs),
(887,792,o),
(888,767,o),
(908,748,cs),
(986,669,l),
(1024,707,ls)
);
},
{
closed = 1;
nodes = (
(915,598,l),
(841,671,ls),
(822,690,o),
(822,716,o),
(840,734,cs),
(857,751,o),
(882,751,o),
(901,731,cs),
(975,658,l)
);
},
{
closed = 1;
nodes = (
(875,534,o),
(879,562,o),
(903,587,c),
(840,649,ls),
(821,669,o),
(797,669,o),
(779,652,cs),
(761,634,o),
(761,608,o),
(780,589,cs),
(845,524,ls),
(862,507,o),
(876,503,o),
(893,510,c)
);
},
{
closed = 1;
nodes = (
(880,485,o),
(858,491,o),
(837,510,cs),
(649,687,ls),
(629,705,o),
(605,707,o),
(587,689,cs),
(570,672,o),
(569,645,o),
(589,627,cs),
(774,453,ls),
(795,433,o),
(811,432,o),
(829,450,cs),
(833,454,o),
(838,454,o),
(841,451,cs),
(845,447,o),
(844,442,o),
(839,437,cs),
(828,426,o),
(816,420,o),
(806,420,c),
(861,366,ls),
(955,272,o),
(1077,265,o),
(1162,350,cs),
(1259,447,o),
(1259,563,o),
(1161,661,cs),
(1154,669,o),
(1144,675,o),
(1139,679,cs),
(1101,705,ls),
(1079,721,o),
(1059,719,o),
(1040,700,cs),
(914,575,ls),
(894,555,o),
(893,531,o),
(913,512,cs),
(929,495,o),
(951,497,o),
(971,517,cs),
(1034,580,ls),
(1045,591,o),
(1058,593,o),
(1068,583,cs),
(1078,573,o),
(1080,562,o),
(1079,537,cs),
(1073,478,o),
(1084,443,o),
(1115,411,cs),
(1121,406,o),
(1130,398,o),
(1137,394,cs),
(1142,391,o),
(1142,386,o),
(1137,382,cs),
(1134,379,o),
(1130,379,o),
(1125,382,cs),
(1120,385,o),
(1111,393,o),
(1104,400,cs),
(1070,434,o),
(1057,477,o),
(1062,533,cs),
(1064,559,o),
(1065,564,o),
(1059,570,cs),
(1055,574,o),
(1050,573,o),
(1045,569,cs),
(985,509,ls),
(959,483,o),
(925,478,o),
(904,498,c)
);
}
);
};
layerId = m01;
shapes = (
{
closed = 1;
nodes = (
(579,774,o),
(582,777,o),
(582,782,cs),
(582,862,ls),
(582,867,o),
(579,870,o),
(574,870,cs),
(569,870,o),
(566,867,o),
(566,862,cs),
(566,782,ls),
(566,777,o),
(569,774,o),
(574,774,cs)
);
},
{
closed = 1;
nodes = (
(634,755,o),
(638,755,o),
(641,758,cs),
(698,815,ls),
(701,818,o),
(701,822,o),
(698,826,cs),
(694,829,o),
(690,829,o),
(687,826,cs),
(630,769,ls),
(627,766,o),
(627,762,o),
(630,758,cs)
);
},
{
closed = 1;
nodes = (
(521,762,o),
(521,766,o),
(518,769,cs),
(461,826,ls),
(458,829,o),
(454,829,o),
(450,826,cs),
(447,822,o),
(447,818,o),
(450,815,cs),
(507,758,ls),
(510,755,o),
(514,755,o),
(518,758,cs)
);
},
{
pos = (0,-15);
ref = friend_uk_us;
}
);
width = 1171;
}
);
unicode = 57389;
},
{
glyphname = protection;
lastChange = "2025-09-19 10:47:58 +0000";
layers = (
{
layerId = m01;
shapes = (
{
closed = 1;
nodes = (
(326,407,o),
(363,428,o),
(384,463,c),
(363,498,o),
(326,519,o),
(289,519,cs),
(254,519,o),
(215,498,o),
(194,463,c),
(215,428,o),
(256,407,o),
(289,407,cs)
);
},
{
closed = 1;
nodes = (
(262,414,o),
(241,435,o),
(241,463,cs),
(241,490,o),
(262,511,o),
(289,511,cs),
(317,511,o),
(338,490,o),
(338,463,cs),
(338,435,o),
(317,414,o),
(289,414,cs)
);
},
{
closed = 1;
nodes = (
(331,391,o),
(376,415,o),
(403,463,c),
(375,513,o),
(329,535,o),
(289,535,cs),
(249,535,o),
(203,513,o),
(175,463,c),
(203,413,o),
(250,391,o),
(289,391,cs)
);
},
{
closed = 1;
nodes = (
(145,522,o),
(147,519,o),
(153,519,cs),
(158,519,o),
(161,523,o),
(161,530,cs),
(161,650,ls),
(161,676,o),
(155,696,o),
(129,705,c),
(129,856,ls),
(129,884,o),
(146,901,o),
(172,901,cs),
(198,901,o),
(214,884,o),
(214,856,cs),
(214,610,ls),
(214,602,o),
(216,599,o),
(222,599,cs),
(227,599,o),
(230,603,o),
(230,610,cs),
(230,901,ls),
(230,929,o),
(247,946,o),
(273,946,cs),
(299,946,o),
(315,929,o),
(315,901,cs),
(315,610,ls),
(315,602,o),
(318,599,o),
(324,599,cs),
(329,599,o),
(331,602,o),
(331,610,cs),
(331,875,ls),
(331,903,o),
(348,920,o),
(374,920,cs),
(400,920,o),
(416,903,o),
(416,875,cs),
(416,610,ls),
(416,602,o),
(418,599,o),
(424,599,cs),
(429,599,o),
(432,603,o),
(432,610,cs),
(432,763,ls),
(432,791,o),
(448,808,o),
(474,808,cs),
(500,808,o),
(517,791,o),
(517,763,cs),
(517,498,ls),
(517,333,o),
(422,254,o),
(293,254,cs),
(130,254,o),
(60,376,o),
(60,530,cs),
(60,652,ls),
(60,680,o),
(77,697,o),
(103,697,cs),
(129,697,o),
(145,680,o),
(145,652,cs),
(145,530,ls)
);
}
);
width = 577;
}
);
unicode = 57390;
},
{
glyphname = quiet;
lastChange = "2025-09-19 09:48:46 +0000";
layers = (
{
layerId = m01;
shapes = (
{
closed = 1;
nodes = (
(564,242,o),
(639,318,o),
(639,415,cs),
(639,452,o),
(628,494,o),
(607,537,cs),
(554,646,ls),
(542,670,o),
(519,681,o),
(481,681,cs),
(311,681,ls),
(272,681,o),
(251,660,o),
(251,621,cs),
(251,550,ls),
(251,523,o),
(266,506,o),
(291,506,c),
(291,584,ls),
(291,613,o),
(307,631,o),
(331,631,cs),
(440,631,ls),
(447,631,o),
(452,628,o),
(452,623,cs),
(452,618,o),
(447,615,o),
(440,615,cs),
(338,615,ls),
(317,615,o),
(307,604,o),
(307,580,cs),
(307,510,ls),
(307,483,o),
(322,466,o),
(347,466,c),
(347,518,ls),
(347,548,o),
(364,565,o),
(393,565,cs),
(448,565,ls),
(455,565,o),
(460,562,o),
(460,557,cs),
(460,552,o),
(455,549,o),
(448,549,cs),
(394,549,ls),
(373,549,o),
(363,538,o),
(363,514,cs),
(363,463,ls),
(363,435,o),
(379,418,o),
(404,418,cs),
(430,418,o),
(447,435,o),
(447,463,cs),
(447,478,l),
(406,478,ls),
(399,478,o),
(396,481,o),
(396,486,cs),
(396,491,o),
(400,494,o),
(406,494,cs),
(504,494,ls),
(510,494,o),
(514,491,o),
(514,486,cs),
(514,481,o),
(511,478,o),
(504,478,cs),
(465,478,l),
(499,447,o),
(513,418,o),
(513,379,cs),
(513,357,o),
(507,333,o),
(502,311,cs),
(500,304,o),
(497,301,o),
(493,301,cs),
(487,301,o),
(484,308,o),
(486,314,cs),
(493,337,o),
(497,361,o),
(497,378,cs),
(497,409,o),
(487,433,o),
(463,457,c),
(463,426,o),
(438,402,o),
(404,402,cs),
(374,402,o),
(351,422,o),
(347,450,c),
(321,450,o),
(303,463,o),
(291,490,c),
(257,490,o),
(235,513,o),
(235,549,cs),
(235,570,l),
(136,605,ls),
(124,610,o),
(114,612,o),
(104,612,cs),
(78,612,o),
(60,593,o),
(60,564,cs),
(60,538,o),
(83,519,o),
(139,498,cs),
(203,473,o),
(233,423,o),
(291,329,cs),
(330,266,o),
(378,242,o),
(466,242,cs)
);
},
{
closed = 1;
nodes = (
(529,761,o),
(585,777,o),
(636,814,cs),
(641,818,o),
(641,821,o),
(637,825,cs),
(591,866,o),
(522,892,o),
(459,892,cs),
(396,892,o),
(327,866,o),
(281,825,cs),
(277,821,o),
(277,818,o),
(282,814,cs),
(333,777,o),
(389,761,o),
(459,761,cs)
);
},
{
closed = 1;
nodes = (
(402,777,o),
(346,790,o),
(303,821,c),
(339,853,o),
(401,876,o),
(459,876,cs),
(517,876,o),
(579,853,o),
(615,821,c),
(572,790,o),
(516,777,o),
(459,777,cs)
);
},
{
closed = 1;
nodes = (
(501,697,l),
(501,911,ls),
(501,939,o),
(483,957,o),
(459,957,cs),
(435,957,o),
(416,939,o),
(416,911,cs),
(416,697,l)
);
},
{
closed = 1;
nodes = (
(545,819,ls),
(552,819,o),
(557,822,o),
(557,827,cs),
(557,832,o),
(552,835,o),
(545,835,cs),
(373,835,ls),
(366,835,o),
(361,832,o),
(361,827,cs),
(361,822,o),
(366,819,o),
(373,819,cs)
);
}
);
width = 700;
}
);
unicode = 57391;
},
{
glyphname = respect_asia;
lastChange = "2025-09-19 09:48:39 +0000";
layers = (
{
background = {
shapes = (
{
closed = 1;
nodes = (
(505,698,l),
(510,678,o),
(527,655,o),
(565,660,c),
(610,545,ls),
(631,487,o),
(642,464,o),
(655,453,cs),
(661,448,o),
(673,436,o),
(706,413,cs),
(733,393,o),
(717,338,o),
(674,302,cs),
(651,284,o),
(628,278,o),
(615,286,cs),
(580,306,o),
(555,332,o),
(526,373,cs),
(401,553,l)
);
},
{
closed = 1;
nodes = (
(327,797,o),
(264,745,o),
(298,697,cs),
(329,654,l),
(383,729,l),
(369,746,ls)
);
},
{
closed = 1;
nodes = (
(286,783,o),
(253,733,o),
(284,689,cs),
(329,626,l),
(414,743,ls),
(429,764,o),
(455,772,o),
(474,760,cs),
(499,744,o),
(500,718,o),
(484,696,cs),
(253,373,ls),
(222,330,o),
(199,308,o),
(164,286,cs),
(151,278,o),
(128,284,o),
(105,302,cs),
(62,338,o),
(46,393,o),
(73,413,cs),
(106,436,o),
(118,448,o),
(124,453,cs),
(136,463,o),
(140,470,o),
(169,545,cs),
(268,800,ls),
(272,810,o),
(277,815,o),
(287,818,cs),
(426,861,ls),
(450,868,o),
(464,867,o),
(490,855,cs),
(521,840,ls),
(563,819,o),
(564,812,o),
(573,785,cs),
(589,735,ls),
(609,673,o),
(535,646,o),
(517,710,cs),
(508,742,ls),
(502,765,o),
(479,782,o),
(453,782,cs),
(431,782,o),
(417,775,o),
(401,753,cs),
(393,742,l),
(383,754,ls),
(366,774,o),
(352,783,o),
(331,783,cs)
);
},
{
closed = 1;
nodes = (
(269,870,ls),
(248,864,o),
(244,862,o),
(237,853,cs),
(187,785,l),
(170,798,o),
(229,869,o),
(251,876,cs),
(368,912,ls),
(385,917,o),
(395,913,o),
(398,908,c)
);
},
{
closed = 1;
nodes = (
(270,854,ls),
(258,851,o),
(249,842,o),
(243,834,cs),
(189,761,ls),
(176,744,o),
(184,721,o),
(203,721,cs),
(215,721,o),
(222,726,o),
(230,747,cs),
(255,810,ls),
(259,819,o),
(264,828,o),
(278,832,cs),
(409,872,ls),
(450,885,o),
(463,885,o),
(501,867,cs),
(547,845,l),
(546,862,o),
(541,868,o),
(525,876,cs),
(504,886,ls),
(478,898,o),
(459,909,o),
(434,902,cs)
);
},
{
closed = 0;
nodes = (
(445,782,l),
(445,817,ls),
(445,822,o),
(448,825,o),
(453,825,cs),
(458,825,o),
(461,822,o),
(461,817,cs),
(461,782,l)
);
}
);
};
layerId = m01;
shapes = (
{
closed = 1;
nodes = (
(505,701,l),
(510,681,o),
(527,658,o),
(565,661,c),
(610,548,ls),
(631,490,o),
(642,467,o),
(655,456,cs),
(661,451,o),
(673,439,o),
(706,416,cs),
(733,396,o),
(717,341,o),
(674,305,cs),
(651,287,o),
(628,281,o),
(615,289,cs),
(580,309,o),
(555,335,o),
(526,376,cs),
(401,556,l)
);
},
{
closed = 1;
nodes = (
(327,800,o),
(264,748,o),
(298,700,cs),
(329,657,l),
(383,732,l),
(369,749,ls)
);
},
{
closed = 1;
nodes = (
(517,713,ls),
(534,649,o),
(609,676,o),
(589,738,cs),
(573,788,ls),
(564,815,o),
(563,822,o),
(521,843,cs),
(490,858,ls),
(464,870,o),
(450,871,o),
(426,864,cs),
(287,821,ls),
(277,818,o),
(272,813,o),
(268,803,cs),
(169,548,ls),
(140,473,o),
(136,466,o),
(124,456,cs),
(118,451,o),
(106,439,o),
(73,416,cs),
(46,396,o),
(62,341,o),
(105,305,cs),
(128,287,o),
(151,281,o),
(164,289,cs),
(199,311,o),
(222,333,o),
(253,376,cs),
(484,699,ls),
(500,721,o),
(499,747,o),
(474,763,cs),
(455,775,o),
(429,767,o),
(414,746,cs),
(329,629,l),
(284,692,ls),
(253,736,o),
(286,786,o),
(331,786,cs),
(352,786,o),
(366,777,o),
(380,761,c),
(414,771,l),
(419,776,o),
(431,784,o),
(445,785,c),
(445,820,ls),
(445,825,o),
(448,828,o),
(453,828,cs),
(458,828,o),
(461,825,o),
(461,820,cs),
(461,785,l),
(474,784,o),
(490,775,o),
(497,769,c),
(515,786,ls),
(524,795,o),
(535,784,o),
(525,774,cs),
(505,754,l)
);
},
{
closed = 1;
nodes = (
(269,873,ls),
(248,867,o),
(244,865,o),
(237,856,cs),
(187,788,l),
(170,801,o),
(229,872,o),
(251,879,cs),
(368,915,ls),
(385,920,o),
(395,916,o),
(398,911,c)
);
},
{
closed = 1;
nodes = (
(270,857,ls),
(258,854,o),
(249,845,o),
(243,837,cs),
(189,764,ls),
(176,747,o),
(184,724,o),
(203,724,cs),
(215,724,o),
(222,729,o),
(230,750,cs),
(255,813,ls),
(259,822,o),
(264,831,o),
(278,835,cs),
(409,875,ls),
(450,888,o),
(463,888,o),
(501,870,cs),
(547,848,l),
(546,865,o),
(541,871,o),
(525,879,cs),
(504,889,ls),
(478,901,o),
(459,912,o),
(434,905,cs)
);
}
);
width = 779;
}
);
unicode = 57392;
},
{
glyphname = solidarity;
lastChange = "2025-09-19 09:48:27 +0000";
layers = (
{
background = {
shapes = (
{
closed = 1;
nodes = (
(176,593,ls),
(176,567,o),
(195,547,o),
(218,547,cs),
(243,547,o),
(261,563,o),
(261,585,cs),
(261,752,ls),
(261,757,o),
(264,760,o),
(269,760,cs),
(274,760,o),
(277,757,o),
(277,752,cs),
(277,508,ls),
(277,483,o),
(295,465,o),
(319,465,cs),
(343,465,o),
(362,482,o),
(362,504,cs),
(362,752,ls),
(362,757,o),
(365,760,o),
(370,760,cs),
(375,760,o),
(378,757,o),
(378,752,cs),
(378,479,ls),
(378,455,o),
(397,439,o),
(420,439,cs),
(444,439,o),
(463,456,o),
(463,480,cs),
(463,752,ls),
(463,757,o),
(466,760,o),
(471,760,cs),
(476,760,o),
(479,757,o),
(479,752,cs),
(479,525,ls),
(479,501,o),
(498,484,o),
(521,484,cs),
(546,484,o),
(564,502,o),
(564,527,cs),
(564,828,ls),
(564,833,o),
(567,836,o),
(572,836,cs),
(577,836,o),
(580,833,o),
(580,828,cs),
(580,704,l),
(586,702,o),
(593,701,o),
(603,701,cs),
(629,701,o),
(644,717,o),
(649,748,cs),
(653,775,o),
(657,815,o),
(656,862,cs),
(652,1003,o),
(592,1131,o),
(408,1131,cs),
(281,1131,o),
(176,1029,o),
(176,907,cs)
);
},
{
closed = 1;
nodes = (
(691,173,o),
(754,204,o),
(754,244,cs),
(754,248,o),
(754,251,o),
(753,254,cs),
(738,300,o),
(736,320,o),
(736,328,cs),
(736,354,o),
(744,421,o),
(768,476,cs),
(778,498,o),
(790,521,o),
(790,540,cs),
(790,559,o),
(784,591,o),
(771,633,cs),
(689,897,ls),
(679,930,o),
(663,944,o),
(641,944,cs),
(616,944,o),
(603,925,o),
(603,903,cs),
(603,891,o),
(605,883,o),
(607,875,cs),
(646,745,l),
(651,746,o),
(655,746,o),
(659,746,cs),
(696,746,o),
(716,718,o),
(716,685,cs),
(716,548,ls),
(716,542,o),
(712,539,o),
(708,539,cs),
(704,539,o),
(700,542,o),
(700,548,cs),
(700,685,ls),
(700,713,o),
(682,730,o),
(658,730,cs),
(634,730,o),
(615,713,o),
(615,685,cs),
(615,543,l),
(573,471,ls),
(550,431,o),
(528,382,o),
(528,330,cs),
(528,290,o),
(544,248,o),
(571,201,cs),
(583,183,o),
(610,173,o),
(640,173,cs)
);
},
{
closed = 1;
nodes = (
(213,166,o),
(240,176,o),
(252,194,cs),
(279,241,o),
(295,283,o),
(295,323,cs),
(295,375,o),
(273,424,o),
(250,464,cs),
(208,536,l),
(208,678,ls),
(208,706,o),
(189,723,o),
(165,723,cs),
(141,723,o),
(123,706,o),
(123,678,cs),
(123,541,ls),
(123,535,o),
(119,532,o),
(115,532,cs),
(111,532,o),
(107,535,o),
(107,541,cs),
(107,678,ls),
(107,711,o),
(127,739,o),
(164,739,cs),
(168,739,o),
(172,739,o),
(177,738,c),
(216,868,ls),
(218,876,o),
(220,884,o),
(220,896,cs),
(220,918,o),
(207,937,o),
(182,937,cs),
(160,937,o),
(144,923,o),
(134,890,cs),
(52,626,ls),
(39,584,o),
(33,552,o),
(33,533,cs),
(33,514,o),
(45,491,o),
(55,469,cs),
(79,414,o),
(87,347,o),
(87,321,cs),
(87,313,o),
(85,293,o),
(70,247,cs),
(69,244,o),
(69,241,o),
(69,237,cs),
(69,197,o),
(132,166,o),
(183,166,cs)
);
}
);
};
guides = (
{
angle = 253.4866;
pos = (218,726);
}
);
layerId = m01;
shapes = (
{
angle = -90;
pos = (98,1009);
ref = SideHand_Base;
},
{
angle = 90;
pos = (805,1009);
ref = SideHand_Base;
scale = (-1,1);
},
{
closed = 1;
nodes = (
(667,676,o),
(664,676,o),
(661,676,cs),
(633,676,o),
(621,698,o),
(621,748,cs),
(621,824,ls),
(621,830,o),
(618,833,o),
(613,833,cs),
(608,833,o),
(605,830,o),
(605,824,cs),
(605,489,ls),
(605,461,o),
(588,444,o),
(562,444,cs),
(536,444,o),
(520,461,o),
(520,489,cs),
(520,736,ls),
(520,741,o),
(517,744,o),
(512,744,cs),
(507,744,o),
(504,741,o),
(504,736,cs),
(504,444,ls),
(504,416,o),
(487,399,o),
(461,399,cs),
(435,399,o),
(419,416,o),
(419,444,cs),
(419,736,ls),
(419,741,o),
(416,744,o),
(411,744,cs),
(406,744,o),
(403,741,o),
(403,736,cs),
(403,470,ls),
(403,442,o),
(386,425,o),
(360,425,cs),
(334,425,o),
(318,442,o),
(318,470,cs),
(318,736,ls),
(318,741,o),
(315,744,o),
(310,744,cs),
(305,744,o),
(302,741,o),
(302,736,cs),
(302,582,ls),
(302,554,o),
(285,536,o),
(265,536,c),
(265,616,ls),
(265,649,o),
(254,668,o),
(233,676,c),
(279,828,ls),
(295,881,o),
(256,906,o),
(223,917,c),
(236,962,ls),
(262,1049,o),
(350,1090,o),
(446,1090,cs),
(555,1090,o),
(622,1039,o),
(668,944,cs),
(679,917,l),
(648,906,o),
(609,877,o),
(624,828,cs),
(670,677,l)
);
}
);
width = 903;
}
);
unicode = 57394;
},
{
glyphname = sorry;
lastChange = "2025-09-19 09:48:18 +0000";
layers = (
{
background = {
shapes = (
{
closed = 1;
nodes = (
(625,410,ls),
(539,324,o),
(398,321,o),
(306,413,cs),
(188,531,o),
(232,680,o),
(326,774,cs),
(341,789,o),
(358,802,o),
(375,815,cs),
(400,834,o),
(420,837,o),
(438,818,cs),
(442,815,o),
(446,809,o),
(449,803,c),
(391,745,ls),
(387,742,o),
(387,738,o),
(391,734,cs),
(394,731,o),
(398,730,o),
(402,734,cs),
(526,858,ls),
(539,871,o),
(568,873,o),
(586,855,cs),
(611,830,o),
(603,806,o),
(562,765,c),
(562,771,l),
(591,796,o),
(628,826,o),
(659,795,cs),
(693,761,o),
(662,724,o),
(647,704,c),
(625,699,l),
(647,714,o),
(683,741,o),
(716,709,cs),
(748,676,o),
(720,641,o),
(705,620,c),
(681,613,l),
(703,629,o),
(739,658,o),
(772,626,cs),
(797,600,o),
(785,570,o),
(760,545,cs)
);
}
);
};
layerId = m01;
shapes = (
{
closed = 1;
nodes = (
(137,905,o),
(132,902,o),
(132,897,cs),
(132,893,o),
(134,889,o),
(143,888,cs),
(223,881,l),
(213,798,ls),
(212,792,o),
(214,787,o),
(221,787,cs),
(226,787,o),
(228,790,o),
(229,796,cs),
(239,883,ls),
(240,892,o),
(236,896,o),
(229,897,cs),
(144,904,ls)
);
},
{
closed = 1;
nodes = (
(154,856,o),
(86,761,o),
(66,646,cs),
(44,525,o),
(88,419,o),
(144,375,cs),
(153,367,o),
(162,380,o),
(155,386,cs),
(93,444,o),
(62,534,o),
(82,646,cs),
(102,751,o),
(161,841,o),
(228,876,cs),
(243,884,o),
(237,897,o),
(222,890,cs)
);
},
{
closed = 1;
nodes = (
(851,297,o),
(856,300,o),
(856,305,cs),
(856,309,o),
(854,313,o),
(845,314,cs),
(765,321,l),
(775,404,ls),
(776,410,o),
(774,415,o),
(767,415,cs),
(762,415,o),
(760,412,o),
(759,406,cs),
(749,319,ls),
(748,310,o),
(752,306,o),
(759,305,cs),
(844,298,ls)
);
},
{
closed = 1;
nodes = (
(834,347,o),
(901,441,o),
(921,556,cs),
(943,677,o),
(900,783,o),
(844,827,cs),
(835,835,o),
(826,822,o),
(833,816,cs),
(895,758,o),
(925,668,o),
(905,556,cs),
(885,451,o),
(827,362,o),
(760,327,cs),
(745,319,o),
(751,306,o),
(766,313,cs)
);
},
{
angle = 45;
pos = (669,-32);
ref = ClosedFistBack_Base;
}
);
width = 987;
}
);
unicode = 57395;
},
{
glyphname = speak;
lastChange = "2025-09-19 09:48:12 +0000";
layers = (
{
background = {
shapes = (
{
closed = 1;
nodes = (
(1159,758,l),
(1164,759,o),
(1168,759,o),
(1172,759,cs),
(1209,759,o),
(1229,731,o),
(1229,698,cs),
(1229,585,ls),
(1229,579,o),
(1225,576,o),
(1221,576,cs),
(1217,576,o),
(1213,579,o),
(1213,585,cs),
(1213,698,ls),
(1213,726,o),
(1195,743,o),
(1171,743,cs),
(1147,743,o),
(1128,726,o),
(1128,698,cs),
(1128,556,l),
(1086,484,ls),
(1063,444,o),
(1041,395,o),
(1041,343,cs),
(1041,303,o),
(1057,261,o),
(1084,214,cs),
(1096,196,o),
(1123,186,o),
(1153,186,cs),
(1204,186,o),
(1267,217,o),
(1267,257,cs),
(1267,261,o),
(1267,264,o),
(1266,267,cs),
(1251,313,o),
(1249,333,o),
(1249,341,cs),
(1249,375,o),
(1271,438,o),
(1295,493,cs),
(1305,515,o),
(1317,538,o),
(1317,557,cs),
(1317,576,o),
(1313,608,o),
(1298,650,cs),
(1195,937,ls),
(1186,963,o),
(1164,974,o),
(1141,967,cs),
(1118,960,o),
(1105,938,o),
(1113,911,cs)
);
},
{
closed = 1;
nodes = (
(1099,956,ls),
(1089,988,o),
(1098,1012,o),
(1123,1019,cs),
(1151,1028,o),
(1172,1011,o),
(1181,981,cs),
(1183,975,l),
(1173,983,o),
(1157,988,o),
(1136,982,cs),
(1118,976,o),
(1105,964,o),
(1100,952,c)
);
}
);
};
layerId = m01;
shapes = (
{
closed = 1;
nodes = (
(643,630,ls),
(609,630,o),
(591,648,o),
(592,673,cs),
(593,703,o),
(616,715,o),
(647,715,cs),
(650,715,l),
(641,709,o),
(631,695,o),
(631,673,cs),
(631,655,o),
(637,639,o),
(649,630,c)
);
},
{
closed = 1;
nodes = (
(899,595,l),
(782,616,ls),
(745,623,o),
(725,610,o),
(721,586,cs),
(717,562,o),
(731,547,o),
(757,536,cs),
(808,514,ls),
(855,494,o),
(901,478,o),
(941,415,cs),
(982,350,o),
(980,326,o),
(1001,292,cs),
(1017,267,o),
(1040,259,o),
(1068,259,cs),
(1124,259,o),
(1187,300,o),
(1187,345,cs),
(1187,387,o),
(1149,429,o),
(1129,541,cs),
(1109,655,ls),
(1104,686,o),
(1089,715,o),
(1052,715,cs),
(694,715,ls),
(666,715,o),
(647,698,o),
(647,673,cs),
(647,650,o),
(662,630,o),
(690,630,cs),
(911,630,l)
);
},
{
pos = (0,40);
ref = clarifying;
}
);
width = 1247;
}
);
unicode = 57396;
},
{
glyphname = speakdown;
lastChange = "2025-09-19 09:48:05 +0000";
layers = (
{
background = {
shapes = (
{
closed = 1;
nodes = (
(949,324,o),
(940,300,o),
(924,289,c),
(882,265,o),
(845,244,o),
(809,244,cs),
(763,244,o),
(719,271,o),
(684,291,cs),
(649,310,l),
(506,310,ls),
(474,310,o),
(454,329,o),
(454,356,cs),
(454,384,o),
(474,404,o),
(506,404,cs),
(616,404,ls),
(620,404,o),
(623,406,o),
(623,411,cs),
(623,415,o),
(620,419,o),
(616,419,cs),
(504,419,ls),
(463,419,o),
(437,398,o),
(437,355,c),
(316,319,ls),
(284,310,o),
(259,323,o),
(250,348,cs),
(242,375,o),
(256,399,o),
(288,408,cs),
(549,484,ls),
(570,490,o),
(617,501,o),
(631,501,cs),
(648,501,o),
(669,490,o),
(688,481,cs),
(737,460,o),
(788,436,o),
(811,436,cs),
(818,436,o),
(836,438,o),
(877,451,cs),
(917,461,o),
(949,400,o),
(949,351,cs)
);
},
{
closed = 1;
nodes = (
(954,460,o),
(967,498,o),
(940,523,cs),
(914,548,o),
(904,563,o),
(900,569,cs),
(889,589,o),
(884,645,o),
(878,698,cs),
(876,719,o),
(875,743,o),
(866,757,cs),
(859,769,o),
(826,805,o),
(811,820,cs),
(614,1008,ls),
(591,1031,o),
(563,1031,o),
(543,1011,c),
(526,990,o),
(528,962,o),
(551,939,cs),
(643,852,l),
(680,874,o),
(711,862,o),
(732,826,cs),
(788,729,ls),
(790,726,o),
(788,721,o),
(784,719,cs),
(780,717,o),
(777,718,o),
(775,722,cs),
(720,817,ls),
(704,845,o),
(677,852,o),
(652,838,cs),
(629,825,o),
(623,798,o),
(639,770,cs),
(698,670,l),
(720,659,o),
(734,637,o),
(745,620,cs),
(777,577,o),
(809,533,o),
(828,522,cs),
(835,518,o),
(851,513,o),
(893,504,cs),
(919,496,o),
(931,466,o),
(926,442,c)
);
},
{
closed = 1;
nodes = (
(900,467,o),
(887,470,o),
(876,467,cs),
(835,454,o),
(818,452,o),
(811,452,cs),
(788,452,o),
(737,478,o),
(688,499,cs),
(669,508,o),
(648,517,o),
(631,517,cs),
(617,517,o),
(592,512,o),
(571,506,c),
(489,554,ls),
(461,570,o),
(453,596,o),
(467,619,cs),
(481,644,o),
(508,651,o),
(536,635,cs),
(631,580,ls),
(635,578,o),
(638,578,o),
(641,582,cs),
(643,586,o),
(642,591,o),
(639,593,cs),
(542,649,ls),
(506,669,o),
(473,664,o),
(452,627,c),
(329,656,ls),
(297,665,o),
(282,688,o),
(286,714,cs),
(293,742,o),
(317,756,o),
(349,747,cs),
(613,683,ls),
(634,677,o),
(681,663,o),
(693,656,cs),
(708,647,o),
(721,627,o),
(732,610,cs),
(764,567,o),
(797,521,o),
(816,510,cs),
(823,506,o),
(839,499,o),
(881,490,cs),
(895,486,o),
(905,475,o),
(910,461,c)
);
},
{
closed = 1;
nodes = (
(243,468,o),
(257,476,o),
(249,490,cs),
(214,549,o),
(194,657,o),
(242,763,cs),
(287,864,o),
(362,919,o),
(445,931,cs),
(456,933,o),
(454,947,o),
(443,946,cs),
(372,942,o),
(276,881,o),
(228,771,cs),
(178,660,o),
(197,545,o),
(235,482,cs)
);
},
{
closed = 1;
nodes = (
(150,510,o),
(151,505,o),
(157,503,cs),
(240,474,ls),
(247,472,o),
(252,474,o),
(254,482,cs),
(282,565,ls),
(284,571,o),
(281,576,o),
(277,577,cs),
(273,578,o),
(269,576,o),
(267,569,cs),
(240,492,l),
(163,518,ls),
(156,520,o),
(152,518,o),
(151,514,cs)
);
}
);
};
layerId = m01;
shapes = (
{
angle = -45;
pos = (577,1307);
ref = speakup;
scale = (1,-1);
}
);
width = 1138;
}
);
unicode = 57397;
},
{
glyphname = speakup;
lastChange = "2025-09-19 09:48:01 +0000";
layers = (
{
guides = (
{
angle = -17.4854;
pos = (358,266);
},
{
angle = -17.0029;
pos = (323,399);
},
{
angle = -42.4489;
pos = (383,536);
},
{
angle = 138.4682;
pos = (405,674);
}
);
layerId = m01;
shapes = (
{
closed = 1;
nodes = (
(267,995,o),
(262,994,o),
(260,990,cs),
(258,985,o),
(261,981,o),
(267,978,cs),
(340,944,l),
(303,870,ls),
(300,864,o),
(301,858,o),
(306,856,cs),
(310,854,o),
(315,856,o),
(318,863,cs),
(356,941,ls),
(360,948,o),
(358,954,o),
(351,957,cs),
(274,992,ls)
);
},
{
closed = 1;
nodes = (
(270,949,o),
(165,897,o),
(105,791,cs),
(44,687,o),
(52,574,o),
(90,514,cs),
(96,504,o),
(109,512,o),
(104,521,cs),
(65,596,o),
(65,688,o),
(120,785,cs),
(178,885,o),
(277,933,o),
(345,939,cs),
(361,941,o),
(360,958,o),
(344,955,cs)
);
},
{
angle = -50;
pos = (895,1383);
ref = SideHand_Base;
scale = (1,-1);
},
{
closed = 1;
nodes = (
(792,567,l),
(819,565,o),
(847,559,o),
(873,547,cs),
(909,530,o),
(940,498,o),
(971,453,cs),
(983,435,o),
(980,406,o),
(968,379,cs),
(946,333,o),
(891,289,o),
(855,306,cs),
(836,315,o),
(803,350,o),
(786,357,cs),
(763,368,o),
(699,390,o),
(639,391,cs),
(615,391,o),
(589,390,o),
(572,398,cs),
(554,406,o),
(528,425,o),
(495,455,cs),
(291,641,ls),
(265,664,o),
(258,681,o),
(267,700,cs),
(278,724,o),
(300,731,o),
(322,721,cs),
(332,716,o),
(339,711,o),
(345,706,cs),
(447,615,l),
(444,611,o),
(442,608,o),
(440,604,cs),
(425,570,o),
(443,540,o),
(473,526,cs),
(596,469,ls),
(601,466,o),
(605,468,o),
(607,472,cs),
(609,476,o),
(608,481,o),
(602,483,cs),
(478,541,ls),
(453,553,o),
(445,576,o),
(455,598,cs),
(465,620,o),
(489,630,o),
(514,618,cs),
(643,558,l),
(691,563,l),
(681,577,l),
(646,574,l),
(521,633,ls),
(494,645,o),
(471,638,o),
(457,627,c),
(352,720,ls),
(346,725,o),
(339,730,o),
(328,736,cs),
(301,748,o),
(268,741,o),
(252,707,cs),
(240,682,o),
(246,659,o),
(277,632,cs),
(488,439,ls),
(521,410,o),
(548,392,o),
(565,384,cs),
(582,376,o),
(607,376,o),
(632,376,cs),
(692,374,o),
(756,354,o),
(780,343,cs),
(796,335,o),
(826,301,o),
(848,291,cs),
(889,272,o),
(952,309,o),
(984,377,cs),
(1001,413,o),
(999,439,o),
(983,466,cs),
(955,512,o),
(916,544,o),
(879,561,cs),
(851,574,o),
(820,580,o),
(789,583,c)
);
},
{
closed = 1;
nodes = (
(215,689,ls),
(190,711,o),
(184,741,o),
(205,768,cs),
(232,804,o),
(280,785,o),
(311,757,c),
(304,758,o),
(292,757,o),
(287,756,c),
(260,774,o),
(234,780,o),
(218,759,cs),
(206,743,o),
(202,720,o),
(231,696,c),
(230,687,o),
(230,681,o),
(232,674,c)
);
},
{
closed = 1;
nodes = (
(140,335,ls),
(105,347,o),
(89,370,o),
(97,406,cs),
(104,436,o),
(128,447,o),
(154,447,cs),
(169,447,o),
(183,443,o),
(201,436,c),
(193,434,o),
(185,429,o),
(180,426,c),
(173,428,ls),
(146,435,o),
(118,430,o),
(112,401,cs),
(107,377,o),
(117,360,o),
(146,350,cs),
(154,348,l),
(154,340,o),
(159,332,o),
(163,327,c)
);
},
{
closed = 1;
nodes = (
(951,346,l),
(943,302,o),
(917,257,o),
(883,257,cs),
(861,257,o),
(817,275,o),
(799,274,cs),
(773,275,o),
(706,268,o),
(651,243,cs),
(629,233,o),
(606,221,o),
(588,221,cs),
(567,221,o),
(536,227,o),
(494,240,cs),
(230,323,ls),
(196,333,o),
(183,344,o),
(183,366,cs),
(183,393,o),
(200,407,o),
(224,407,cs),
(235,407,o),
(244,406,o),
(260,401,cs),
(381,365,l),
(381,360,o),
(380,357,o),
(380,352,cs),
(380,315,o),
(410,295,o),
(444,295,cs),
(579,296,ls),
(585,296,o),
(587,299,o),
(587,303,cs),
(587,308,o),
(585,311,o),
(579,311,cs),
(441,311,ls),
(414,311,o),
(396,329,o),
(396,353,cs),
(396,377,o),
(414,396,o),
(442,396,cs),
(559,396,l),
(538,412,l),
(441,412,ls),
(412,412,o),
(395,396,o),
(386,380,c),
(263,417,ls),
(246,422,o),
(236,423,o),
(223,423,cs),
(193,423,o),
(168,403,o),
(167,366,cs),
(168,338,o),
(181,320,o),
(221,309,cs),
(494,223,ls),
(536,211,o),
(568,205,o),
(587,205,cs),
(606,205,o),
(628,216,o),
(651,227,cs),
(706,250,o),
(773,259,o),
(799,259,cs),
(817,258,o),
(859,240,o),
(883,241,cs),
(926,241,o),
(965,296,o),
(969,366,c)
);
}
);
width = 1124;
}
);
unicode = 57398;
},
{
glyphname = together;
lastChange = "2025-09-19 09:47:26 +0000";
layers = (
{
background = {
shapes = (
{
closed = 0;
nodes = (
(684,497,ls),
(694,486,ls),
(753,421,o),
(683,298,o),
(575,297,cs),
(533,297,o),
(503,309,o),
(479,370,c)
);
}
);
};
layerId = m01;
shapes = (
{
closed = 1;
nodes = (
(210,518,o),
(208,542,o),
(189,561,cs),
(132,618,ls),
(113,637,o),
(91,638,o),
(72,618,cs),
(55,600,o),
(54,576,o),
(74,556,cs),
(130,500,ls),
(150,480,o),
(175,481,o),
(192,499,cs)
);
},
{
closed = 1;
nodes = (
(424,730,o),
(424,754,o),
(404,774,cs),
(349,830,ls),
(329,850,o),
(306,851,o),
(287,833,cs),
(269,814,o),
(269,790,o),
(289,770,cs),
(344,714,ls),
(362,695,o),
(386,693,o),
(405,711,cs)
);
},
{
closed = 1;
nodes = (
(402,834,ls),
(416,848,o),
(430,856,o),
(444,859,c),
(399,902,ls),
(390,910,o),
(377,911,o),
(365,900,cs),
(353,890,o),
(338,862,o),
(374,826,cs),
(384,816,l)
);
},
{
closed = 1;
nodes = (
(503,365,o),
(533,378,o),
(565,410,cs),
(664,509,l),
(694,477,ls),
(755,412,o),
(683,289,o),
(575,288,cs),
(533,288,o),
(504,297,o),
(477,360,c)
);
},
{
closed = 1;
nodes = (
(180,714,ls),
(158,736,o),
(137,735,o),
(118,716,cs),
(98,696,o),
(101,673,o),
(121,653,cs),
(201,572,ls),
(219,554,o),
(238,550,o),
(261,567,cs),
(266,570,o),
(270,571,o),
(274,567,cs),
(277,563,o),
(275,558,o),
(270,554,cs),
(251,539,o),
(231,536,o),
(213,544,c),
(215,547,l),
(223,523,o),
(222,507,o),
(203,488,cs),
(192,477,ls),
(130,415,o),
(203,288,o),
(311,288,cs),
(353,288,o),
(359,354,o),
(425,364,cs),
(481,373,o),
(517,385,o),
(555,423,cs),
(660,528,ls),
(686,554,o),
(694,589,o),
(664,619,cs),
(655,629,o),
(641,635,o),
(629,633,c),
(639,651,o),
(638,673,o),
(618,694,cs),
(603,709,o),
(586,713,o),
(569,709,c),
(582,728,o),
(582,752,o),
(561,774,cs),
(541,793,o),
(518,793,o),
(501,782,c),
(507,798,o),
(505,815,o),
(490,830,cs),
(464,856,o),
(436,846,o),
(412,822,cs),
(395,805,l),
(418,782,ls),
(445,755,o),
(437,722,o),
(418,702,cs),
(399,683,o),
(363,673,o),
(336,700,cs),
(264,773,ls),
(244,793,o),
(219,794,o),
(200,776,cs),
(182,757,o),
(182,735,o),
(202,715,cs),
(272,644,ls),
(290,626,o),
(309,622,o),
(332,639,cs),
(337,642,o),
(341,643,o),
(345,639,cs),
(348,635,o),
(346,630,o),
(341,626,cs),
(322,611,o),
(290,605,o),
(268,627,cs)
);
}
);
width = 776;
}
);
unicode = 57402;
},
{
glyphname = us;
lastChange = "2025-09-19 09:47:21 +0000";
layers = (
{
background = {
shapes = (
{
closed = 1;
nodes = (
(334,157,o),
(386,205,o),
(424,280,cs),
(469,364,o),
(512,433,o),
(554,474,cs),
(573,493,o),
(573,517,o),
(556,534,cs),
(541,550,o),
(517,550,o),
(497,530,cs),
(424,460,l),
(330,446,o),
(269,399,o),
(269,313,cs),
(269,285,o),
(275,258,o),
(285,232,cs),
(287,226,o),
(283,222,o),
(279,222,cs),
(275,222,o),
(271,224,o),
(268,232,cs),
(259,257,o),
(253,289,o),
(253,312,cs),
(253,404,o),
(315,462,o),
(424,476,c),
(424,793,ls),
(424,821,o),
(407,838,o),
(381,838,cs),
(355,838,o),
(339,821,o),
(339,793,cs),
(339,552,ls),
(339,546,o),
(338,541,o),
(331,541,cs),
(325,541,o),
(323,546,o),
(323,552,cs),
(323,828,ls),
(323,856,o),
(306,873,o),
(280,873,cs),
(254,873,o),
(238,856,o),
(238,828,cs),
(238,552,ls),
(238,546,o),
(237,541,o),
(229,541,cs),
(223,541,o),
(222,546,o),
(222,552,cs),
(222,802,ls),
(222,830,o),
(205,847,o),
(179,847,cs),
(153,847,o),
(137,830,o),
(137,802,cs),
(137,552,ls),
(137,546,o),
(136,541,o),
(129,541,cs),
(123,541,o),
(121,546,o),
(121,552,cs),
(121,730,ls),
(121,758,o),
(105,775,o),
(79,775,cs),
(53,775,o),
(36,758,o),
(36,730,cs),
(36,362,ls),
(36,216,o),
(119,157,o),
(229,157,cs)
);
},
{
closed = 1;
nodes = (
(885,725,l),
(828,670,l),
(734,656,o),
(673,609,o),
(673,523,cs),
(673,495,o),
(679,468,o),
(689,442,cs),
(691,436,o),
(687,432,o),
(683,432,cs),
(679,432,o),
(675,434,o),
(672,442,cs),
(663,467,o),
(657,499,o),
(657,522,cs),
(657,614,o),
(719,672,o),
(828,686,c),
(828,1003,ls),
(828,1031,o),
(811,1048,o),
(785,1048,cs),
(759,1048,o),
(743,1031,o),
(743,1003,cs),
(743,762,ls),
(743,756,o),
(742,751,o),
(735,751,cs),
(729,751,o),
(727,756,o),
(727,762,cs),
(727,1038,ls),
(727,1066,o),
(710,1083,o),
(684,1083,cs),
(658,1083,o),
(642,1066,o),
(642,1038,cs),
(642,762,ls),
(642,756,o),
(641,751,o),
(633,751,cs),
(627,751,o),
(626,756,o),
(626,762,cs),
(626,1012,ls),
(626,1040,o),
(609,1057,o),
(583,1057,cs),
(557,1057,o),
(541,1040,o),
(541,1012,cs),
(541,762,ls),
(541,756,o),
(540,751,o),
(533,751,cs),
(527,751,o),
(525,756,o),
(525,762,cs),
(525,940,ls),
(525,968,o),
(509,985,o),
(483,985,cs),
(457,985,o),
(440,968,o),
(440,940,cs),
(440,572,ls),
(440,426,o),
(523,367,o),
(633,367,cs),
(738,367,o),
(790,415,o),
(828,490,cs),
(847,526,o),
(866,560,o),
(885,589,c)
);
},
{
closed = 1;
nodes = (
(1142,117,o),
(1194,165,o),
(1232,240,cs),
(1277,324,o),
(1320,393,o),
(1362,434,cs),
(1381,453,o),
(1381,477,o),
(1364,494,cs),
(1349,510,o),
(1325,510,o),
(1305,490,cs),
(1232,420,l),
(1138,406,o),
(1077,359,o),
(1077,273,cs),
(1077,245,o),
(1083,218,o),
(1093,192,cs),
(1095,186,o),
(1091,182,o),
(1087,182,cs),
(1083,182,o),
(1079,184,o),
(1076,192,cs),
(1067,217,o),
(1061,249,o),
(1061,272,cs),
(1061,364,o),
(1123,422,o),
(1232,436,c),
(1232,753,ls),
(1232,781,o),
(1215,798,o),
(1189,798,cs),
(1163,798,o),
(1147,781,o),
(1147,753,cs),
(1147,512,ls),
(1147,506,o),
(1146,501,o),
(1139,501,cs),
(1133,501,o),
(1131,506,o),
(1131,512,cs),
(1131,788,ls),
(1131,816,o),
(1114,833,o),
(1088,833,cs),
(1062,833,o),
(1046,816,o),
(1046,788,cs),
(1046,512,ls),
(1046,506,o),
(1045,501,o),
(1037,501,cs),
(1031,501,o),
(1030,506,o),
(1030,512,cs),
(1030,762,ls),
(1030,790,o),
(1013,807,o),
(987,807,cs),
(961,807,o),
(945,790,o),
(945,762,cs),
(945,512,ls),
(945,506,o),
(944,501,o),
(937,501,cs),
(931,501,o),
(929,506,o),
(929,512,cs),
(929,690,ls),
(929,718,o),
(913,735,o),
(887,735,cs),
(861,735,o),
(844,718,o),
(844,690,cs),
(844,322,ls),
(844,176,o),
(927,117,o),
(1037,117,cs)
);
}
);
};
layerId = m01;
name = Regular;
shapes = (
{
pos = (662,-59);
ref = five_us_china;
scale = (-1,1);
},
{
pos = (1434,-99);
ref = five_us_china;
scale = (-1,1);
},
{
closed = 1;
nodes = (
(550,367,o),
(597,351,o),
(651,351,cs),
(746,351,o),
(802,388,o),
(846,474,c),
(846,640,l),
(745,625,o),
(691,588,o),
(691,507,cs),
(691,480,o),
(696,453,o),
(707,426,cs),
(709,421,o),
(706,416,o),
(701,416,cs),
(696,416,o),
(693,419,o),
(690,426,cs),
(681,451,o),
(675,483,o),
(675,506,cs),
(675,597,o),
(736,642,o),
(846,656,c),
(846,953,ls),
(846,981,o),
(829,998,o),
(803,998,cs),
(777,998,o),
(761,981,o),
(761,953,cs),
(761,707,ls),
(761,699,o),
(759,696,o),
(753,696,cs),
(748,696,o),
(745,700,o),
(745,707,cs),
(745,998,ls),
(745,1026,o),
(728,1043,o),
(702,1043,cs),
(676,1043,o),
(660,1026,o),
(660,998,cs),
(660,707,ls),
(660,699,o),
(657,696,o),
(651,696,cs),
(646,696,o),
(644,699,o),
(644,707,cs),
(644,972,ls),
(644,1000,o),
(627,1017,o),
(601,1017,cs),
(575,1017,o),
(559,1000,o),
(559,972,cs),
(559,707,ls),
(559,699,o),
(557,696,o),
(551,696,cs),
(546,696,o),
(543,700,o),
(543,707,cs),
(543,860,ls),
(543,888,o),
(527,905,o),
(501,905,cs),
(475,905,o),
(458,888,o),
(458,860,cs),
(458,526,l),
(507,578,ls),
(521,592,o),
(537,597,o),
(552,597,cs),
(587,597,o),
(611,571,o),
(611,542,cs),
(611,518,o),
(602,505,o),
(590,494,cs),
(565,470,o),
(540,435,o),
(515,402,c)
);
}
);
width = 1434;
}
);
unicode = 57403;
},
{
glyphname = wait;
lastChange = "2025-09-19 09:47:11 +0000";
layers = (
{
background = {
shapes = (
{
closed = 1;
nodes = (
(356,289,o),
(297,242,o),
(297,156,cs),
(297,128,o),
(303,101,o),
(313,73,cs),
(315,69,o),
(313,65,o),
(309,65,cs),
(304,65,o),
(301,67,o),
(298,75,cs),
(289,100,o),
(282,132,o),
(282,155,cs),
(282,247,o),
(341,301,o),
(450,315,c),
(450,636,ls),
(450,663,o),
(433,681,o),
(408,681,cs),
(383,681,o),
(367,663,o),
(367,636,cs),
(367,395,ls),
(367,389,o),
(366,384,o),
(359,384,cs),
(353,384,o),
(351,389,o),
(351,395,cs),
(351,672,ls),
(351,699,o),
(334,716,o),
(308,716,cs),
(282,716,o),
(266,699,o),
(266,672,cs),
(266,395,ls),
(266,389,o),
(265,384,o),
(257,384,cs),
(251,384,o),
(250,389,o),
(250,395,cs),
(250,645,ls),
(250,673,o),
(233,690,o),
(207,690,cs),
(180,690,o),
(165,673,o),
(165,645,cs),
(165,395,ls),
(165,389,o),
(163,384,o),
(156,384,cs),
(150,384,o),
(149,389,o),
(149,395,cs),
(149,573,ls),
(149,601,o),
(133,618,o),
(108,618,cs),
(83,618,o),
(66,601,o),
(66,573,cs),
(66,205,ls),
(66,59,o),
(147,0,o),
(257,0,cs),
(362,0,o),
(412,48,o),
(450,123,cs),
(495,207,o),
(538,276,o),
(580,317,cs),
(599,336,o),
(599,360,o),
(582,377,cs),
(567,393,o),
(543,393,o),
(523,373,cs),
(450,303,l)
);
},
{
closed = 1;
nodes = (
(717,373,ls),
(697,393,o),
(673,393,o),
(658,377,cs),
(641,360,o),
(641,336,o),
(660,317,cs),
(702,276,o),
(745,207,o),
(790,123,cs),
(828,48,o),
(878,0,o),
(983,0,cs),
(1093,0,o),
(1174,59,o),
(1174,205,cs),
(1174,573,ls),
(1174,601,o),
(1157,618,o),
(1132,618,cs),
(1107,618,o),
(1091,601,o),
(1091,573,cs),
(1091,395,ls),
(1091,389,o),
(1090,384,o),
(1084,384,cs),
(1077,384,o),
(1075,389,o),
(1075,395,cs),
(1075,645,ls),
(1075,673,o),
(1060,690,o),
(1033,690,cs),
(1007,690,o),
(990,673,o),
(990,645,cs),
(990,395,ls),
(990,389,o),
(989,384,o),
(983,384,cs),
(975,384,o),
(974,389,o),
(974,395,cs),
(974,672,ls),
(974,699,o),
(958,716,o),
(932,716,cs),
(906,716,o),
(889,699,o),
(889,672,cs),
(889,395,ls),
(889,389,o),
(887,384,o),
(881,384,cs),
(874,384,o),
(873,389,o),
(873,395,cs),
(873,636,ls),
(873,663,o),
(857,681,o),
(832,681,cs),
(807,681,o),
(790,663,o),
(790,636,cs),
(790,315,l),
(899,301,o),
(958,247,o),
(958,155,cs),
(958,132,o),
(951,100,o),
(942,75,cs),
(939,67,o),
(936,65,o),
(931,65,cs),
(927,65,o),
(925,69,o),
(927,73,cs),
(937,101,o),
(943,128,o),
(943,156,cs),
(943,242,o),
(884,289,o),
(790,303,c)
);
}
);
};
layerId = m01;
shapes = (
{
pos = (663,0);
ref = five_us_china;
},
{
pos = (662,0);
ref = five_us_china;
scale = (-1,1);
}
);
width = 1325;
}
);
unicode = 57405;
},
{
glyphname = welcome_india;
lastChange = "2025-09-19 09:47:06 +0000";
layers = (
{
layerId = m01;
shapes = (
{
closed = 1;
nodes = (
(473,700,o),
(449,725,o),
(415,725,cs),
(397,725,o),
(382,717,o),
(372,706,c),
(372,908,ls),
(372,936,o),
(391,953,o),
(415,953,cs),
(439,953,o),
(455,936,o),
(457,908,cs),
(473,726,l),
(559,460,ls),
(575,415,o),
(587,382,o),
(603,369,cs),
(609,364,o),
(621,352,o),
(654,329,cs),
(685,306,o),
(658,248,o),
(622,218,cs),
(603,203,o),
(579,192,o),
(563,202,cs),
(522,226,o),
(496,254,o),
(475,289,cs),
(439,349,o),
(372,365,o),
(372,453,cs),
(372,662,ls),
(372,690,o),
(391,709,o),
(415,709,cs),
(439,709,o),
(457,690,o),
(457,662,cs),
(457,561,ls),
(457,555,o),
(461,552,o),
(465,552,cs),
(469,552,o),
(473,555,o),
(473,561,cs),
(473,663,ls)
);
},
{
closed = 1;
nodes = (
(372,955,ls),
(372,989,o),
(389,1008,o),
(415,1008,cs),
(445,1008,o),
(458,986,o),
(458,955,cs),
(458,949,l),
(450,959,o),
(437,969,o),
(415,969,cs),
(396,969,o),
(380,961,o),
(372,951,c)
);
},
{
closed = 1;
nodes = (
(255,561,ls),
(255,555,o),
(259,552,o),
(263,552,cs),
(267,552,o),
(271,555,o),
(271,561,cs),
(271,662,ls),
(271,690,o),
(289,709,o),
(313,709,cs),
(337,709,o),
(356,690,o),
(356,662,cs),
(356,453,ls),
(356,365,o),
(289,349,o),
(253,289,cs),
(232,254,o),
(206,226,o),
(165,202,cs),
(149,192,o),
(125,203,o),
(106,218,cs),
(70,248,o),
(43,306,o),
(74,329,cs),
(107,352,o),
(119,364,o),
(125,369,cs),
(141,382,o),
(153,415,o),
(169,460,cs),
(255,726,l),
(271,908,ls),
(273,936,o),
(289,953,o),
(313,953,cs),
(337,953,o),
(356,936,o),
(356,908,cs),
(356,706,l),
(346,717,o),
(331,725,o),
(313,725,cs),
(279,725,o),
(255,700,o),
(255,663,cs)
);
},
{
closed = 1;
nodes = (
(348,961,o),
(332,969,o),
(313,969,cs),
(291,969,o),
(278,959,o),
(270,949,c),
(270,955,ls),
(270,986,o),
(283,1008,o),
(313,1008,cs),
(339,1008,o),
(356,989,o),
(356,955,cs),
(356,951,l)
);
}
);
width = 728;
}
);
unicode = 57406;
},
{
glyphname = what;
lastChange = "2025-09-19 09:46:54 +0000";
layers = (
{
layerId = m01;
shapes = (
{
closed = 1;
nodes = (
(643,429,o),
(667,446,o),
(667,473,cs),
(667,493,o),
(658,502,o),
(622,520,cs),
(536,563,l),
(488,603,o),
(459,617,o),
(427,617,cs),
(385,617,o),
(352,607,o),
(329,587,cs),
(327,585,o),
(324,584,o),
(322,584,cs),
(318,584,o),
(315,587,o),
(315,591,cs),
(315,594,o),
(318,598,o),
(322,602,cs),
(348,623,o),
(383,633,o),
(427,633,cs),
(463,633,o),
(499,616,o),
(540,579,c),
(619,539,ls),
(670,514,o),
(681,504,o),
(680,488,c),
(801,459,ls),
(835,451,o),
(858,466,o),
(858,497,cs),
(858,521,o),
(847,532,o),
(815,539,cs),
(572,594,ls),
(566,595,o),
(563,598,o),
(563,603,cs),
(563,608,o),
(569,611,o),
(576,609,cs),
(840,550,l),
(858,550,ls),
(885,548,o),
(902,564,o),
(902,590,cs),
(902,615,o),
(886,628,o),
(855,628,cs),
(576,628,ls),
(569,628,o),
(566,631,o),
(566,636,cs),
(566,641,o),
(569,644,o),
(576,644,cs),
(817,644,l),
(831,646,ls),
(852,649,o),
(863,664,o),
(860,687,cs),
(858,706,o),
(843,717,o),
(821,717,cs),
(809,717,o),
(793,715,o),
(773,711,cs),
(574,670,ls),
(567,669,o),
(563,671,o),
(562,676,cs),
(561,680,o),
(564,684,o),
(570,685,cs),
(703,712,l),
(725,719,ls),
(735,723,o),
(740,730,o),
(740,742,cs),
(740,758,o),
(729,769,o),
(713,769,cs),
(706,769,o),
(696,767,o),
(685,764,cs),
(530,723,ls),
(504,716,o),
(511,718,o),
(506,718,cs),
(436,718,l),
(339,726,o),
(234,696,o),
(88,618,cs),
(71,608,o),
(60,582,o),
(60,549,cs),
(60,502,o),
(96,455,o),
(131,455,cs),
(138,455,o),
(139,455,o),
(141,456,cs),
(182,470,o),
(202,474,o),
(241,475,cs),
(278,476,o),
(359,488,o),
(439,488,cs),
(498,488,o),
(567,447,o),
(614,436,cs)
);
},
{
closed = 1;
nodes = (
(954,358,o),
(888,314,o),
(802,287,cs),
(798,285,o),
(793,284,o),
(789,288,cs),
(785,293,o),
(788,300,o),
(793,302,cs),
(880,327,o),
(944,371,o),
(1001,445,cs),
(1006,452,o),
(1009,451,o),
(1014,448,cs),
(1019,445,o),
(1018,439,o),
(1013,433,cs)
);
},
{
closed = 1;
nodes = (
(922,402,o),
(857,358,o),
(771,330,cs),
(766,329,o),
(762,328,o),
(757,332,cs),
(754,337,o),
(756,343,o),
(761,345,cs),
(849,371,o),
(912,415,o),
(970,490,cs),
(974,495,o),
(978,496,o),
(983,492,cs),
(988,488,o),
(986,483,o),
(982,477,cs)
);
},
{
closed = 1;
nodes = (
(561,896,o),
(638,915,o),
(728,911,cs),
(733,911,o),
(740,909,o),
(740,903,cs),
(740,898,o),
(737,894,o),
(732,894,cs),
(641,901,o),
(566,881,o),
(486,830,cs),
(481,827,o),
(477,828,o),
(474,832,cs),
(470,837,o),
(473,842,o),
(480,846,cs)
);
},
{
closed = 1;
nodes = (
(576,844,o),
(652,863,o),
(743,860,cs),
(749,860,o),
(754,858,o),
(755,853,cs),
(756,847,o),
(752,843,o),
(747,843,cs),
(655,849,o),
(581,829,o),
(501,778,cs),
(495,775,o),
(490,776,o),
(488,780,cs),
(486,784,o),
(488,790,o),
(494,794,cs)
);
}
);
width = 1077;
}
);
unicode = 57408;
},
{
glyphname = what_italy;
lastChange = "2025-11-11 09:35:58 +0000";
layers = (
{
layerId = m01;
shapes = (
{
closed = 1;
nodes = (
(549,666,o),
(548,675,o),
(544,686,cs),
(519,750,ls),
(515,762,o),
(509,769,o),
(499,777,cs),
(372,868,ls),
(357,879,o),
(343,883,o),
(329,883,cs),
(307,883,o),
(288,868,o),
(288,846,c),
(297,854,o),
(313,859,o),
(327,859,cs),
(344,859,o),
(360,854,o),
(374,844,cs),
(485,761,ls),
(496,753,o),
(505,741,o),
(512,728,cs),
(548,657,l)
);
},
{
closed = 1;
nodes = (
(331,793,o),
(350,775,o),
(354,733,c),
(409,690,ls),
(427,676,o),
(428,666,o),
(428,656,cs),
(428,617,l),
(354,617,l),
(348,558,ls),
(347,553,o),
(344,549,o),
(339,549,cs),
(334,549,o),
(331,554,o),
(332,561,cs),
(339,616,o),
(341,670,o),
(338,733,cs),
(336,763,o),
(321,776,o),
(296,776,cs),
(267,776,o),
(258,754,o),
(258,726,cs),
(259,703,o),
(257,666,o),
(246,651,cs),
(223,619,o),
(193,558,o),
(185,531,c),
(79,494,l),
(63,485,o),
(58,459,o),
(60,436,cs),
(64,394,o),
(120,317,o),
(156,321,cs),
(161,321,o),
(165,323,o),
(172,327,cs),
(202,343,o),
(221,348,o),
(249,354,cs),
(306,365,o),
(327,363,o),
(350,373,cs),
(396,393,o),
(520,544,o),
(545,585,cs),
(554,600,o),
(553,612,o),
(548,622,cs),
(496,724,ls),
(490,734,o),
(485,741,o),
(475,749,cs),
(369,828,ls),
(354,839,o),
(340,843,o),
(326,843,cs),
(308,843,o),
(292,833,o),
(287,818,cs),
(284,807,o),
(286,799,o),
(288,792,c)
);
},
{
closed = 1;
nodes = (
(400,677,ls),
(409,670,o),
(412,663,o),
(412,657,cs),
(412,633,l),
(377,633,l),
(378,661,l),
(355,688,l),
(355,712,l)
);
},
{
closed = 1;
nodes = (
(272,828,o),
(272,830,o),
(273,832,c),
(270,844,o),
(271,854,o),
(276,864,c),
(273,865,o),
(269,866,o),
(264,866,cs),
(243,866,o),
(229,855,o),
(229,835,cs),
(229,831,o),
(230,824,o),
(233,820,c),
(246,828,o),
(259,828,o),
(272,826,c)
);
},
{
closed = 1;
nodes = (
(242,694,o),
(240,670,o),
(230,653,c),
(221,762,ls),
(219,783,o),
(224,799,o),
(238,806,cs),
(248,811,o),
(260,812,o),
(270,810,c),
(268,802,o),
(270,795,o),
(273,787,c),
(254,779,o),
(242,759,o),
(242,727,cs)
);
}
);
width = 612;
}
);
unicode = 57409;
},
{
glyphname = when;
lastChange = "2025-11-11 09:35:51 +0000";
layers = (
{
guides = (
{
angle = -45;
pos = (550,400);
}
);
layerId = m01;
shapes = (
{
closed = 1;
nodes = (
(605,563,ls),
(631,537,o),
(665,534,o),
(690,560,cs),
(714,585,o),
(715,621,o),
(689,647,cs),
(685,651,l),
(742,655,o),
(804,646,o),
(854,597,cs),
(957,495,o),
(955,394,o),
(844,283,cs),
(739,178,ls),
(714,153,o),
(677,145,o),
(648,174,cs),
(638,183,o),
(632,197,o),
(634,209,c),
(616,199,o),
(594,200,o),
(573,220,cs),
(559,234,o),
(554,252,o),
(558,269,c),
(539,256,o),
(515,256,o),
(493,277,cs),
(474,297,o),
(474,320,o),
(485,337,c),
(469,331,o),
(452,333,o),
(437,348,cs),
(411,374,o),
(421,403,o),
(445,427,cs),
(552,534,ls),
(556,538,o),
(555,542,o),
(552,545,cs),
(548,549,o),
(543,548,o),
(540,545,cs),
(493,497,l),
(493,554,ls),
(493,570,o),
(495,587,o),
(504,598,cs),
(512,608,o),
(525,613,o),
(547,620,cs)
);
},
{
angle = -44.1;
pos = (-276,601);
ref = LShapedHand_Base;
}
);
width = 989;
}
);
unicode = 57410;
},
{
glyphname = win;
lastChange = "2025-11-11 09:35:40 +0000";
layers = (
{
background = {
shapes = (
{
closed = 1;
nodes = (
(178,610,l),
(178,857,ls),
(178,885,o),
(160,903,o),
(136,903,cs),
(112,903,o),
(93,885,o),
(93,857,cs),
(93,606,l),
(100,608,o),
(111,610,o),
(124,610,cs)
);
},
{
closed = 1;
nodes = (
(194,903,ls),
(194,931,o),
(212,948,o),
(236,948,cs),
(260,948,o),
(279,931,o),
(279,903,cs),
(279,610,l),
(194,610,l)
);
},
{
closed = 1;
nodes = (
(371,569,o),
(380,581,o),
(380,607,cs),
(380,697,ls),
(380,725,o),
(361,742,o),
(337,742,cs),
(313,742,o),
(295,725,o),
(295,697,cs),
(295,610,l),
(329,610,o),
(352,593,o),
(356,563,c)
);
},
{
closed = 1;
nodes = (
(357,517,o),
(333,493,o),
(292,493,cs),
(207,493,ls),
(200,493,o),
(197,489,o),
(197,484,cs),
(197,476,o),
(201,473,o),
(221,456,cs),
(268,417,o),
(285,376,o),
(285,332,cs),
(285,322,o),
(284,310,o),
(283,305,cs),
(282,298,o),
(278,296,o),
(274,296,cs),
(269,296,o),
(265,298,o),
(266,305,cs),
(267,310,o),
(269,322,o),
(269,332,cs),
(269,376,o),
(253,408,o),
(206,447,cs),
(187,464,o),
(181,473,o),
(181,487,cs),
(181,503,o),
(193,509,o),
(207,509,cs),
(296,509,ls),
(323,509,o),
(341,526,o),
(341,551,cs),
(341,579,o),
(323,594,o),
(296,594,cs),
(118,594,ls),
(90,594,o),
(75,580,o),
(71,554,cs),
(63,505,ls),
(62,498,o),
(60,487,o),
(60,477,cs),
(60,361,o),
(139,256,o),
(289,256,cs),
(399,256,o),
(481,326,o),
(481,470,cs),
(481,561,l),
(473,553,o),
(460,550,o),
(446,550,cs),
(438,550,o),
(435,554,o),
(435,558,cs),
(435,562,o),
(437,566,o),
(444,566,cs),
(466,566,o),
(481,574,o),
(481,607,cs),
(481,657,ls),
(481,685,o),
(462,702,o),
(438,702,cs),
(414,702,o),
(396,685,o),
(396,657,cs),
(396,603,ls),
(396,572,o),
(382,555,o),
(357,547,c)
);
}
);
};
layerId = m01;
shapes = (
{
closed = 1;
nodes = (
(112,657,o),
(127,660,o),
(139,660,cs),
(194,660,l),
(153,868,ls),
(148,894,o),
(137,911,o),
(111,911,cs),
(85,911,o),
(64,894,o),
(71,858,cs),
(108,656,l)
);
},
{
closed = 1;
nodes = (
(260,660,ls),
(272,660,o),
(283,657,o),
(289,655,c),
(327,892,ls),
(333,929,o),
(311,946,o),
(287,946,cs),
(260,946,o),
(248,929,o),
(244,902,cs),
(206,660,l)
);
},
{
closed = 1;
nodes = (
(313,638,o),
(321,624,o),
(321,607,cs),
(321,579,o),
(301,550,o),
(268,550,cs),
(211,550,ls),
(205,550,o),
(204,547,o),
(204,544,cs),
(204,537,o),
(213,532,o),
(232,515,cs),
(282,468,o),
(291,439,o),
(291,377,cs),
(291,354,o),
(287,328,o),
(280,300,cs),
(279,295,o),
(276,292,o),
(271,292,cs),
(265,292,o),
(262,299,o),
(264,304,cs),
(271,325,o),
(275,352,o),
(275,377,cs),
(275,443,o),
(262,472,o),
(207,515,cs),
(194,525,o),
(188,533,o),
(188,545,cs),
(188,560,o),
(201,566,o),
(215,566,cs),
(266,566,ls),
(289,566,o),
(305,583,o),
(305,605,cs),
(305,628,o),
(289,644,o),
(266,644,cs),
(126,644,ls),
(99,644,o),
(89,630,o),
(80,607,cs),
(66,569,ls),
(58,550,o),
(59,532,o),
(66,506,cs),
(89,419,ls),
(119,305,o),
(174,253,o),
(284,253,cs),
(403,253,o),
(484,323,o),
(484,454,cs),
(484,545,l),
(476,537,o),
(462,530,o),
(447,530,cs),
(442,530,o),
(435,531,o),
(435,539,cs),
(435,545,o),
(440,546,o),
(444,546,cs),
(469,546,o),
(480,557,o),
(484,591,cs),
(496,692,ls),
(499,719,o),
(480,736,o),
(455,736,cs),
(431,736,o),
(418,719,o),
(415,692,cs),
(403,587,ls),
(399,551,o),
(383,530,o),
(351,530,cs),
(345,530,o),
(342,533,o),
(342,539,cs),
(342,543,o),
(344,546,o),
(349,546,cs),
(372,546,o),
(384,558,o),
(388,591,cs),
(401,711,ls),
(404,739,o),
(384,756,o),
(358,756,cs),
(333,756,o),
(322,738,o),
(317,711,cs),
(304,646,l)
);
}
);
width = 556;
}
);
unicode = 57412;
},
{
glyphname = write;
lastChange = "2025-11-11 09:35:27 +0000";
layers = (
{
background = {
shapes = (
{
closed = 1;
nodes = (
(675,269,o),
(746,340,o),
(720,483,cs),
(691,646,ls),
(685,682,o),
(665,708,o),
(629,702,cs),
(584,694,o),
(587,647,o),
(587,621,c),
(595,644,l),
(588,669,o),
(574,712,o),
(529,703,cs),
(484,696,o),
(486,650,o),
(484,624,c),
(494,644,l),
(485,668,o),
(473,715,o),
(426,707,cs),
(383,700,o),
(385,651,o),
(390,613,c),
(397,620,l),
(341,853,ls),
(334,881,o),
(317,893,o),
(291,889,cs),
(265,884,o),
(251,867,o),
(257,839,cs),
(332,500,l),
(323,583,l),
(300,541,ls),
(293,528,o),
(283,514,o),
(285,500,cs),
(287,483,o),
(299,463,o),
(321,428,cs),
(376,340,o),
(460,225,o),
(586,251,cs)
);
},
{
closed = 1;
nodes = (
(299,991,o),
(270,1046,o),
(191,1046,cs),
(107,1046,o),
(57,955,o),
(48,879,cs),
(47,868,o),
(53,862,o),
(61,862,cs),
(70,862,o),
(76,868,o),
(77,876,cs),
(82,922,o),
(113,1016,o),
(189,1016,cs),
(251,1016,o),
(271,978,o),
(271,852,c),
(299,860,l)
);
}
);
};
layerId = m01;
shapes = (
{
closed = 1;
nodes = (
(286,973,o),
(248,1021,o),
(170,1006,cs),
(88,990,o),
(55,891,o),
(61,815,cs),
(62,804,o),
(69,800,o),
(77,801,cs),
(86,802,o),
(91,810,o),
(90,818,cs),
(87,864,o),
(99,962,o),
(173,977,cs),
(235,988,o),
(262,955,o),
(285,831,c),
(311,844,l)
);
},
{
angle = 12;
pos = (308,-68);
ref = PointingFinger;
}
);
width = 788;
}
);
unicode = 57414;
},
{
glyphname = you;
lastChange = "2025-11-11 09:35:22 +0000";
layers = (
{
background = {
shapes = (
{
closed = 1;
nodes = (
(316,680,o),
(334,658,o),
(363,658,cs),
(390,658,o),
(407,680,o),
(407,704,cs),
(407,779,ls),
(407,802,o),
(387,814,o),
(362,814,cs),
(336,814,o),
(316,802,o),
(316,778,cs),
(316,727,l),
(328,737,o),
(343,742,o),
(361,742,cs),
(388,742,o),
(394,732,o),
(394,727,cs),
(394,724,o),
(392,720,o),
(388,721,c),
(382,725,o),
(374,728,o),
(360,728,cs),
(340,728,o),
(325,720,o),
(316,708,c),
(316,703,ls)
);
},
{
closed = 1;
nodes = (
(184,415,o),
(203,423,o),
(221,436,c),
(212,441,o),
(207,448,o),
(202,458,cs),
(142,579,ls),
(139,584,o),
(139,589,o),
(144,591,cs),
(149,593,o),
(153,591,o),
(156,586,cs),
(211,471,ls),
(217,459,o),
(228,439,o),
(257,439,cs),
(275,439,o),
(295,446,o),
(311,460,c),
(303,467,o),
(297,474,o),
(293,482,cs),
(216,633,ls),
(213,638,o),
(213,643,o),
(218,645,cs),
(223,647,o),
(227,645,o),
(230,640,cs),
(301,495,ls),
(307,483,o),
(318,465,o),
(347,465,c),
(364,465,l),
(394,451,ls),
(415,441,o),
(427,438,o),
(442,438,cs),
(461,438,o),
(476,445,o),
(487,462,cs),
(499,482,ls),
(522,521,o),
(518,578,o),
(485,638,cs),
(423,749,l),
(423,710,ls),
(423,674,o),
(412,642,o),
(364,642,cs),
(353,642,o),
(344,644,o),
(334,650,c),
(372,577,l),
(394,585,o),
(410,595,o),
(421,610,cs),
(424,615,o),
(428,618,o),
(432,616,cs),
(436,614,o),
(435,610,o),
(433,607,cs),
(423,591,o),
(408,580,o),
(394,573,c),
(410,569,o),
(425,562,o),
(434,556,c),
(439,553,o),
(440,550,o),
(438,546,cs),
(437,543,o),
(433,542,o),
(425,546,cs),
(381,568,o),
(336,569,o),
(319,547,c),
(315,544,o),
(313,544,o),
(309,547,cs),
(305,551,o),
(306,555,o),
(310,559,cs),
(319,568,o),
(334,576,o),
(355,577,c),
(309,666,l),
(303,681,o),
(300,695,o),
(300,710,cs),
(300,778,l),
(292,780,o),
(284,781,o),
(272,781,cs),
(223,781,o),
(191,747,o),
(203,704,c),
(207,709,l),
(197,714,o),
(191,715,o),
(176,715,cs),
(119,715,o),
(93,654,o),
(124,611,c),
(124,623,l),
(118,626,o),
(111,627,o),
(105,627,cs),
(74,627,o),
(47,589,o),
(67,550,cs),
(120,447,ls),
(126,435,o),
(137,415,o),
(166,415,cs)
);
}
);
};
layerId = m01;
shapes = (
{
closed = 1;
nodes = (
(316,680,o),
(334,658,o),
(363,658,cs),
(390,658,o),
(407,680,o),
(407,704,cs),
(407,779,ls),
(407,802,o),
(387,814,o),
(362,814,cs),
(336,814,o),
(316,802,o),
(316,778,cs),
(316,727,l),
(328,737,o),
(343,742,o),
(361,742,cs),
(388,742,o),
(394,732,o),
(394,727,cs),
(394,724,o),
(392,720,o),
(388,721,c),
(382,725,o),
(374,728,o),
(360,728,cs),
(340,728,o),
(325,720,o),
(316,708,c),
(316,703,ls)
);
},
{
closed = 1;
nodes = (
(184,415,o),
(203,423,o),
(221,436,c),
(212,441,o),
(207,448,o),
(202,458,cs),
(142,579,ls),
(139,584,o),
(139,589,o),
(144,591,cs),
(149,593,o),
(153,591,o),
(156,586,cs),
(211,471,ls),
(217,459,o),
(228,439,o),
(257,439,cs),
(275,439,o),
(295,446,o),
(311,460,c),
(303,467,o),
(297,474,o),
(293,482,cs),
(216,633,ls),
(213,638,o),
(213,643,o),
(218,645,cs),
(223,647,o),
(227,645,o),
(230,640,cs),
(301,495,ls),
(307,483,o),
(318,465,o),
(347,465,c),
(364,465,l),
(394,451,ls),
(415,441,o),
(427,438,o),
(442,438,cs),
(461,438,o),
(476,445,o),
(487,462,cs),
(499,482,ls),
(522,521,o),
(518,578,o),
(485,638,cs),
(423,749,l),
(423,710,ls),
(423,674,o),
(412,642,o),
(364,642,cs),
(353,642,o),
(344,644,o),
(334,650,c),
(372,577,l),
(394,585,o),
(410,595,o),
(421,610,cs),
(424,615,o),
(428,618,o),
(432,616,cs),
(436,614,o),
(435,610,o),
(433,607,cs),
(423,591,o),
(408,580,o),
(394,573,c),
(410,569,o),
(425,562,o),
(434,556,c),
(439,553,o),
(440,550,o),
(438,546,cs),
(437,543,o),
(433,542,o),
(425,546,cs),
(381,568,o),
(336,569,o),
(319,547,c),
(315,544,o),
(313,544,o),
(309,547,cs),
(305,551,o),
(306,555,o),
(310,559,cs),
(319,568,o),
(334,576,o),
(355,577,c),
(309,666,l),
(303,681,o),
(300,695,o),
(300,710,cs),
(300,778,l),
(292,780,o),
(284,781,o),
(272,781,cs),
(223,781,o),
(191,747,o),
(203,704,c),
(207,709,l),
(197,714,o),
(191,715,o),
(176,715,cs),
(119,715,o),
(93,654,o),
(124,611,c),
(124,623,l),
(118,626,o),
(111,627,o),
(105,627,cs),
(74,627,o),
(47,589,o),
(67,550,cs),
(120,447,ls),
(126,435,o),
(137,415,o),
(166,415,cs)
);
}
);
width = 574;
}
);
unicode = 57415;
},
{
glyphname = you_rock;
lastChange = "2025-11-11 09:35:17 +0000";
layers = (
{
background = {
shapes = (
{
closed = 1;
nodes = (
(110,657,o),
(123,660,o),
(135,660,cs),
(190,660,l),
(151,858,ls),
(146,884,o),
(135,901,o),
(109,901,cs),
(83,901,o),
(62,884,o),
(69,848,cs),
(106,656,l)
);
},
{
closed = 1;
nodes = (
(256,660,ls),
(268,660,o),
(279,657,o),
(285,655,c),
(292,721,ls),
(296,758,o),
(276,775,o),
(252,775,cs),
(225,775,o),
(212,758,o),
(209,731,cs),
(202,660,l)
);
},
{
closed = 1;
nodes = (
(317,578,o),
(297,554,o),
(264,554,cs),
(211,554,ls),
(203,554,o),
(200,551,o),
(200,545,cs),
(200,539,o),
(204,536,o),
(223,519,cs),
(270,480,o),
(287,446,o),
(287,380,cs),
(287,357,o),
(283,331,o),
(276,303,cs),
(275,298,o),
(272,295,o),
(267,295,cs),
(261,295,o),
(259,298,o),
(261,303,cs),
(268,324,o),
(271,355,o),
(271,380,cs),
(271,446,o),
(254,476,o),
(209,510,cs),
(188,526,o),
(184,535,o),
(184,547,cs),
(184,562,o),
(197,568,o),
(211,568,cs),
(262,568,ls),
(285,568,o),
(301,585,o),
(301,607,cs),
(301,630,o),
(285,646,o),
(262,646,cs),
(122,646,ls),
(95,646,o),
(85,632,o),
(76,609,cs),
(62,571,ls),
(54,552,o),
(55,534,o),
(62,508,cs),
(85,422,ls),
(115,308,o),
(170,256,o),
(280,256,cs),
(399,256,o),
(465,326,o),
(480,470,cs),
(511,763,ls),
(514,790,o),
(495,807,o),
(470,807,cs),
(446,807,o),
(435,790,o),
(430,763,cs),
(399,589,ls),
(393,553,o),
(379,536,o),
(347,536,cs),
(341,536,o),
(338,537,o),
(338,543,cs),
(338,547,o),
(340,548,o),
(344,548,cs),
(368,548,o),
(382,560,o),
(384,593,cs),
(393,713,ls),
(395,741,o),
(376,758,o),
(350,758,cs),
(325,758,o),
(313,740,o),
(309,713,cs),
(300,647,l),
(309,640,o),
(317,626,o),
(317,607,cs)
);
}
);
};
layerId = m01;
shapes = (
{
closed = 1;
nodes = (
(116,677,o),
(129,678,o),
(135,678,cs),
(194,678,l),
(153,886,ls),
(148,912,o),
(139,929,o),
(111,929,cs),
(85,929,o),
(65,912,o),
(71,876,cs),
(108,674,l)
);
},
{
closed = 1;
nodes = (
(256,678,ls),
(268,678,o),
(279,675,o),
(285,673,c),
(292,737,ls),
(296,774,o),
(276,791,o),
(252,791,cs),
(223,791,o),
(210,774,o),
(207,747,cs),
(200,678,l)
);
},
{
closed = 1;
nodes = (
(311,654,o),
(321,639,o),
(321,625,cs),
(321,597,o),
(302,568,o),
(264,568,cs),
(211,568,ls),
(205,568,o),
(204,565,o),
(204,562,cs),
(204,555,o),
(213,550,o),
(232,533,cs),
(282,486,o),
(291,457,o),
(291,395,cs),
(291,372,o),
(287,346,o),
(280,318,cs),
(279,313,o),
(276,310,o),
(271,310,cs),
(265,310,o),
(262,317,o),
(264,322,cs),
(271,343,o),
(275,370,o),
(275,395,cs),
(275,461,o),
(262,490,o),
(207,533,cs),
(194,543,o),
(188,551,o),
(188,563,cs),
(188,578,o),
(201,584,o),
(215,584,cs),
(266,584,ls),
(289,584,o),
(305,601,o),
(305,623,cs),
(305,646,o),
(289,662,o),
(266,662,cs),
(126,662,ls),
(99,662,o),
(89,648,o),
(80,625,cs),
(66,587,ls),
(58,568,o),
(59,550,o),
(66,524,cs),
(88,437,ls),
(117,324,o),
(173,271,o),
(283,271,cs),
(402,271,o),
(471,343,o),
(483,472,cs),
(510,769,ls),
(513,806,o),
(495,823,o),
(470,823,cs),
(446,823,o),
(434,806,o),
(430,779,cs),
(404,605,ls),
(399,569,o),
(383,548,o),
(351,548,cs),
(345,548,o),
(342,551,o),
(342,557,cs),
(342,561,o),
(344,564,o),
(349,564,cs),
(372,564,o),
(387,579,o),
(388,612,cs),
(393,729,ls),
(394,757,o),
(376,774,o),
(350,774,cs),
(325,774,o),
(313,756,o),
(309,729,cs),
(300,663,l)
);
}
);
width = 570;
}
);
unicode = 57416;
},
{
glyphname = aggressiveness;
lastChange = "2025-11-11 09:35:06 +0000";
layers = (
{
background = {
shapes = (
{
angle = -134.10001;
pos = (1045,669);
ref = five_us_china;
scale = (1,-1);
},
{
closed = 1;
nodes = (
(282,449,o),
(273,315,o),
(360,228,cs),
(457,131,o),
(616,172,o),
(714,268,cs),
(885,436,ls),
(916,467,o),
(930,499,o),
(906,528,cs),
(881,559,o),
(847,545,o),
(818,523,c),
(843,514,l),
(855,532,o),
(891,577,o),
(850,618,cs),
(814,655,o),
(772,626,o),
(747,605,c),
(782,609,l),
(794,631,o),
(848,684,o),
(802,730,cs),
(766,766,o),
(730,745,o),
(700,722,c),
(728,730,l),
(744,757,o),
(783,801,o),
(744,839,cs),
(712,871,o),
(673,861,o),
(642,828,cs),
(373,545,ls)
);
}
);
};
layerId = m01;
shapes = (
{
ref = weapon;
}
);
width = 811;
}
);
unicode = 57417;
},
{
glyphname = anticipation;
lastChange = "2025-11-11 09:34:57 +0000";
layers = (
{
layerId = m01;
name = Regular;
shapes = (
{
closed = 1;
nodes = (
(1021,275,o),
(1068,394,o),
(1000,528,cs),
(876,771,ls),
(863,796,o),
(841,804,o),
(817,792,cs),
(794,780,o),
(788,758,o),
(800,733,cs),
(870,596,ls),
(872,591,o),
(871,587,o),
(867,585,cs),
(862,583,o),
(858,584,o),
(856,588,cs),
(731,833,ls),
(721,852,o),
(693,857,o),
(673,844,cs),
(669,841,o),
(664,842,o),
(661,847,cs),
(659,852,o),
(660,856,o),
(665,859,cs),
(685,870,o),
(704,869,o),
(716,864,c),
(750,935,ls),
(762,960,o),
(754,983,o),
(731,994,cs),
(707,1005,o),
(685,996,o),
(673,971,cs),
(612,841,l),
(628,835,o),
(640,823,o),
(648,807,cs),
(780,550,ls),
(782,545,o),
(781,541,o),
(777,539,cs),
(772,537,o),
(768,538,o),
(766,543,cs),
(632,801,ls),
(618,829,o),
(595,832,o),
(572,820,cs),
(568,818,o),
(562,818,o),
(560,823,cs),
(558,828,o),
(559,833,o),
(566,836,cs),
(575,840,o),
(586,843,o),
(595,843,c),
(669,1001,ls),
(681,1027,o),
(674,1049,o),
(650,1060,cs),
(626,1071,o),
(604,1063,o),
(592,1037,cs),
(469,773,ls),
(466,767,o),
(462,765,o),
(457,767,cs),
(452,769,o),
(451,773,o),
(455,780,cs),
(559,1003,ls),
(570,1029,o),
(563,1051,o),
(539,1062,cs),
(516,1073,o),
(493,1064,o),
(481,1039,cs),
(418,902,l),
(436,884,o),
(433,863,o),
(422,840,cs),
(381,754,l),
(468,691,o),
(480,631,o),
(448,562,cs),
(438,541,o),
(419,514,o),
(400,496,cs),
(394,490,o),
(390,489,o),
(386,491,cs),
(381,493,o),
(381,499,o),
(385,503,cs),
(406,523,o),
(422,545,o),
(433,569,cs),
(462,630,o),
(450,687,o),
(376,739,cs),
(366,745,o),
(364,750,o),
(368,759,cs),
(410,847,ls),
(422,873,o),
(414,895,o),
(391,906,cs),
(367,917,o),
(345,909,o),
(333,883,cs),
(281,773,ls),
(216,633,o),
(228,493,o),
(376,424,cs),
(418,404,o),
(460,396,o),
(501,400,c),
(464,470,o),
(466,509,o),
(501,528,cs),
(516,536,o),
(530,536,o),
(544,532,c),
(472,674,ls),
(459,699,o),
(463,735,o),
(498,752,cs),
(529,767,o),
(562,757,o),
(577,727,cs),
(690,504,ls),
(692,500,o),
(691,495,o),
(687,493,cs),
(682,491,o),
(678,492,o),
(676,497,cs),
(564,717,ls),
(551,742,o),
(529,750,o),
(506,738,cs),
(482,726,o),
(475,703,o),
(488,678,cs),
(629,402,ls),
(631,398,o),
(630,394,o),
(626,392,cs),
(621,389,o),
(617,390,o),
(615,395,cs),
(566,490,ls),
(553,515,o),
(532,523,o),
(512,513,cs),
(491,503,o),
(485,480,o),
(497,455,cs),
(516,418,ls),
(597,259,o),
(728,126,o),
(911,220,cs)
);
},
{
closed = 1;
nodes = (
(337,526,l),
(191,548,o),
(79,642,o),
(79,770,cs),
(79,900,o),
(206,976,o),
(358,980,c),
(307,931,ls),
(302,926,o),
(301,922,o),
(305,918,cs),
(310,913,o),
(315,915,o),
(319,920,cs),
(379,981,ls),
(384,987,o),
(385,992,o),
(380,999,c),
(317,1055,ls),
(312,1059,o),
(306,1062,o),
(302,1058,cs),
(297,1053,o),
(301,1049,o),
(306,1044,cs),
(361,996,l),
(197,992,o),
(60,909,o),
(60,770,cs),
(60,630,o),
(179,530,o),
(337,508,c)
);
},
{
closed = 1;
nodes = (
(794,791,ls),
(806,816,o),
(797,839,o),
(774,850,cs),
(761,856,o),
(750,856,o),
(741,850,c),
(783,765,l)
);
},
{
closed = 1;
nodes = (
(993,452,o),
(1160,554,o),
(1160,714,cs),
(1160,853,o),
(1009,943,o),
(839,943,cs),
(835,943,o),
(831,941,o),
(831,934,cs),
(831,927,o),
(835,925,o),
(839,925,cs),
(995,925,o),
(1141,841,o),
(1141,714,cs),
(1141,578,o),
(990,468,o),
(832,468,c),
(829,448,l)
);
}
);
width = 1220;
}
);
unicode = 57419;
},
{
glyphname = anxious;
lastChange = "2025-11-11 09:34:52 +0000";
layers = (
{
layerId = m01;
name = Regular;
shapes = (
{
closed = 1;
nodes = (
(60,509,o),
(78,444,o),
(120,435,cs),
(131,433,o),
(140,431,o),
(154,429,cs),
(194,423,o),
(224,417,o),
(275,406,cs),
(327,395,o),
(360,381,o),
(392,381,cs),
(435,381,o),
(472,412,o),
(510,460,cs),
(535,491,l),
(454,461,ls),
(447,458,o),
(441,461,o),
(441,468,cs),
(441,472,o),
(443,473,o),
(450,476,cs),
(534,506,l),
(535,513,o),
(543,528,o),
(549,534,c),
(535,540,ls),
(514,549,o),
(501,561,o),
(493,573,c),
(412,552,ls),
(405,550,o),
(399,552,o),
(399,559,cs),
(399,563,o),
(401,565,o),
(408,567,cs),
(489,588,l),
(486,618,o),
(501,644,o),
(531,650,c),
(519,659,o),
(515,675,o),
(515,682,c),
(390,649,ls),
(383,647,o),
(377,649,o),
(377,656,cs),
(377,660,o),
(379,662,o),
(386,664,cs),
(514,698,l),
(516,729,o),
(547,748,o),
(580,745,c),
(581,748,o),
(581,752,o),
(581,757,cs),
(581,774,o),
(565,788,o),
(552,788,cs),
(546,788,o),
(538,787,o),
(524,784,c),
(395,749,ls),
(388,747,o),
(383,750,o),
(383,756,cs),
(383,760,o),
(386,762,o),
(392,764,cs),
(482,789,l),
(483,794,o),
(484,800,o),
(484,807,cs),
(484,826,o),
(469,844,o),
(444,844,cs),
(419,844,o),
(405,831,o),
(394,816,cs),
(360,770,ls),
(340,743,o),
(316,730,o),
(231,688,cs),
(95,621,ls),
(68,608,o),
(60,580,o),
(60,545,cs)
);
},
{
closed = 1;
nodes = (
(559,637,o),
(553,638,o),
(543,638,cs),
(519,638,o),
(503,621,o),
(503,599,cs),
(503,576,o),
(519,563,o),
(536,557,cs),
(712,496,ls),
(718,494,o),
(721,492,o),
(721,487,cs),
(721,482,o),
(718,477,o),
(710,480,cs),
(562,529,l),
(554,519,o),
(548,506,o),
(548,494,cs),
(548,476,o),
(558,462,o),
(577,456,cs),
(697,415,ls),
(702,413,o),
(705,412,o),
(705,407,cs),
(705,402,o),
(702,397,o),
(694,400,cs),
(614,427,l),
(651,388,ls),
(666,372,o),
(688,356,o),
(716,356,cs),
(746,356,o),
(768,371,o),
(804,404,cs),
(868,463,o),
(929,500,o),
(1011,549,cs),
(1036,564,o),
(1049,593,o),
(1049,640,cs),
(1049,682,o),
(1045,708,o),
(1033,726,cs),
(1020,745,o),
(1004,749,o),
(968,753,cs),
(914,759,o),
(849,774,o),
(805,794,cs),
(788,802,o),
(773,808,o),
(758,808,cs),
(748,808,o),
(743,807,o),
(733,805,cs),
(685,793,ls),
(676,791,o),
(672,791,o),
(665,791,cs),
(658,791,o),
(648,793,o),
(641,795,cs),
(622,799,ls),
(614,801,o),
(605,803,o),
(599,803,cs),
(591,803,o),
(584,800,o),
(578,790,c),
(595,781,o),
(597,765,o),
(597,743,c),
(645,726,ls),
(702,707,o),
(738,720,o),
(762,744,cs),
(764,746,o),
(766,747,o),
(769,747,cs),
(773,747,o),
(776,743,o),
(776,739,cs),
(776,733,o),
(773,730,o),
(769,727,cs),
(754,714,o),
(734,705,o),
(709,703,c),
(769,684,ls),
(774,682,o),
(777,680,o),
(777,676,cs),
(777,668,o),
(770,666,o),
(762,669,cs),
(596,726,ls),
(585,730,o),
(579,731,o),
(569,731,cs),
(545,731,o),
(529,714,o),
(529,692,cs),
(529,669,o),
(545,656,o),
(562,650,cs),
(742,590,ls),
(748,588,o),
(750,587,o),
(750,582,cs),
(750,577,o),
(747,571,o),
(739,574,cs),
(570,633,ls)
);
}
);
width = 1109;
}
);
unicode = 57420;
},
{
glyphname = boredom;
lastChange = "2025-11-11 09:34:47 +0000";
layers = (
{
layerId = m01;
shapes = (
{
pos = (131,1232);
ref = come_western;
scale = (1,-1);
},
{
closed = 1;
nodes = (
(108,401,ls),
(111,398,o),
(115,398,o),
(118,401,cs),
(160,443,ls),
(167,450,o),
(167,453,o),
(163,457,cs),
(159,461,o),
(155,461,o),
(152,457,c),
(121,425,l),
(121,609,l),
(152,577,l),
(155,573,o),
(159,573,o),
(163,577,cs),
(167,581,o),
(167,584,o),
(160,591,cs),
(118,633,ls),
(115,636,o),
(111,636,o),
(108,633,cs),
(63,589,ls),
(58,585,o),
(59,581,o),
(63,577,cs),
(66,574,o),
(71,573,o),
(74,577,c),
(105,609,l),
(105,425,l),
(74,457,l),
(71,461,o),
(66,460,o),
(63,457,cs),
(59,453,o),
(58,449,o),
(63,445,cs)
);
}
);
width = 896;
}
);
unicode = 57421;
},
{
glyphname = cold;
lastChange = "2025-11-11 09:34:33 +0000";
layers = (
{
layerId = m01;
shapes = (
{
angle = 180;
pos = (960,1096);
ref = SideHand_Base;
},
{
closed = 1;
nodes = (
(539,663,l),
(503,637,ls),
(498,633,o),
(497,629,o),
(500,625,cs),
(503,621,o),
(507,620,o),
(512,624,cs),
(542,646,l),
(535,646,l),
(535,608,ls),
(535,602,o),
(538,599,o),
(543,599,cs),
(548,599,o),
(551,602,o),
(551,608,cs),
(551,646,l),
(544,646,l),
(574,624,ls),
(579,620,o),
(583,621,o),
(586,625,cs),
(589,629,o),
(588,633,o),
(583,637,cs),
(547,663,l),
(551,655,l),
(551,794,l),
(547,786,l),
(583,812,ls),
(588,816,o),
(589,820,o),
(586,824,cs),
(583,828,o),
(579,829,o),
(574,825,cs),
(544,803,l),
(551,803,l),
(551,841,ls),
(551,847,o),
(548,850,o),
(543,850,cs),
(538,850,o),
(535,847,o),
(535,841,cs),
(535,803,l),
(542,803,l),
(512,825,ls),
(507,829,o),
(503,828,o),
(500,824,cs),
(497,820,o),
(498,816,o),
(503,812,cs),
(539,786,l),
(535,794,l),
(535,655,l)
);
},
{
closed = 1;
nodes = (
(594,690,l),
(600,646,ls),
(601,640,o),
(603,638,o),
(608,638,cs),
(612,638,o),
(616,641,o),
(615,647,cs),
(610,684,l),
(607,678,l),
(640,659,ls),
(645,656,o),
(649,657,o),
(652,662,cs),
(654,666,o),
(653,670,o),
(648,673,cs),
(615,692,l),
(611,686,l),
(646,701,ls),
(651,703,o),
(653,707,o),
(651,712,cs),
(649,717,o),
(645,718,o),
(639,715,cs),
(598,697,l),
(607,697,l),
(487,766,l),
(492,759,l),
(487,802,ls),
(486,809,o),
(484,812,o),
(478,811,cs),
(472,810,o),
(471,806,o),
(472,800,cs),
(476,765,l),
(479,771,l),
(446,790,ls),
(441,793,o),
(437,792,o),
(434,787,cs),
(432,783,o),
(433,779,o),
(438,776,cs),
(471,757,l),
(475,763,l),
(440,748,ls),
(435,746,o),
(433,742,o),
(435,737,cs),
(437,732,o),
(441,731,o),
(447,734,cs),
(488,752,l),
(479,752,l),
(599,683,l)
);
},
{
closed = 1;
nodes = (
(479,698,l),
(488,698,l),
(447,716,ls),
(441,719,o),
(437,718,o),
(435,713,cs),
(433,708,o),
(435,704,o),
(440,702,cs),
(475,687,l),
(471,693,l),
(438,674,ls),
(433,671,o),
(432,667,o),
(434,663,cs),
(437,658,o),
(441,657,o),
(446,660,cs),
(479,679,l),
(476,685,l),
(472,650,ls),
(471,644,o),
(472,640,o),
(478,639,cs),
(484,638,o),
(486,641,o),
(487,648,cs),
(492,691,l),
(487,684,l),
(607,753,l),
(598,753,l),
(639,735,ls),
(645,732,o),
(649,733,o),
(651,738,cs),
(653,743,o),
(651,747,o),
(646,749,cs),
(611,764,l),
(615,758,l),
(648,777,ls),
(653,780,o),
(654,784,o),
(652,788,cs),
(649,793,o),
(645,794,o),
(640,791,cs),
(607,772,l),
(610,766,l),
(615,803,ls),
(616,809,o),
(612,812,o),
(608,812,cs),
(603,812,o),
(601,810,o),
(600,804,cs),
(594,760,l),
(599,767,l)
);
}
);
width = 955;
}
);
unicode = 57423;
},
{
glyphname = confidence;
lastChange = "2025-11-11 09:34:28 +0000";
layers = (
{
layerId = m01;
shapes = (
{
closed = 1;
nodes = (
(553,569,l),
(549,571,ls),
(540,576,o),
(530,578,o),
(521,578,cs),
(496,578,o),
(478,553,o),
(483,529,c)
);
},
{
closed = 1;
nodes = (
(571,793,l),
(355,669,ls),
(349,666,o),
(344,667,o),
(342,671,cs),
(339,676,o),
(340,679,o),
(347,683,cs),
(559,805,ls),
(575,814,o),
(584,827,o),
(585,841,cs),
(585,861,o),
(569,887,o),
(543,887,cs),
(535,887,o),
(527,885,o),
(518,880,cs),
(247,723,l),
(270,819,ls),
(272,827,o),
(273,831,o),
(273,836,cs),
(273,859,o),
(260,884,o),
(228,884,cs),
(207,884,o),
(190,865,o),
(185,845,cs),
(171,793,o),
(157,733,o),
(101,644,cs),
(73,600,o),
(60,559,o),
(60,518,cs),
(60,420,o),
(135,312,o),
(247,312,cs),
(286,312,o),
(329,323,o),
(376,350,cs),
(631,497,ls),
(647,506,o),
(656,519,o),
(656,537,cs),
(656,555,o),
(639,579,o),
(613,579,cs),
(605,579,o),
(597,576,o),
(589,571,cs),
(456,494,ls),
(450,491,o),
(445,492,o),
(443,496,cs),
(440,501,o),
(441,504,o),
(448,508,cs),
(468,520,l),
(458,553,o),
(480,593,o),
(520,593,cs),
(534,593,o),
(550,591,o),
(569,578,c),
(653,627,l),
(569,676,l),
(407,582,ls),
(400,578,o),
(396,578,o),
(394,583,cs),
(391,588,o),
(392,592,o),
(399,596,cs),
(655,744,l)
);
},
{
closed = 1;
nodes = (
(586,453,l),
(763,350,ls),
(808,324,o),
(849,312,o),
(887,312,cs),
(989,312,o),
(1078,422,o),
(1078,522,cs),
(1078,562,o),
(1065,601,o),
(1037,644,cs),
(981,733,o),
(967,793,o),
(953,845,cs),
(947,867,o),
(931,884,o),
(908,884,cs),
(881,884,o),
(865,863,o),
(865,835,cs),
(865,831,o),
(866,826,o),
(867,822,cs),
(891,724,l),
(621,880,ls),
(612,885,o),
(605,888,o),
(598,888,cs),
(590,888,o),
(587,885,o),
(585,881,c),
(605,864,o),
(607,826,o),
(585,803,c),
(790,684,ls),
(798,679,o),
(799,676,o),
(797,671,cs),
(794,666,o),
(789,666,o),
(783,670,cs),
(671,735,l),
(585,685,l),
(740,596,ls),
(747,592,o),
(749,588,o),
(745,582,cs),
(743,578,o),
(739,578,o),
(733,582,cs),
(670,618,l),
(624,591,l),
(655,586,o),
(673,562,o),
(672,535,cs),
(672,529,o),
(672,526,o),
(670,518,c),
(689,507,ls),
(695,504,o),
(697,500,o),
(694,495,cs),
(691,490,o),
(687,489,o),
(680,493,cs),
(667,500,l)
);
}
);
width = 1138;
}
);
unicode = 57424;
},
{
glyphname = confusion;
lastChange = "2025-11-11 09:34:22 +0000";
layers = (
{
layerId = m01;
shapes = (
{
closed = 1;
nodes = (
(1568,429,o),
(1592,446,o),
(1592,473,cs),
(1592,493,o),
(1583,502,o),
(1547,520,cs),
(1461,563,l),
(1413,603,o),
(1384,617,o),
(1352,617,cs),
(1310,617,o),
(1277,607,o),
(1254,587,cs),
(1252,585,o),
(1249,584,o),
(1247,584,cs),
(1243,584,o),
(1240,587,o),
(1240,591,cs),
(1240,594,o),
(1243,598,o),
(1247,602,cs),
(1273,623,o),
(1308,633,o),
(1352,633,cs),
(1388,633,o),
(1424,616,o),
(1465,579,c),
(1544,539,ls),
(1595,514,o),
(1606,504,o),
(1605,488,c),
(1726,459,ls),
(1760,451,o),
(1783,466,o),
(1783,497,cs),
(1783,521,o),
(1772,532,o),
(1740,539,cs),
(1497,594,ls),
(1491,595,o),
(1488,598,o),
(1488,603,cs),
(1488,608,o),
(1494,611,o),
(1501,609,cs),
(1765,550,l),
(1783,550,ls),
(1810,548,o),
(1827,564,o),
(1827,590,cs),
(1827,615,o),
(1811,628,o),
(1780,628,cs),
(1501,628,ls),
(1494,628,o),
(1491,631,o),
(1491,636,cs),
(1491,641,o),
(1494,644,o),
(1501,644,cs),
(1742,644,l),
(1756,646,ls),
(1777,649,o),
(1788,664,o),
(1785,687,cs),
(1783,706,o),
(1768,717,o),
(1746,717,cs),
(1734,717,o),
(1718,715,o),
(1698,711,cs),
(1499,670,ls),
(1492,669,o),
(1488,671,o),
(1487,676,cs),
(1486,680,o),
(1489,684,o),
(1495,685,cs),
(1628,712,l),
(1650,719,ls),
(1660,723,o),
(1665,730,o),
(1665,742,cs),
(1665,758,o),
(1654,769,o),
(1638,769,cs),
(1631,769,o),
(1621,767,o),
(1610,764,cs),
(1455,723,ls),
(1429,716,o),
(1436,718,o),
(1431,718,cs),
(1361,718,l),
(1264,726,o),
(1159,696,o),
(1013,618,cs),
(996,608,o),
(985,582,o),
(985,549,cs),
(985,502,o),
(1021,455,o),
(1056,455,cs),
(1063,455,o),
(1064,455,o),
(1066,456,cs),
(1107,470,o),
(1127,474,o),
(1166,475,cs),
(1203,476,o),
(1284,488,o),
(1364,488,cs),
(1423,488,o),
(1492,447,o),
(1539,436,cs)
);
},
{
closed = 1;
nodes = (
(395,447,o),
(464,488,o),
(523,488,cs),
(603,488,o),
(684,476,o),
(721,475,cs),
(760,474,o),
(780,470,o),
(821,456,cs),
(823,455,o),
(824,455,o),
(831,455,cs),
(866,455,o),
(902,502,o),
(902,549,cs),
(902,582,o),
(891,608,o),
(874,618,cs),
(728,696,o),
(623,726,o),
(526,718,c),
(456,718,ls),
(451,718,o),
(458,716,o),
(432,723,cs),
(277,764,ls),
(266,767,o),
(256,769,o),
(249,769,cs),
(233,769,o),
(222,758,o),
(222,742,cs),
(222,730,o),
(227,723,o),
(237,719,cs),
(259,712,l),
(392,685,ls),
(398,684,o),
(401,680,o),
(400,676,cs),
(399,671,o),
(395,669,o),
(388,670,cs),
(189,711,ls),
(169,715,o),
(153,717,o),
(141,717,cs),
(119,717,o),
(104,706,o),
(102,687,cs),
(99,664,o),
(110,649,o),
(131,646,cs),
(145,644,l),
(386,644,ls),
(393,644,o),
(396,641,o),
(396,636,cs),
(396,631,o),
(393,628,o),
(386,628,cs),
(107,628,ls),
(76,628,o),
(60,615,o),
(60,590,cs),
(60,564,o),
(77,548,o),
(104,550,cs),
(122,550,l),
(386,609,ls),
(393,611,o),
(399,608,o),
(399,603,cs),
(399,598,o),
(396,595,o),
(390,594,cs),
(147,539,ls),
(115,532,o),
(104,521,o),
(104,497,cs),
(104,466,o),
(127,451,o),
(161,459,cs),
(282,488,l),
(281,504,o),
(292,514,o),
(343,539,cs),
(422,579,l),
(463,616,o),
(499,633,o),
(535,633,cs),
(579,633,o),
(614,623,o),
(640,602,cs),
(644,598,o),
(647,594,o),
(647,591,cs),
(647,587,o),
(644,584,o),
(640,584,cs),
(638,584,o),
(635,585,o),
(633,587,cs),
(610,607,o),
(577,617,o),
(535,617,cs),
(503,617,o),
(474,603,o),
(426,563,c),
(340,520,ls),
(304,502,o),
(295,493,o),
(295,473,cs),
(295,446,o),
(319,429,o),
(348,436,cs)
);
}
);
width = 1887;
}
);
unicode = 57425;
},
{
glyphname = fear;
lastChange = "2025-11-11 09:33:49 +0000";
layers = (
{
guides = (
{
angle = 50.0883;
pos = (357,697);
},
{
angle = 50.0883;
pos = (552,613);
}
);
layerId = m01;
shapes = (
{
closed = 1;
nodes = (
(205,224,o),
(274,214,o),
(363,251,cs),
(461,291,o),
(522,295,o),
(576,300,cs),
(612,302,o),
(623,324,o),
(623,345,cs),
(623,373,o),
(601,390,o),
(568,388,cs),
(467,381,l),
(380,434,o),
(314,441,o),
(262,379,cs),
(245,358,o),
(231,334,o),
(222,306,cs),
(221,301,o),
(215,299,o),
(211,302,cs),
(207,306,o),
(207,310,o),
(209,317,cs),
(218,342,o),
(234,370,o),
(249,388,cs),
(308,458,o),
(383,453,o),
(477,393,c),
(512,435,l),
(496,447,o),
(487,469,o),
(487,486,cs),
(487,497,o),
(490,502,o),
(496,502,cs),
(501,502,o),
(503,499,o),
(503,493,cs),
(503,458,o),
(514,445,o),
(550,442,cs),
(603,438,o),
(665,434,o),
(762,395,cs),
(851,357,o),
(920,366,o),
(991,426,cs),
(1075,496,o),
(1094,603,o),
(1001,714,cs),
(811,940,ls),
(793,961,o),
(769,963,o),
(750,947,cs),
(730,930,o),
(728,907,o),
(746,885,cs),
(845,768,l),
(849,762,o),
(849,758,o),
(846,754,c),
(841,750,o),
(838,751,o),
(832,758,cs),
(662,961,ls),
(644,982,o),
(621,985,o),
(601,968,cs),
(581,951,o),
(579,927,o),
(597,906,cs),
(767,703,ls),
(772,697,o),
(773,693,o),
(769,690,cs),
(764,686,o),
(760,687,o),
(755,693,cs),
(568,916,ls),
(550,937,o),
(527,940,o),
(507,923,cs),
(487,906,o),
(485,882,o),
(503,861,cs),
(690,638,ls),
(694,633,o),
(695,628,o),
(691,624,c),
(686,621,o),
(683,622,o),
(678,628,cs),
(520,816,ls),
(502,838,o),
(478,840,o),
(458,824,cs),
(439,807,o),
(436,783,o),
(454,762,cs),
(645,534,l),
(739,594,o),
(814,599,o),
(873,529,cs),
(888,511,o),
(904,483,o),
(913,458,cs),
(915,451,o),
(915,447,o),
(911,443,cs),
(907,440,o),
(901,442,o),
(900,447,cs),
(891,475,o),
(877,499,o),
(860,520,cs),
(808,582,o),
(743,575,o),
(656,522,c),
(589,526,l),
(611,551,l),
(555,617,l),
(444,487,ls),
(439,481,o),
(436,480,o),
(431,483,c),
(427,487,o),
(428,492,o),
(432,497,cs),
(545,629,l),
(488,695,l),
(367,552,ls),
(362,546,o),
(358,545,o),
(353,549,cs),
(349,552,o),
(350,556,o),
(355,562,cs),
(478,707,l),
(459,729,o),
(432,758,o),
(424,777,c),
(290,617,ls),
(284,610,o),
(281,608,o),
(276,613,cs),
(272,617,o),
(272,621,o),
(277,627,cs),
(376,744,ls),
(394,766,o),
(392,789,o),
(372,806,cs),
(353,822,o),
(329,820,o),
(311,799,cs),
(121,573,ls),
(28,462,o),
(48,355,o),
(132,285,cs)
);
}
);
width = 1123;
}
);
unicode = 57431;
},
{
glyphname = flourishing;
lastChange = "2025-11-11 09:33:44 +0000";
layers = (
{
layerId = m01;
shapes = (
{
closed = 1;
nodes = (
(469,677,o),
(468,674,o),
(464,674,cs),
(460,674,o),
(460,677,o),
(460,684,cs),
(461,926,ls),
(461,954,o),
(444,971,o),
(418,971,cs),
(391,971,o),
(375,955,o),
(375,927,cs),
(375,726,ls),
(375,719,o),
(375,714,o),
(369,714,cs),
(365,714,o),
(363,718,o),
(360,725,cs),
(270,925,ls),
(263,941,o),
(251,952,o),
(232,952,cs),
(204,952,o),
(188,934,o),
(188,910,cs),
(188,903,o),
(190,897,o),
(193,890,cs),
(281,698,ls),
(284,692,o),
(286,688,o),
(282,684,cs),
(278,681,o),
(275,683,o),
(269,688,cs),
(132,797,ls),
(123,804,o),
(114,808,o),
(100,808,cs),
(82,808,o),
(60,794,o),
(60,767,cs),
(60,754,o),
(67,742,o),
(80,731,c),
(242,603,ls),
(296,561,o),
(327,426,o),
(325,365,cs),
(323,289,ls),
(322,263,o),
(367,229,o),
(409,229,cs),
(444,229,o),
(487,229,o),
(500,260,cs),
(541,356,ls),
(550,377,o),
(557,389,o),
(575,400,cs),
(593,412,o),
(606,422,o),
(607,441,cs),
(610,465,o),
(591,486,o),
(558,489,cs),
(538,491,o),
(506,474,o),
(485,449,c),
(445,473,o),
(411,508,o),
(391,545,cs),
(386,553,o),
(388,563,o),
(397,563,cs),
(401,563,o),
(403,561,o),
(405,557,cs),
(418,524,o),
(452,491,o),
(483,469,c),
(502,489,o),
(526,502,o),
(554,505,c),
(544,533,ls),
(534,564,o),
(538,614,o),
(546,647,cs),
(589,803,ls),
(590,808,o),
(592,818,o),
(593,823,cs),
(595,850,o),
(576,869,o),
(551,869,cs),
(530,869,o),
(515,858,o),
(509,836,cs),
(471,684,ls)
);
},
{
closed = 1;
nodes = (
(669,836,ls),
(663,858,o),
(648,869,o),
(627,869,cs),
(602,869,o),
(583,850,o),
(585,823,cs),
(586,818,o),
(588,808,o),
(589,803,cs),
(632,647,ls),
(640,614,o),
(644,564,o),
(634,533,cs),
(624,505,l),
(652,502,o),
(676,489,o),
(695,469,c),
(726,491,o),
(760,524,o),
(773,557,cs),
(775,561,o),
(777,563,o),
(781,563,cs),
(790,563,o),
(792,553,o),
(787,545,cs),
(767,508,o),
(733,473,o),
(693,449,c),
(672,474,o),
(640,491,o),
(620,489,cs),
(587,486,o),
(568,465,o),
(571,441,cs),
(572,422,o),
(585,412,o),
(603,400,cs),
(621,389,o),
(628,377,o),
(637,356,cs),
(678,260,ls),
(691,229,o),
(734,229,o),
(769,229,cs),
(811,229,o),
(856,263,o),
(855,289,cs),
(853,365,ls),
(851,426,o),
(882,561,o),
(936,603,cs),
(1098,731,l),
(1111,742,o),
(1118,754,o),
(1118,767,cs),
(1118,794,o),
(1096,808,o),
(1078,808,cs),
(1064,808,o),
(1055,804,o),
(1046,797,cs),
(909,688,ls),
(903,683,o),
(900,681,o),
(896,684,cs),
(892,688,o),
(894,692,o),
(897,698,cs),
(985,890,ls),
(988,897,o),
(990,903,o),
(990,910,cs),
(990,934,o),
(974,952,o),
(946,952,cs),
(927,952,o),
(915,941,o),
(908,925,cs),
(818,725,ls),
(815,718,o),
(813,714,o),
(809,714,cs),
(803,714,o),
(803,719,o),
(803,726,cs),
(803,927,ls),
(803,955,o),
(787,971,o),
(760,971,cs),
(734,971,o),
(717,954,o),
(717,926,cs),
(718,684,ls),
(718,677,o),
(718,674,o),
(714,674,cs),
(710,674,o),
(709,677,o),
(707,684,cs)
);
}
);
width = 1178;
}
);
unicode = 57432;
},
{
glyphname = forgiveness;
lastChange = "2025-11-11 09:33:40 +0000";
layers = (
{
layerId = m01;
shapes = (
{
angle = -29.1;
pos = (-278,189);
ref = BackHand_Base;
},
{
closed = 1;
nodes = (
(593,646,o),
(580,649,o),
(565,643,c),
(598,702,ls),
(619,739,o),
(603,770,o),
(578,784,cs),
(563,793,o),
(544,795,o),
(530,789,c),
(538,813,o),
(528,841,o),
(505,854,cs),
(471,873,o),
(442,864,o),
(424,838,cs),
(419,831,l),
(419,841,o),
(413,855,o),
(393,866,cs),
(368,880,o),
(329,875,o),
(314,847,cs),
(301,824,l),
(295,846,o),
(294,860,o),
(294,877,cs),
(294,946,o),
(333,1015,o),
(424,1015,cs),
(475,1015,o),
(520,990,o),
(544,940,c),
(569,990,o),
(613,1015,o),
(666,1015,cs),
(756,1015,o),
(795,946,o),
(795,877,cs),
(795,772,o),
(743,683,o),
(639,606,c),
(632,622,o),
(622,632,o),
(610,638,cs)
);
}
);
width = 855;
}
);
unicode = 57433;
},
{
glyphname = gratitude;
lastChange = "2025-11-11 09:33:31 +0000";
layers = (
{
layerId = m01;
shapes = (
{
pos = (663,0);
ref = five_us_china;
},
{
pos = (662,0);
ref = five_us_china;
scale = (-1,1);
},
{
closed = 1;
nodes = (
(671,924,o),
(674,927,o),
(674,932,cs),
(674,1042,ls),
(674,1047,o),
(671,1050,o),
(666,1050,cs),
(661,1050,o),
(658,1047,o),
(658,1042,cs),
(658,932,ls),
(658,927,o),
(661,924,o),
(666,924,cs)
);
},
{
closed = 1;
nodes = (
(756,905,o),
(760,905,o),
(763,908,cs),
(820,965,ls),
(823,968,o),
(823,972,o),
(820,976,cs),
(816,979,o),
(812,979,o),
(809,976,cs),
(752,919,ls),
(749,916,o),
(749,912,o),
(752,908,cs)
);
},
{
closed = 1;
nodes = (
(583,912,o),
(583,916,o),
(580,919,cs),
(523,976,ls),
(520,979,o),
(516,979,o),
(512,976,cs),
(509,972,o),
(509,968,o),
(512,965,cs),
(569,908,ls),
(572,905,o),
(576,905,o),
(580,908,cs)
);
}
);
width = 1325;
}
);
unicode = 57434;
},
{
glyphname = guilt;
lastChange = "2025-11-11 09:33:20 +0000";
layers = (
{
background = {
shapes = (
{
closed = 1;
nodes = (
(1084,788,o),
(1071,784,o),
(1055,784,cs),
(1049,784,o),
(1046,787,o),
(1046,791,cs),
(1046,796,o),
(1048,798,o),
(1052,798,cs),
(1077,798,o),
(1093,809,o),
(1093,842,cs),
(1093,910,ls),
(1093,937,o),
(1072,954,o),
(1047,954,cs),
(1022,954,o),
(1007,937,o),
(1007,910,cs),
(1007,834,ls),
(1007,796,o),
(986,778,o),
(953,778,cs),
(947,778,o),
(943,781,o),
(943,785,cs),
(943,790,o),
(946,792,o),
(950,792,cs),
(975,792,o),
(990,803,o),
(990,836,cs),
(990,933,ls),
(990,960,o),
(974,976,o),
(947,976,cs),
(921,976,o),
(905,960,o),
(905,933,cs),
(905,908,l),
(915,900,o),
(922,887,o),
(922,870,cs),
(922,841,o),
(902,814,o),
(868,814,cs),
(814,814,ls),
(806,814,o),
(803,810,o),
(803,805,cs),
(803,797,o),
(807,794,o),
(827,778,cs),
(873,739,o),
(891,688,o),
(891,620,cs),
(891,598,o),
(889,571,o),
(880,542,cs),
(879,539,o),
(877,535,o),
(872,535,cs),
(865,535,o),
(864,539,o),
(865,542,cs),
(873,565,o),
(876,596,o),
(876,620,cs),
(876,688,o),
(860,732,o),
(812,772,cs),
(793,788,o),
(787,793,o),
(787,806,cs),
(787,821,o),
(800,827,o),
(814,827,cs),
(867,827,ls),
(890,827,o),
(906,845,o),
(906,868,cs),
(906,890,o),
(890,907,o),
(867,907,cs),
(724,907,ls),
(696,907,o),
(685,892,o),
(677,870,cs),
(663,830,ls),
(659,821,o),
(657,812,o),
(657,802,cs),
(657,791,o),
(659,780,o),
(663,766,cs),
(685,663,ls),
(712,547,o),
(771,495,o),
(885,495,cs),
(996,495,o),
(1093,567,o),
(1093,714,cs),
(1093,796,l)
);
},
{
closed = 1;
nodes = (
(955,523,o),
(915,516,o),
(874,516,cs),
(834,516,o),
(794,523,o),
(749,538,c),
(749,334,ls),
(749,255,o),
(812,215,o),
(874,215,cs),
(937,215,o),
(1000,255,o),
(1000,334,cs),
(1000,538,l)
);
}
);
};
layerId = m01;
shapes = (
{
pos = (508,-357);
ref = right;
},
{
pos = (521,360);
ref = right;
},
{
pos = (0,-43);
ref = right;
}
);
width = 1287;
}
);
unicode = 57436;
},
{
glyphname = heart01_western;
lastChange = "2025-11-11 09:33:15 +0000";
layers = (
{
layerId = m01;
name = Regular;
shapes = (
{
closed = 1;
nodes = (
(547,428,o),
(534,439,o),
(513,448,cs),
(422,487,ls),
(356,516,o),
(340,562,o),
(340,606,cs),
(340,664,o),
(379,711,o),
(438,711,cs),
(475,711,o),
(498,695,o),
(506,674,cs),
(513,654,o),
(525,640,o),
(550,640,cs),
(575,640,o),
(587,656,o),
(593,674,cs),
(601,695,o),
(624,711,o),
(661,711,cs),
(720,711,o),
(759,664,o),
(759,606,cs),
(759,562,o),
(743,516,o),
(677,487,cs),
(586,448,ls),
(565,439,o),
(552,428,o),
(550,409,c)
);
},
{
closed = 1;
nodes = (
(517,754,o),
(487,770,o),
(455,781,cs),
(441,786,o),
(430,787,o),
(417,780,cs),
(302,721,ls),
(296,718,o),
(292,720,o),
(290,724,cs),
(288,728,o),
(291,733,o),
(296,736,cs),
(416,797,ls),
(429,804,o),
(441,802,o),
(454,797,cs),
(482,785,o),
(503,774,o),
(525,762,cs),
(527,761,o),
(529,761,o),
(530,762,cs),
(531,763,o),
(531,764,o),
(530,765,cs),
(456,832,ls),
(450,838,o),
(443,841,o),
(435,841,cs),
(425,841,o),
(417,837,o),
(406,831,cs),
(281,766,ls),
(267,759,o),
(254,752,o),
(245,743,cs),
(238,736,o),
(217,715,o),
(196,693,cs),
(87,578,ls),
(68,558,o),
(60,539,o),
(60,502,cs),
(60,466,o),
(61,425,o),
(87,424,cs),
(272,416,ls),
(376,411,o),
(431,387,o),
(475,367,cs),
(487,362,o),
(497,360,o),
(508,360,cs),
(531,360,o),
(547,378,o),
(550,395,c),
(552,378,o),
(568,360,o),
(591,360,cs),
(602,360,o),
(612,362,o),
(624,367,cs),
(668,387,o),
(723,411,o),
(827,416,cs),
(1012,424,ls),
(1038,425,o),
(1039,466,o),
(1039,502,cs),
(1039,539,o),
(1031,558,o),
(1012,578,cs),
(903,693,ls),
(882,715,o),
(861,736,o),
(854,743,cs),
(845,752,o),
(832,759,o),
(818,766,cs),
(693,831,ls),
(682,837,o),
(674,841,o),
(664,841,cs),
(656,841,o),
(649,838,o),
(643,832,cs),
(569,765,ls),
(568,764,o),
(568,763,o),
(569,762,cs),
(570,761,o),
(572,761,o),
(574,762,cs),
(596,774,o),
(617,785,o),
(645,797,cs),
(658,802,o),
(670,804,o),
(683,797,cs),
(803,736,ls),
(808,733,o),
(811,728,o),
(809,724,cs),
(807,720,o),
(803,718,o),
(797,721,cs),
(682,780,ls),
(669,787,o),
(658,786,o),
(644,781,cs),
(612,770,o),
(581,754,o),
(549,729,c)
);
}
);
width = 1099;
}
);
unicode = 57437;
},
{
glyphname = heart02_korea;
lastChange = "2025-11-11 09:33:10 +0000";
layers = (
{
layerId = m01;
shapes = (
{
closed = 1;
nodes = (
(400,840,ls),
(420,859,o),
(444,860,o),
(463,842,cs),
(480,823,o),
(479,800,o),
(460,780,cs),
(350,668,l),
(366,680,o),
(389,679,o),
(409,659,cs),
(431,638,o),
(431,614,o),
(417,595,c),
(435,599,o),
(451,595,o),
(466,580,cs),
(487,560,o),
(488,538,o),
(478,519,c),
(489,521,o),
(503,515,o),
(513,505,cs),
(543,475,o),
(535,440,o),
(509,414,cs),
(405,310,ls),
(310,215,o),
(199,203,o),
(122,281,cs),
(25,378,o),
(52,491,o),
(137,577,cs)
);
},
{
closed = 1;
nodes = (
(215,714,o),
(209,751,o),
(198,791,cs),
(190,821,o),
(195,840,o),
(216,850,cs),
(240,862,o),
(262,851,o),
(273,829,cs),
(303,766,l),
(215,677,l)
);
},
{
closed = 1;
nodes = (
(388,855,o),
(423,898,o),
(423,948,cs),
(423,973,o),
(409,998,o),
(376,998,cs),
(357,998,o),
(341,989,o),
(332,971,c),
(323,989,o),
(307,998,o),
(288,998,cs),
(255,998,o),
(241,973,o),
(241,948,cs),
(241,898,o),
(276,855,o),
(332,828,c)
);
}
);
width = 592;
}
);
unicode = 57438;
},
{
glyphname = hope;
lastChange = "2025-11-11 09:33:05 +0000";
layers = (
{
background = {
shapes = (
{
closed = 1;
nodes = (
(399,908,o),
(383,920,o),
(358,922,c),
(366,940,o),
(375,948,o),
(394,948,cs),
(420,948,o),
(444,931,o),
(434,894,cs),
(419,839,l),
(409,873,ls)
);
},
{
closed = 1;
nodes = (
(239,715,ls),
(234,742,o),
(223,758,o),
(198,758,cs),
(172,758,o),
(152,742,o),
(155,715,cs),
(170,590,ls),
(174,559,o),
(186,547,o),
(209,547,cs),
(214,547,o),
(216,546,o),
(216,540,cs),
(216,537,o),
(213,536,o),
(207,536,cs),
(176,536,o),
(157,551,o),
(153,588,cs),
(141,694,ls),
(138,721,o),
(128,738,o),
(101,738,cs),
(77,738,o),
(57,721,o),
(60,694,cs),
(72,590,ls),
(76,559,o),
(88,547,o),
(111,547,cs),
(115,547,o),
(118,546,o),
(118,540,cs),
(118,537,o),
(114,536,o),
(109,536,cs),
(93,536,o),
(81,538,o),
(72,546,c),
(72,461,ls),
(72,315,o),
(153,256,o),
(263,256,cs),
(411,256,o),
(490,361,o),
(490,477,cs),
(490,487,o),
(488,498,o),
(487,505,cs),
(479,556,ls),
(475,582,o),
(461,596,o),
(434,596,cs),
(290,596,ls),
(267,596,o),
(249,581,o),
(249,557,cs),
(249,533,o),
(267,516,o),
(290,516,cs),
(343,516,ls),
(357,516,o),
(369,510,o),
(369,495,cs),
(369,482,o),
(363,476,o),
(344,459,cs),
(297,420,o),
(281,376,o),
(281,332,cs),
(281,322,o),
(282,310,o),
(284,304,cs),
(285,298,o),
(281,296,o),
(277,296,cs),
(273,296,o),
(269,297,o),
(268,304,cs),
(267,310,o),
(266,322,o),
(266,332,cs),
(266,376,o),
(282,427,o),
(329,466,cs),
(349,483,o),
(353,486,o),
(353,494,cs),
(353,499,o),
(350,503,o),
(343,503,cs),
(292,503,ls),
(257,503,o),
(233,524,o),
(233,557,cs),
(233,589,o),
(257,610,o),
(292,610,cs),
(443,610,ls),
(456,610,o),
(467,608,o),
(473,596,c),
(402,857,ls),
(392,895,o),
(377,913,o),
(352,913,cs),
(326,913,o),
(302,895,o),
(313,858,cs),
(375,651,ls),
(377,645,o),
(374,640,o),
(366,640,cs),
(360,640,o),
(357,645,o),
(359,651,cs),
(361,659,l),
(319,792,l),
(270,641,ls),
(268,635,o),
(267,630,o),
(261,630,cs),
(255,630,o),
(255,635,o),
(254,641,cs)
);
},
{
closed = 1;
nodes = (
(389,860,ls),
(379,896,o),
(370,913,o),
(344,913,cs),
(318,913,o),
(300,892,o),
(307,866,cs),
(362,660,l),
(417,660,ls),
(429,660,o),
(442,657,o),
(446,656,c)
);
},
{
closed = 1;
nodes = (
(382,256,o),
(437,308,o),
(467,422,cs),
(490,508,ls),
(497,534,o),
(498,552,o),
(490,571,cs),
(476,609,ls),
(467,632,o),
(457,646,o),
(430,646,cs),
(290,646,ls),
(267,646,o),
(251,630,o),
(251,607,cs),
(251,585,o),
(267,568,o),
(290,568,cs),
(341,568,ls),
(355,568,o),
(368,562,o),
(368,547,cs),
(368,535,o),
(364,524,o),
(343,513,cs),
(296,489,o),
(281,446,o),
(281,380,cs),
(281,355,o),
(284,324,o),
(291,303,cs),
(293,298,o),
(291,295,o),
(285,295,cs),
(280,295,o),
(277,298,o),
(276,303,cs),
(269,331,o),
(265,357,o),
(265,380,cs),
(265,446,o),
(282,480,o),
(329,519,cs),
(348,536,o),
(352,538,o),
(352,546,cs),
(352,552,o),
(349,555,o),
(341,555,cs),
(288,555,ls),
(255,555,o),
(235,581,o),
(235,609,cs),
(235,626,o),
(243,640,o),
(252,647,c),
(239,713,ls),
(234,740,o),
(223,758,o),
(198,758,cs),
(172,758,o),
(152,741,o),
(155,713,cs),
(168,593,ls),
(172,560,o),
(184,548,o),
(208,548,cs),
(212,548,o),
(214,547,o),
(214,543,cs),
(214,537,o),
(211,536,o),
(205,536,cs),
(173,536,o),
(157,553,o),
(153,589,cs),
(141,694,ls),
(138,721,o),
(125,738,o),
(101,738,cs),
(76,738,o),
(57,721,o),
(60,694,cs),
(72,593,ls),
(76,560,o),
(87,548,o),
(112,548,cs),
(116,548,o),
(118,547,o),
(118,543,cs),
(118,537,o),
(114,536,o),
(109,536,cs),
(94,536,o),
(80,539,o),
(72,547,c),
(72,470,ls),
(72,326,o),
(153,256,o),
(272,256,cs)
);
},
{
closed = 1;
nodes = (
(431,900,ls),
(440,927,o),
(420,948,o),
(393,948,cs),
(377,948,o),
(367,940,o),
(358,922,c),
(376,920,o),
(394,905,o),
(404,866,cs),
(411,839,l)
);
},
{
closed = 0;
nodes = (
(347,888,l),
(267,655,l),
(273,657,o),
(284,660,o),
(296,660,cs),
(350,660,l),
(397,800,l)
);
}
);
};
layerId = m01;
shapes = (
{
closed = 1;
nodes = (
(273,657,o),
(284,660,o),
(296,660,cs),
(350,660,l),
(316,783,l),
(267,655,l)
);
},
{
closed = 1;
nodes = (
(392,860,ls),
(382,896,o),
(373,913,o),
(347,913,cs),
(321,913,o),
(303,892,o),
(310,866,cs),
(367,660,l),
(420,660,ls),
(432,660,o),
(445,657,o),
(449,656,c)
);
},
{
closed = 1;
nodes = (
(434,900,ls),
(442,927,o),
(423,948,o),
(396,948,cs),
(380,948,o),
(370,941,o),
(362,923,c),
(380,921,o),
(394,913,o),
(405,874,cs),
(415,837,l)
);
},
{
closed = 1;
nodes = (
(239,711,ls),
(234,738,o),
(223,756,o),
(198,756,cs),
(172,756,o),
(152,739,o),
(155,711,cs),
(168,591,ls),
(172,558,o),
(184,546,o),
(207,546,cs),
(212,546,o),
(214,543,o),
(214,539,cs),
(214,533,o),
(211,530,o),
(205,530,cs),
(173,530,o),
(157,551,o),
(153,587,cs),
(141,692,ls),
(138,719,o),
(125,736,o),
(101,736,cs),
(76,736,o),
(57,719,o),
(60,692,cs),
(72,591,ls),
(76,557,o),
(87,546,o),
(112,546,cs),
(116,546,o),
(121,545,o),
(121,539,cs),
(121,531,o),
(114,530,o),
(109,530,cs),
(94,530,o),
(80,537,o),
(72,545,c),
(72,454,ls),
(72,323,o),
(153,253,o),
(272,253,cs),
(382,253,o),
(437,305,o),
(467,419,cs),
(490,506,ls),
(497,532,o),
(498,550,o),
(490,569,cs),
(476,607,ls),
(467,630,o),
(457,644,o),
(430,644,cs),
(290,644,ls),
(267,644,o),
(251,628,o),
(251,605,cs),
(251,583,o),
(267,566,o),
(290,566,cs),
(341,566,ls),
(355,566,o),
(368,560,o),
(368,545,cs),
(368,533,o),
(362,525,o),
(349,515,cs),
(294,472,o),
(281,443,o),
(281,377,cs),
(281,352,o),
(285,325,o),
(292,304,cs),
(294,299,o),
(291,292,o),
(285,292,cs),
(280,292,o),
(277,295,o),
(276,300,cs),
(269,328,o),
(265,354,o),
(265,377,cs),
(265,439,o),
(274,468,o),
(324,515,cs),
(343,532,o),
(352,537,o),
(352,544,cs),
(352,547,o),
(351,550,o),
(345,550,cs),
(288,550,ls),
(255,550,o),
(235,579,o),
(235,607,cs),
(235,624,o),
(243,638,o),
(252,646,c)
);
}
);
width = 556;
}
);
unicode = 57439;
},
{
glyphname = hurt;
lastChange = "2025-11-11 09:32:51 +0000";
layers = (
{
layerId = m01;
shapes = (
{
closed = 1;
nodes = (
(300,398,ls),
(300,388,o),
(294,382,o),
(284,382,cs),
(227,382,ls),
(217,382,o),
(211,388,o),
(211,398,cs),
(211,454,l),
(155,454,ls),
(145,454,o),
(139,460,o),
(139,470,cs),
(139,527,ls),
(139,537,o),
(145,543,o),
(155,543,cs),
(211,543,l),
(211,598,ls),
(211,608,o),
(217,614,o),
(227,614,cs),
(284,614,ls),
(294,614,o),
(300,608,o),
(300,598,cs),
(300,543,l),
(355,543,ls),
(365,543,o),
(371,537,o),
(371,527,cs),
(371,470,ls),
(371,460,o),
(365,454,o),
(355,454,cs),
(300,454,l)
);
},
{
closed = 1;
nodes = (
(163,527,ls),
(158,527,o),
(155,524,o),
(155,519,cs),
(155,478,ls),
(155,473,o),
(158,470,o),
(163,470,cs),
(211,470,l),
(211,527,l)
);
},
{
closed = 1;
nodes = (
(167,505,o),
(165,507,o),
(165,510,cs),
(165,513,o),
(167,515,o),
(170,515,cs),
(173,515,o),
(175,513,o),
(175,510,cs),
(175,507,o),
(173,505,o),
(170,505,cs)
);
},
{
closed = 1;
nodes = (
(193,505,o),
(191,507,o),
(191,510,cs),
(191,513,o),
(193,515,o),
(196,515,cs),
(199,515,o),
(201,513,o),
(201,510,cs),
(201,507,o),
(199,505,o),
(196,505,cs)
);
},
{
closed = 1;
nodes = (
(167,482,o),
(165,484,o),
(165,487,cs),
(165,490,o),
(167,492,o),
(170,492,cs),
(173,492,o),
(175,490,o),
(175,487,cs),
(175,484,o),
(173,482,o),
(170,482,cs)
);
},
{
closed = 1;
nodes = (
(193,482,o),
(191,484,o),
(191,487,cs),
(191,490,o),
(193,492,o),
(196,492,cs),
(199,492,o),
(201,490,o),
(201,487,cs),
(201,484,o),
(199,482,o),
(196,482,cs)
);
},
{
closed = 1;
nodes = (
(180,493,o),
(178,495,o),
(178,498,cs),
(178,501,o),
(180,503,o),
(183,503,cs),
(186,503,o),
(188,501,o),
(188,498,cs),
(188,495,o),
(186,493,o),
(183,493,cs)
);
},
{
closed = 1;
nodes = (
(337,505,o),
(335,507,o),
(335,510,cs),
(335,513,o),
(337,515,o),
(340,515,cs),
(343,515,o),
(345,513,o),
(345,510,cs),
(345,507,o),
(343,505,o),
(340,505,cs)
);
},
{
closed = 1;
nodes = (
(311,505,o),
(309,507,o),
(309,510,cs),
(309,513,o),
(311,515,o),
(314,515,cs),
(317,515,o),
(319,513,o),
(319,510,cs),
(319,507,o),
(317,505,o),
(314,505,cs)
);
},
{
closed = 1;
nodes = (
(337,482,o),
(335,484,o),
(335,487,cs),
(335,490,o),
(337,492,o),
(340,492,cs),
(343,492,o),
(345,490,o),
(345,487,cs),
(345,484,o),
(343,482,o),
(340,482,cs)
);
},
{
closed = 1;
nodes = (
(311,482,o),
(309,484,o),
(309,487,cs),
(309,490,o),
(311,492,o),
(314,492,cs),
(317,492,o),
(319,490,o),
(319,487,cs),
(319,484,o),
(317,482,o),
(314,482,cs)
);
},
{
closed = 1;
nodes = (
(324,493,o),
(322,495,o),
(322,498,cs),
(322,501,o),
(324,503,o),
(327,503,cs),
(330,503,o),
(332,501,o),
(332,498,cs),
(332,495,o),
(330,493,o),
(327,493,cs)
);
},
{
closed = 1;
nodes = (
(227,590,ls),
(227,595,o),
(230,598,o),
(235,598,cs),
(276,598,ls),
(281,598,o),
(284,595,o),
(284,590,cs),
(284,406,ls),
(284,401,o),
(281,398,o),
(276,398,cs),
(235,398,ls),
(230,398,o),
(227,401,o),
(227,406,cs)
);
},
{
closed = 1;
nodes = (
(262,577,o),
(264,575,o),
(267,575,cs),
(270,575,o),
(272,577,o),
(272,580,cs),
(272,583,o),
(270,585,o),
(267,585,cs),
(264,585,o),
(262,583,o),
(262,580,cs)
);
},
{
closed = 1;
nodes = (
(262,551,o),
(264,549,o),
(267,549,cs),
(270,549,o),
(272,551,o),
(272,554,cs),
(272,557,o),
(270,559,o),
(267,559,cs),
(264,559,o),
(262,557,o),
(262,554,cs)
);
},
{
closed = 1;
nodes = (
(239,577,o),
(241,575,o),
(244,575,cs),
(247,575,o),
(249,577,o),
(249,580,cs),
(249,583,o),
(247,585,o),
(244,585,cs),
(241,585,o),
(239,583,o),
(239,580,cs)
);
},
{
closed = 1;
nodes = (
(239,551,o),
(241,549,o),
(244,549,cs),
(247,549,o),
(249,551,o),
(249,554,cs),
(249,557,o),
(247,559,o),
(244,559,cs),
(241,559,o),
(239,557,o),
(239,554,cs)
);
},
{
closed = 1;
nodes = (
(250,564,o),
(252,562,o),
(255,562,cs),
(258,562,o),
(260,564,o),
(260,567,cs),
(260,570,o),
(258,572,o),
(255,572,cs),
(252,572,o),
(250,570,o),
(250,567,cs)
);
},
{
closed = 1;
nodes = (
(262,413,o),
(264,411,o),
(267,411,cs),
(270,411,o),
(272,413,o),
(272,416,cs),
(272,419,o),
(270,421,o),
(267,421,cs),
(264,421,o),
(262,419,o),
(262,416,cs)
);
},
{
closed = 1;
nodes = (
(262,439,o),
(264,437,o),
(267,437,cs),
(270,437,o),
(272,439,o),
(272,442,cs),
(272,445,o),
(270,447,o),
(267,447,cs),
(264,447,o),
(262,445,o),
(262,442,cs)
);
},
{
closed = 1;
nodes = (
(239,413,o),
(241,411,o),
(244,411,cs),
(247,411,o),
(249,413,o),
(249,416,cs),
(249,419,o),
(247,421,o),
(244,421,cs),
(241,421,o),
(239,419,o),
(239,416,cs)
);
},
{
closed = 1;
nodes = (
(239,439,o),
(241,437,o),
(244,437,cs),
(247,437,o),
(249,439,o),
(249,442,cs),
(249,445,o),
(247,447,o),
(244,447,cs),
(241,447,o),
(239,445,o),
(239,442,cs)
);
},
{
closed = 1;
nodes = (
(250,426,o),
(252,424,o),
(255,424,cs),
(258,424,o),
(260,426,o),
(260,429,cs),
(260,432,o),
(258,434,o),
(255,434,cs),
(252,434,o),
(250,432,o),
(250,429,cs)
);
},
{
closed = 1;
nodes = (
(347,470,ls),
(352,470,o),
(355,473,o),
(355,478,cs),
(355,519,ls),
(355,524,o),
(352,527,o),
(347,527,cs),
(300,527,l),
(300,470,l)
);
},
{
angle = 135;
locked = 1;
pos = (228,-95);
ref = BackHand_Base;
scale = (1,-1);
}
);
width = 758;
}
);
unicode = 57441;
},
{
glyphname = joy;
lastChange = "2025-11-11 09:32:45 +0000";
layers = (
{
layerId = m01;
shapes = (
{
closed = 1;
nodes = (
(606,874,o),
(531,853,o),
(466,812,cs),
(454,804,o),
(463,791,o),
(474,798,cs),
(537,839,o),
(609,858,o),
(680,858,cs),
(751,858,o),
(823,839,o),
(886,798,cs),
(897,791,o),
(906,804,o),
(894,812,cs),
(829,853,o),
(754,874,o),
(680,874,cs)
);
},
{
closed = 1;
nodes = (
(774,964,o),
(870,934,o),
(948,882,cs),
(960,874,o),
(951,861,o),
(940,868,cs),
(862,917,o),
(771,948,o),
(680,948,cs),
(589,948,o),
(498,917,o),
(420,868,cs),
(409,861,o),
(400,874,o),
(412,882,cs),
(490,934,o),
(586,964,o),
(680,964,cs)
);
},
{
closed = 1;
nodes = (
(814,1054,o),
(932,1000,o),
(1016,944,cs),
(1028,936,o),
(1019,922,o),
(1007,930,cs),
(923,987,o),
(811,1038,o),
(680,1038,cs),
(549,1038,o),
(437,987,o),
(353,930,cs),
(341,922,o),
(332,936,o),
(344,944,cs),
(428,1000,o),
(546,1054,o),
(680,1054,cs)
);
},
{
angle = -24.1;
pos = (416,108);
ref = BackHand_Base;
},
{
angle = -155;
pos = (933,108);
ref = BackHand_Base;
scale = (1,-1);
}
);
width = 1341;
}
);
unicode = 57442;
},
{
glyphname = liberation;
lastChange = "2025-11-11 09:32:33 +0000";
layers = (
{
layerId = m01;
shapes = (
{
closed = 1;
nodes = (
(666,451,o),
(682,437,o),
(710,431,cs),
(795,414,o),
(843,401,o),
(913,326,cs),
(955,281,o),
(1004,254,o),
(1075,254,cs),
(1184,254,o),
(1264,326,o),
(1264,468,cs),
(1264,763,ls),
(1264,791,o),
(1247,808,o),
(1221,808,cs),
(1195,808,o),
(1179,791,o),
(1179,763,cs),
(1179,610,ls),
(1179,603,o),
(1176,599,o),
(1171,599,cs),
(1165,599,o),
(1163,602,o),
(1163,610,cs),
(1163,875,ls),
(1163,903,o),
(1147,920,o),
(1121,920,cs),
(1095,920,o),
(1078,903,o),
(1078,875,cs),
(1078,610,ls),
(1078,602,o),
(1076,599,o),
(1071,599,cs),
(1065,599,o),
(1062,602,o),
(1062,610,cs),
(1062,901,ls),
(1062,929,o),
(1046,946,o),
(1020,946,cs),
(994,946,o),
(977,929,o),
(977,901,cs),
(977,610,ls),
(977,603,o),
(974,599,o),
(969,599,cs),
(963,599,o),
(961,602,o),
(961,610,cs),
(961,715,ls),
(961,743,o),
(945,760,o),
(919,760,cs),
(893,760,o),
(876,743,o),
(876,715,cs),
(876,474,ls),
(876,468,o),
(872,465,o),
(868,465,cs),
(864,465,o),
(860,468,o),
(860,474,cs),
(860,504,l),
(812,510,o),
(767,516,o),
(715,516,cs),
(685,516,o),
(668,503,o),
(667,478,cs)
);
},
{
closed = 1;
nodes = (
(60,763,ls),
(60,791,o),
(77,808,o),
(103,808,cs),
(129,808,o),
(145,791,o),
(145,763,cs),
(145,610,ls),
(145,603,o),
(148,599,o),
(153,599,cs),
(159,599,o),
(161,602,o),
(161,610,cs),
(161,875,ls),
(161,903,o),
(177,920,o),
(203,920,cs),
(229,920,o),
(246,903,o),
(246,875,cs),
(246,610,ls),
(246,602,o),
(248,599,o),
(253,599,cs),
(259,599,o),
(262,602,o),
(262,610,cs),
(262,901,ls),
(262,929,o),
(278,946,o),
(304,946,cs),
(330,946,o),
(347,929,o),
(347,901,cs),
(347,610,ls),
(347,603,o),
(350,599,o),
(355,599,cs),
(361,599,o),
(363,602,o),
(363,610,cs),
(363,715,ls),
(363,743,o),
(379,760,o),
(405,760,cs),
(431,760,o),
(448,743,o),
(448,715,cs),
(448,474,ls),
(448,468,o),
(452,465,o),
(456,465,cs),
(460,465,o),
(464,468,o),
(464,474,cs),
(464,504,l),
(512,510,o),
(557,516,o),
(609,516,cs),
(639,516,o),
(656,503,o),
(657,478,cs),
(658,451,o),
(642,437,o),
(614,431,cs),
(529,414,o),
(481,401,o),
(411,326,cs),
(369,281,o),
(320,254,o),
(249,254,cs),
(140,254,o),
(60,326,o),
(60,468,cs)
);
}
);
width = 1324;
}
);
unicode = 57443;
},
{
glyphname = love;
lastChange = "2025-11-11 09:37:03 +0000";
layers = (
{
background = {
shapes = (
{
closed = 1;
nodes = (
(672,757,o),
(728,814,o),
(728,890,cs),
(728,969,o),
(648,1069,o),
(598,1120,c),
(548,1069,o),
(467,969,o),
(467,890,cs),
(467,814,o),
(523,757,o),
(598,757,cs)
);
}
);
};
guides = (
{
angle = 90;
pos = (596,903);
}
);
layerId = m01;
shapes = (
{
closed = 1;
nodes = (
(738,811,o),
(807,895,o),
(807,993,cs),
(807,1042,o),
(779,1090,o),
(716,1090,cs),
(677,1090,o),
(646,1072,o),
(629,1037,c),
(612,1072,o),
(581,1090,o),
(542,1090,cs),
(479,1090,o),
(451,1042,o),
(451,993,cs),
(451,895,o),
(520,811,o),
(629,758,c)
);
},
{
pos = (0,-145);
ref = five_us_china;
},
{
pos = (1259,-145);
ref = five_us_china;
scale = (-1,1);
}
);
width = 1259;
}
);
production = uniE064;
unicode = 57444;
},
{
glyphname = luck_germany;
lastChange = "2025-11-11 09:32:14 +0000";
layers = (
{
layerId = m01;
shapes = (
{
closed = 1;
nodes = (
(278,861,ls),
(264,876,o),
(252,882,o),
(236,882,cs),
(222,882,o),
(207,873,o),
(196,861,cs),
(176,839,l),
(111,815,ls),
(95,809,o),
(83,803,o),
(83,785,cs),
(83,763,l),
(114,779,l),
(74,769,o),
(60,749,o),
(60,721,cs),
(60,692,o),
(72,669,o),
(82,647,cs),
(106,592,o),
(158,507,o),
(158,473,cs),
(158,465,o),
(156,445,o),
(141,399,cs),
(140,396,o),
(140,393,o),
(140,389,cs),
(140,349,o),
(203,318,o),
(254,318,cs),
(284,318,o),
(311,328,o),
(323,346,cs),
(350,393,o),
(366,435,o),
(366,475,cs),
(366,538,o),
(348,604,o),
(279,638,c),
(279,730,ls),
(279,758,o),
(260,775,o),
(236,775,cs),
(212,775,o),
(194,758,o),
(194,730,cs),
(194,647,ls),
(194,641,o),
(190,638,o),
(186,638,cs),
(182,638,o),
(178,641,o),
(178,647,c),
(178,730,ls),
(178,767,o),
(203,791,o),
(236,791,cs),
(269,791,o),
(296,764,o),
(296,729,cs),
(296,666,ls),
(296,620,o),
(364,619,o),
(370,665,cs),
(379,738,ls),
(381,758,o),
(367,770,o),
(345,792,cs)
);
},
{
closed = 1;
nodes = (
(355,804,l),
(355,832,ls),
(355,850,o),
(342,854,o),
(323,858,cs),
(299,863,l)
);
},
{
closed = 1;
nodes = (
(454,770,o),
(440,758,o),
(442,738,cs),
(451,665,ls),
(457,619,o),
(525,620,o),
(525,666,cs),
(525,729,ls),
(525,764,o),
(552,791,o),
(585,791,cs),
(618,791,o),
(643,767,o),
(643,730,cs),
(643,647,l),
(643,641,o),
(639,638,o),
(635,638,cs),
(631,638,o),
(627,641,o),
(627,647,cs),
(627,730,ls),
(627,758,o),
(609,775,o),
(585,775,cs),
(561,775,o),
(542,758,o),
(542,730,cs),
(542,638,l),
(473,604,o),
(455,538,o),
(455,475,cs),
(455,435,o),
(471,393,o),
(498,346,cs),
(510,328,o),
(537,318,o),
(567,318,cs),
(618,318,o),
(681,349,o),
(681,389,cs),
(681,393,o),
(681,396,o),
(680,399,cs),
(665,445,o),
(663,465,o),
(663,473,cs),
(663,507,o),
(715,592,o),
(739,647,cs),
(749,669,o),
(761,692,o),
(761,721,cs),
(761,749,o),
(747,769,o),
(707,779,c),
(738,763,l),
(738,785,ls),
(738,803,o),
(726,809,o),
(710,815,cs),
(645,839,l),
(625,861,ls),
(614,873,o),
(599,882,o),
(585,882,cs),
(569,882,o),
(557,876,o),
(543,861,cs),
(476,792,ls)
);
},
{
closed = 1;
nodes = (
(498,858,ls),
(479,854,o),
(466,850,o),
(466,832,cs),
(466,804,l),
(522,863,l)
);
}
);
width = 821;
}
);
unicode = 57446;
},
{
glyphname = pain;
lastChange = "2025-11-11 09:32:02 +0000";
layers = (
{
background = {
shapes = (
{
closed = 1;
nodes = (
(602,335,o),
(659,362,o),
(710,458,cs),
(759,550,o),
(803,591,o),
(842,630,cs),
(853,641,o),
(858,652,o),
(858,666,cs),
(858,691,o),
(839,708,o),
(816,708,cs),
(805,708,o),
(793,703,o),
(783,693,cs),
(710,624,l),
(609,609,o),
(555,572,o),
(555,491,cs),
(555,464,o),
(560,437,o),
(571,410,cs),
(573,405,o),
(570,400,o),
(565,400,cs),
(560,400,o),
(557,403,o),
(554,410,cs),
(545,435,o),
(539,467,o),
(539,490,cs),
(539,581,o),
(601,626,o),
(711,640,c),
(711,936,ls),
(711,964,o),
(694,981,o),
(668,981,cs),
(641,981,o),
(625,964,o),
(625,936,cs),
(625,690,ls),
(625,682,o),
(623,679,o),
(617,679,cs),
(612,679,o),
(609,683,o),
(609,690,cs),
(609,982,ls),
(609,1009,o),
(591,1027,o),
(567,1027,cs),
(541,1027,o),
(524,1010,o),
(524,982,cs),
(524,690,ls),
(524,682,o),
(521,679,o),
(515,679,cs),
(510,679,o),
(508,682,o),
(508,690,cs),
(508,955,ls),
(508,983,o),
(491,1000,o),
(465,1000,cs),
(439,1000,o),
(423,983,o),
(423,955,cs),
(423,690,ls),
(423,682,o),
(421,679,o),
(415,679,cs),
(410,679,o),
(407,683,o),
(407,690,cs),
(407,843,ls),
(407,871,o),
(391,888,o),
(365,888,cs),
(339,888,o),
(322,871,o),
(322,843,cs),
(322,498,l),
(391,557,ls),
(409,572,o),
(424,582,o),
(443,582,cs),
(459,582,o),
(473,575,o),
(485,561,cs),
(508,534,o),
(504,499,o),
(469,470,cs),
(373,392,l),
(413,349,o),
(463,335,o),
(515,335,cs)
);
}
);
};
layerId = m01;
shapes = (
{
closed = 1;
nodes = (
(402,545,ls),
(415,557,o),
(428,566,o),
(443,566,cs),
(455,566,o),
(465,561,o),
(473,551,cs),
(491,529,o),
(484,504,o),
(462,485,cs),
(362,402,l),
(355,360,ls),
(347,317,o),
(327,276,o),
(289,245,cs),
(262,221,o),
(219,217,o),
(173,205,cs),
(130,194,ls),
(63,177,o),
(34,339,o),
(89,355,cs),
(113,362,ls),
(175,380,o),
(203,450,o),
(230,503,cs),
(239,522,o),
(249,545,o),
(260,556,c),
(268,561,o),
(287,572,o),
(308,582,c),
(308,465,l)
);
},
{
closed = 1;
nodes = (
(196,600,l),
(151,612,ls),
(145,614,o),
(144,618,o),
(148,623,cs),
(211,694,ls),
(216,700,o),
(222,697,o),
(219,689,cs),
(204,633,l),
(249,621,ls),
(255,620,o),
(256,615,o),
(252,611,cs),
(189,540,l),
(184,533,o),
(178,536,o),
(181,544,cs)
);
},
{
closed = 1;
nodes = (
(406,240,l),
(361,252,ls),
(355,254,o),
(354,258,o),
(358,263,cs),
(421,334,ls),
(426,340,o),
(432,337,o),
(429,329,cs),
(414,273,l),
(459,261,ls),
(465,260,o),
(466,255,o),
(462,251,cs),
(399,180,l),
(394,173,o),
(388,176,o),
(391,184,cs)
);
},
{
closed = 1;
nodes = (
(409,353,o),
(458,335,o),
(515,335,cs),
(610,335,o),
(670,373,o),
(714,459,cs),
(762,552,o),
(809,606,o),
(847,644,cs),
(858,655,o),
(864,667,o),
(864,681,cs),
(864,706,o),
(846,723,o),
(821,723,cs),
(806,723,o),
(795,716,o),
(784,707,cs),
(755,683,o),
(737,655,o),
(710,625,c),
(609,610,o),
(555,573,o),
(555,492,cs),
(555,465,o),
(560,438,o),
(571,411,cs),
(573,406,o),
(570,401,o),
(565,401,cs),
(560,401,o),
(557,404,o),
(554,411,cs),
(545,436,o),
(539,468,o),
(539,491,cs),
(539,582,o),
(600,627,o),
(710,641,c),
(710,936,ls),
(710,964,o),
(693,981,o),
(667,981,cs),
(641,981,o),
(625,964,o),
(625,936,cs),
(625,692,ls),
(625,684,o),
(623,681,o),
(617,681,cs),
(612,681,o),
(609,685,o),
(609,692,cs),
(609,981,ls),
(609,1009,o),
(592,1026,o),
(566,1026,cs),
(540,1026,o),
(524,1009,o),
(524,981,cs),
(524,692,ls),
(524,684,o),
(521,681,o),
(515,681,cs),
(510,681,o),
(508,684,o),
(508,692,cs),
(508,955,ls),
(508,983,o),
(491,1000,o),
(465,1000,cs),
(439,1000,o),
(423,983,o),
(423,955,cs),
(423,692,ls),
(423,684,o),
(421,681,o),
(415,681,cs),
(410,681,o),
(407,685,o),
(407,692,cs),
(407,843,ls),
(407,871,o),
(391,888,o),
(365,888,cs),
(339,888,o),
(322,871,o),
(322,843,cs),
(322,498,l),
(391,557,ls),
(409,572,o),
(424,582,o),
(443,582,cs),
(459,582,o),
(473,575,o),
(485,561,cs),
(508,534,o),
(504,499,o),
(469,470,cs),
(373,392,l)
);
}
);
width = 924;
}
);
unicode = 57448;
},
{
glyphname = purity;
lastChange = "2025-11-11 09:31:57 +0000";
layers = (
{
layerId = m01;
shapes = (
{
closed = 1;
nodes = (
(406,768,o),
(403,771,o),
(403,776,cs),
(403,781,o),
(406,784,o),
(412,784,cs),
(494,778,l),
(425,865,ls),
(411,882,o),
(398,892,o),
(379,892,cs),
(364,892,o),
(342,886,o),
(310,877,cs),
(210,850,o),
(60,808,o),
(60,602,cs),
(60,461,o),
(175,400,o),
(275,391,cs),
(495,372,ls),
(524,369,o),
(542,385,o),
(544,411,cs),
(546,437,o),
(531,455,o),
(503,457,cs),
(438,462,ls),
(433,462,o),
(431,465,o),
(431,470,cs),
(432,475,o),
(435,478,o),
(440,478,cs),
(524,471,ls),
(552,469,o),
(570,483,o),
(573,509,cs),
(575,535,o),
(560,554,o),
(532,556,cs),
(447,562,ls),
(442,562,o),
(439,566,o),
(440,571,cs),
(440,576,o),
(444,578,o),
(449,578,cs),
(545,571,ls),
(573,569,o),
(591,583,o),
(594,609,cs),
(596,635,o),
(580,654,o),
(553,656,cs),
(456,663,ls),
(451,663,o),
(448,667,o),
(449,672,cs),
(449,677,o),
(452,679,o),
(457,679,cs),
(533,674,ls),
(561,672,o),
(579,685,o),
(581,711,cs),
(584,737,o),
(568,756,o),
(540,758,c),
(411,768,l)
);
},
{
closed = 1;
nodes = (
(646,457,o),
(647,448,o),
(650,433,cs),
(655,409,o),
(640,412,o),
(633,414,cs),
(556,440,l),
(568,395,o),
(550,355,o),
(498,357,c),
(514,336,ls),
(529,318,o),
(541,309,o),
(560,309,cs),
(575,309,o),
(597,315,o),
(629,324,cs),
(729,351,o),
(876,402,o),
(876,608,c),
(861,778,o),
(722,815,o),
(622,807,cs),
(504,798,l),
(519,776,l),
(581,776,o),
(601,744,o),
(597,708,cs),
(595,691,o),
(588,676,o),
(575,667,c),
(598,658,o),
(613,637,o),
(610,606,cs),
(607,578,o),
(592,565,o),
(571,558,c),
(583,547,o),
(591,529,o),
(589,509,cs),
(587,479,o),
(572,467,o),
(552,458,c),
(635,430,l),
(631,453,o),
(630,464,o),
(630,481,cs),
(630,548,o),
(670,608,o),
(740,608,cs),
(751,608,o),
(760,608,o),
(771,605,cs),
(780,603,o),
(782,601,o),
(782,596,cs),
(782,590,o),
(780,586,o),
(773,588,cs),
(763,591,o),
(752,592,o),
(741,592,cs),
(677,592,o),
(646,535,o),
(646,482,cs)
);
}
);
width = 936;
}
);
unicode = 57449;
},
{
glyphname = relief;
lastChange = "2025-11-11 09:31:50 +0000";
layers = (
{
layerId = m01;
name = Regular;
shapes = (
{
closed = 1;
nodes = (
(989,257,o),
(1018,261,o),
(1046,273,cs),
(1092,295,o),
(1136,350,o),
(1119,386,cs),
(1117,390,o),
(1116,392,o),
(1114,395,cs),
(1081,430,o),
(1071,447,o),
(1067,455,cs),
(1053,485,o),
(1012,586,o),
(1000,645,cs),
(988,704,o),
(942,728,o),
(895,758,cs),
(690,891,ls),
(666,906,o),
(647,911,o),
(629,895,cs),
(611,879,o),
(608,849,o),
(627,833,cs),
(803,689,l),
(813,570,l),
(661,603,ls),
(634,609,o),
(612,601,o),
(604,579,cs),
(596,556,o),
(604,531,o),
(632,523,cs),
(785,481,l),
(818,430,ls),
(844,389,o),
(886,358,o),
(925,328,c),
(971,270,l)
);
},
{
closed = 1;
nodes = (
(258,328,l),
(297,358,o),
(339,389,o),
(365,430,cs),
(398,481,l),
(551,523,ls),
(579,531,o),
(587,556,o),
(579,579,cs),
(571,601,o),
(549,609,o),
(522,603,cs),
(370,570,l),
(380,689,l),
(556,833,ls),
(575,849,o),
(572,879,o),
(554,895,cs),
(536,911,o),
(517,906,o),
(493,891,cs),
(288,758,ls),
(241,728,o),
(195,704,o),
(183,645,cs),
(171,586,o),
(130,485,o),
(116,455,cs),
(112,447,o),
(102,430,o),
(69,395,cs),
(67,392,o),
(66,390,o),
(64,386,cs),
(47,350,o),
(91,295,o),
(137,273,cs),
(165,261,o),
(194,257,o),
(212,270,c)
);
},
{
closed = 1;
nodes = (
(412,596,l),
(449,645,l),
(535,630,ls),
(570,624,o),
(588,642,o),
(588,667,cs),
(588,691,o),
(573,702,o),
(545,707,cs),
(449,725,l),
(396,681,l),
(388,590,l)
);
},
{
closed = 1;
nodes = (
(591,863,l),
(598,857,l),
(597,870,o),
(600,889,o),
(613,902,cs),
(626,916,o),
(640,923,o),
(653,922,c),
(649,925,ls),
(630,940,o),
(607,944,o),
(591,935,c),
(575,944,o),
(552,940,o),
(533,925,cs),
(529,922,l),
(542,923,o),
(556,916,o),
(569,902,cs),
(582,889,o),
(585,870,o),
(584,857,c)
);
},
{
closed = 1;
nodes = (
(787,681,l),
(734,725,l),
(638,707,ls),
(610,702,o),
(595,691,o),
(595,667,cs),
(595,642,o),
(613,624,o),
(648,630,cs),
(734,645,l),
(771,596,l),
(795,590,l)
);
}
);
width = 1183;
}
);
unicode = 57450;
},
{
glyphname = serenity;
lastChange = "2025-11-11 09:31:44 +0000";
layers = (
{
layerId = m01;
shapes = (
{
closed = 1;
nodes = (
(565,593,l),
(574,608,o),
(591,615,o),
(612,610,cs),
(627,607,l)
);
},
{
closed = 1;
nodes = (
(467,898,o),
(412,820,o),
(403,723,cs),
(403,718,o),
(400,715,o),
(396,715,cs),
(390,715,o),
(388,719,o),
(388,724,cs),
(396,830,o),
(461,914,o),
(596,914,cs),
(731,914,o),
(796,830,o),
(804,724,cs),
(805,719,o),
(801,715,o),
(796,715,cs),
(791,715,o),
(789,719,o),
(788,724,cs),
(779,821,o),
(725,898,o),
(596,898,cs)
);
},
{
closed = 1;
nodes = (
(433,980,o),
(351,873,o),
(332,723,cs),
(331,718,o),
(328,715,o),
(324,715,cs),
(319,715,o),
(315,719,o),
(316,725,cs),
(337,886,o),
(424,996,o),
(596,996,cs),
(768,996,o),
(855,885,o),
(876,724,cs),
(877,718,o),
(874,715,o),
(869,715,cs),
(864,715,o),
(861,718,o),
(860,723,cs),
(841,873,o),
(759,980,o),
(596,980,cs)
);
},
{
closed = 1;
nodes = (
(798,1078,o),
(923,955,o),
(948,725,cs),
(949,719,o),
(946,715,o),
(941,715,cs),
(936,715,o),
(933,718,o),
(932,723,cs),
(908,935,o),
(799,1062,o),
(596,1062,cs),
(393,1062,o),
(284,936,o),
(260,724,cs),
(259,719,o),
(256,715,o),
(251,715,cs),
(246,715,o),
(243,719,o),
(244,725,cs),
(269,956,o),
(393,1078,o),
(596,1078,cs)
);
},
{
angle = 12;
pos = (128,-280);
ref = straight;
},
{
closed = 1;
nodes = (
(922,543,o),
(926,545,o),
(927,550,cs),
(928,555,o),
(925,558,o),
(920,559,cs),
(816,582,ls),
(788,587,o),
(775,606,o),
(780,628,cs),
(784,651,o),
(804,663,o),
(832,657,cs),
(873,648,ls),
(1047,611,o),
(1209,518,o),
(1167,318,cs),
(1141,198,o),
(1039,121,o),
(891,153,cs),
(659,203,l),
(677,243,o),
(659,273,o),
(640,283,c),
(665,288,l),
(788,262,ls),
(793,261,o),
(797,264,o),
(798,268,cs),
(799,273,o),
(796,277,o),
(792,278,cs),
(703,296,l),
(739,304,o),
(759,324,o),
(753,373,c),
(809,361,ls),
(814,360,o),
(818,362,o),
(819,367,cs),
(820,372,o),
(817,376,o),
(813,377,cs),
(743,391,l),
(738,398,o),
(733,402,o),
(725,406,c),
(761,420,o),
(762,452,o),
(757,475,c),
(830,460,ls),
(835,459,o),
(839,461,o),
(840,466,cs),
(841,471,o),
(838,474,o),
(834,475,cs),
(750,492,l),
(739,512,o),
(715,522,o),
(684,516,c),
(703,544,o),
(695,586,o),
(670,597,c),
(917,544,ls)
);
}
);
width = 1234;
}
);
unicode = 57451;
},
{
glyphname = shock;
lastChange = "2025-11-11 09:31:33 +0000";
layers = (
{
layerId = m01;
shapes = (
{
closed = 1;
nodes = (
(722,506,o),
(748,493,o),
(765,482,c),
(832,550,ls),
(845,563,o),
(857,571,o),
(872,572,cs),
(878,572,o),
(885,570,o),
(892,567,c),
(999,674,ls),
(1008,684,o),
(1013,695,o),
(1013,705,cs),
(1013,729,o),
(993,749,o),
(971,749,cs),
(959,749,o),
(948,744,o),
(938,734,cs),
(765,560,ls),
(761,556,o),
(759,556,o),
(757,556,cs),
(751,556,o),
(749,560,o),
(749,564,cs),
(749,566,o),
(750,568,o),
(753,571,cs),
(959,777,ls),
(969,787,o),
(974,799,o),
(974,812,cs),
(974,831,o),
(953,853,o),
(933,853,cs),
(920,853,o),
(909,847,o),
(899,837,cs),
(680,619,l),
(702,575,o),
(704,556,o),
(705,514,c)
);
},
{
closed = 1;
nodes = (
(562,756,o),
(588,732,o),
(608,711,c),
(719,823,ls),
(729,833,o),
(734,845,o),
(734,856,cs),
(734,878,o),
(711,898,o),
(689,898,cs),
(678,897,o),
(668,893,o),
(658,883,cs),
(546,770,l)
);
},
{
closed = 1;
nodes = (
(638,680,o),
(657,659,o),
(672,633,c),
(869,830,ls),
(879,840,o),
(884,852,o),
(884,863,cs),
(884,885,o),
(864,906,o),
(842,906,cs),
(831,906,o),
(819,900,o),
(809,890,cs),
(619,700,l)
);
},
{
closed = 1;
nodes = (
(903,481,ls),
(913,491,o),
(918,502,o),
(918,513,cs),
(918,537,o),
(897,557,o),
(875,557,cs),
(864,557,o),
(853,551,o),
(843,541,cs),
(774,472,ls),
(770,468,o),
(767,467,o),
(764,467,cs),
(761,467,o),
(757,469,o),
(753,472,cs),
(741,480,o),
(718,492,o),
(704,498,c),
(691,418,o),
(643,354,o),
(559,301,c),
(577,296,o),
(594,294,o),
(611,294,cs),
(687,294,o),
(757,335,o),
(817,395,cs)
);
},
{
angle = -135;
pos = (997,386);
ref = pause;
scale = (1,-1);
}
);
width = 1073;
}
);
unicode = 57452;
},
{
glyphname = stress;
lastChange = "2025-11-11 09:30:46 +0000";
layers = (
{
layerId = m01;
shapes = (
{
closed = 1;
nodes = (
(166,298,o),
(175,301,o),
(185,305,cs),
(256,331,o),
(334,368,o),
(389,404,cs),
(441,438,o),
(476,478,o),
(476,525,cs),
(476,538,o),
(474,548,o),
(471,563,cs),
(441,706,ls),
(438,721,o),
(433,734,o),
(424,742,c),
(424,507,ls),
(424,499,o),
(422,496,o),
(417,496,cs),
(411,496,o),
(408,499,o),
(408,507,cs),
(408,782,ls),
(408,806,o),
(397,822,o),
(370,825,c),
(354,508,ls),
(353,500,o),
(351,497,o),
(346,497,cs),
(340,497,o),
(337,501,o),
(338,509,cs),
(353,809,ls),
(354,835,o),
(338,847,o),
(316,847,cs),
(296,847,o),
(277,838,o),
(275,809,cs),
(252,507,ls),
(251,499,o),
(250,496,o),
(245,496,cs),
(239,496,o),
(235,499,o),
(236,507,cs),
(260,820,l),
(234,819,o),
(215,803,o),
(209,776,cs),
(159,546,ls),
(156,530,o),
(154,518,o),
(154,502,cs),
(154,482,o),
(159,470,o),
(172,456,cs),
(186,441,o),
(201,429,o),
(234,414,cs),
(240,411,o),
(241,409,o),
(241,405,cs),
(241,401,o),
(239,399,o),
(235,399,cs),
(229,399,o),
(219,404,o),
(209,410,cs),
(185,423,o),
(175,431,o),
(162,444,cs),
(146,460,o),
(138,483,o),
(138,499,cs),
(138,508,o),
(139,516,o),
(140,520,c),
(106,520,ls),
(83,520,o),
(78,517,o),
(75,514,cs),
(65,504,o),
(60,483,o),
(60,459,cs),
(60,402,o),
(74,364,o),
(93,337,cs),
(110,313,o),
(134,298,o),
(156,298,c)
);
},
{
closed = 1;
nodes = (
(1001,368,o),
(1026,386,o),
(1040,412,cs),
(1054,437,o),
(1064,468,o),
(1063,512,c),
(1063,534,o),
(1061,575,o),
(1042,590,cs),
(1040,592,o),
(1036,594,o),
(1026,594,cs),
(1022,594,o),
(1017,594,o),
(1011,593,cs),
(977,590,l),
(980,581,o),
(981,575,o),
(981,566,cs),
(981,550,o),
(975,529,o),
(962,513,cs),
(950,499,o),
(941,490,o),
(918,475,cs),
(908,468,o),
(899,462,o),
(893,462,cs),
(889,462,o),
(886,464,o),
(886,468,cs),
(886,472,o),
(887,473,o),
(893,477,cs),
(924,494,o),
(938,508,o),
(951,524,cs),
(962,537,o),
(965,548,o),
(965,564,cs),
(965,580,o),
(962,595,o),
(956,615,cs),
(886,839,ls),
(878,866,o),
(858,879,o),
(831,879,c),
(883,569,ls),
(884,561,o),
(881,557,o),
(875,557,cs),
(870,557,o),
(868,560,o),
(867,568,cs),
(817,866,ls),
(813,892,o),
(796,901,o),
(778,901,cs),
(752,901,o),
(736,887,o),
(740,860,cs),
(781,562,ls),
(782,554,o),
(780,549,o),
(774,549,cs),
(769,549,o),
(767,552,o),
(765,560,cs),
(721,874,l),
(695,869,o),
(685,852,o),
(687,828,cs),
(711,554,ls),
(712,546,o),
(709,542,o),
(703,542,cs),
(698,542,o),
(696,545,o),
(695,553,cs),
(675,787,l),
(667,778,o),
(663,765,o),
(661,749,cs),
(644,604,ls),
(643,596,o),
(642,584,o),
(642,574,cs),
(642,517,o),
(689,480,o),
(739,453,cs),
(797,422,o),
(878,392,o),
(951,372,cs),
(961,369,o),
(971,368,o),
(980,368,c)
);
}
);
width = 1123;
}
);
unicode = 57454;
},
{
glyphname = surprise;
lastChange = "2025-11-11 09:30:01 +0000";
layers = (
{
layerId = m01;
shapes = (
{
closed = 1;
nodes = (
(319,500,ls),
(322,494,o),
(327,495,o),
(331,498,cs),
(334,500,o),
(335,504,o),
(331,510,cs),
(267,587,ls),
(249,608,o),
(250,635,o),
(268,650,cs),
(286,665,o),
(313,663,o),
(331,641,cs),
(466,481,ls),
(523,414,o),
(481,359,o),
(493,290,cs),
(499,249,o),
(496,211,o),
(481,167,cs),
(475,148,o),
(450,141,o),
(425,141,cs),
(379,141,o),
(320,168,o),
(329,205,cs),
(340,244,o),
(341,261,o),
(343,268,cs),
(347,288,o),
(335,322,o),
(318,366,cs),
(213,625,l),
(108,775,ls),
(91,798,o),
(93,821,o),
(111,837,cs),
(129,852,o),
(155,851,o),
(173,830,cs),
(303,675,l),
(288,677,o),
(271,674,o),
(257,662,cs),
(232,641,o),
(230,606,o),
(253,577,cs)
);
},
{
closed = 1;
nodes = (
(133,865,o),
(116,861,o),
(101,849,cs),
(84,835,o),
(80,819,o),
(81,806,c),
(77,810,ls),
(55,832,o),
(53,860,o),
(76,879,cs),
(95,896,o),
(121,892,o),
(143,866,cs),
(146,863,l)
);
},
{
closed = 1;
nodes = (
(543,714,o),
(540,717,o),
(540,722,cs),
(540,1052,ls),
(540,1057,o),
(543,1060,o),
(548,1060,cs),
(553,1060,o),
(556,1057,o),
(556,1052,cs),
(556,722,ls),
(556,717,o),
(553,714,o),
(548,714,cs)
);
},
{
closed = 1;
nodes = (
(227,899,o),
(227,894,o),
(230,890,cs),
(403,684,ls),
(406,680,o),
(411,679,o),
(415,682,cs),
(419,685,o),
(418,691,o),
(415,694,cs),
(242,901,ls),
(239,905,o),
(234,905,o),
(231,902,cs)
);
},
{
closed = 1;
nodes = (
(461,779,o),
(463,783,o),
(461,788,cs),
(381,992,ls),
(379,998,o),
(374,998,o),
(370,997,cs),
(366,995,o),
(364,991,o),
(366,986,cs),
(446,782,ls),
(448,776,o),
(453,776,o),
(457,777,cs)
);
},
{
closed = 1;
nodes = (
(866,606,o),
(864,641,o),
(839,662,cs),
(825,674,o),
(808,677,o),
(793,675,c),
(923,830,ls),
(941,851,o),
(967,852,o),
(985,837,cs),
(1003,821,o),
(1005,798,o),
(988,775,cs),
(883,625,l),
(778,366,ls),
(761,322,o),
(749,288,o),
(753,268,cs),
(755,261,o),
(756,244,o),
(767,205,cs),
(776,168,o),
(717,141,o),
(671,141,cs),
(646,141,o),
(621,148,o),
(615,167,cs),
(600,211,o),
(597,249,o),
(603,290,cs),
(615,359,o),
(573,414,o),
(630,481,cs),
(765,641,ls),
(783,663,o),
(810,665,o),
(828,650,cs),
(846,635,o),
(847,608,o),
(829,587,cs),
(765,510,ls),
(761,504,o),
(762,500,o),
(765,498,cs),
(769,495,o),
(774,494,o),
(777,500,cs),
(843,577,ls)
);
},
{
closed = 1;
nodes = (
(953,866,ls),
(975,892,o),
(1001,896,o),
(1020,879,cs),
(1043,860,o),
(1041,832,o),
(1019,810,cs),
(1015,806,l),
(1016,819,o),
(1012,835,o),
(995,849,cs),
(980,861,o),
(963,865,o),
(950,863,c)
);
},
{
closed = 1;
nodes = (
(862,905,o),
(857,905,o),
(854,901,cs),
(681,694,ls),
(678,691,o),
(677,685,o),
(681,682,cs),
(685,679,o),
(690,680,o),
(693,684,cs),
(866,890,ls),
(869,894,o),
(869,899,o),
(865,902,cs)
);
},
{
closed = 1;
nodes = (
(643,776,o),
(648,776,o),
(650,782,cs),
(730,986,ls),
(732,991,o),
(730,995,o),
(726,997,cs),
(722,998,o),
(717,998,o),
(715,992,cs),
(635,788,ls),
(633,783,o),
(635,779,o),
(639,777,cs)
);
}
);
width = 1096;
}
);
unicode = 57455;
},
{
glyphname = upset;
lastChange = "2025-11-11 09:29:36 +0000";
layers = (
{
background = {
shapes = (
{
closed = 1;
nodes = (
(712,709,ls),
(712,730,o),
(700,743,o),
(680,743,cs),
(660,743,o),
(647,730,o),
(647,709,cs),
(647,641,l),
(689,641,ls),
(699,641,o),
(708,640,o),
(712,639,c)
);
},
{
closed = 1;
nodes = (
(575,640,o),
(583,641,o),
(593,641,cs),
(635,641,l),
(635,709,ls),
(635,730,o),
(623,743,o),
(603,743,cs),
(585,743,o),
(570,730,o),
(570,709,cs),
(570,638,l)
);
},
{
closed = 1;
nodes = (
(660,316,o),
(706,356,o),
(726,445,cs),
(744,523,ls),
(749,543,o),
(750,557,o),
(744,572,cs),
(733,602,ls),
(726,620,o),
(718,631,o),
(697,631,cs),
(588,631,ls),
(570,631,o),
(557,618,o),
(557,601,cs),
(557,583,o),
(570,570,o),
(588,570,cs),
(628,570,ls),
(639,570,o),
(648,565,o),
(648,554,cs),
(648,544,o),
(644,540,o),
(629,527,cs),
(593,497,o),
(581,464,o),
(581,412,cs),
(581,393,o),
(583,369,o),
(589,352,cs),
(590,349,o),
(589,346,o),
(584,346,cs),
(580,346,o),
(578,349,o),
(577,352,cs),
(571,374,o),
(569,395,o),
(569,412,cs),
(569,464,o),
(582,502,o),
(618,532,cs),
(633,545,o),
(636,547,o),
(636,553,cs),
(636,557,o),
(634,560,o),
(628,560,cs),
(586,560,ls),
(561,560,o),
(545,581,o),
(545,601,cs),
(545,615,o),
(551,625,o),
(558,632,c),
(558,699,ls),
(558,720,o),
(546,733,o),
(526,733,cs),
(506,733,o),
(493,720,o),
(493,699,cs),
(493,589,ls),
(493,564,o),
(505,555,o),
(524,555,cs),
(527,555,o),
(529,554,o),
(529,550,cs),
(529,546,o),
(526,545,o),
(522,545,cs),
(497,545,o),
(481,558,o),
(481,587,cs),
(481,684,ls),
(481,705,o),
(469,718,o),
(450,718,cs),
(431,718,o),
(418,705,o),
(418,684,cs),
(418,589,ls),
(418,564,o),
(430,555,o),
(449,555,cs),
(452,555,o),
(454,554,o),
(454,550,cs),
(454,546,o),
(451,545,o),
(447,545,cs),
(435,545,o),
(425,548,o),
(418,554,c),
(418,483,ls),
(418,371,o),
(481,316,o),
(574,316,cs)
);
},
{
closed = 1;
nodes = (
(467,101,l),
(687,101,l),
(687,251,l),
(630,198,o),
(540,257,o),
(467,216,c)
);
}
);
};
layerId = m01;
shapes = (
{
angle = -40;
pos = (-282,334);
ref = empowerment;
},
{
closed = 1;
nodes = (
(104,807,o),
(160,861,o),
(244,904,cs),
(249,905,o),
(253,907,o),
(258,903,cs),
(262,899,o),
(261,892,o),
(256,890,cs),
(171,850,o),
(116,795,o),
(76,709,cs),
(73,705,o),
(67,704,o),
(63,707,cs),
(58,712,o),
(60,718,o),
(63,722,cs)
);
},
{
closed = 1;
nodes = (
(653,404,o),
(601,345,o),
(525,296,cs),
(521,293,o),
(517,291,o),
(512,294,cs),
(507,298,o),
(508,305,o),
(512,308,cs),
(590,355,o),
(640,414,o),
(676,502,cs),
(679,508,o),
(683,509,o),
(688,507,cs),
(694,505,o),
(694,499,o),
(691,492,cs)
);
},
{
closed = 1;
nodes = (
(611,438,o),
(559,379,o),
(483,330,cs),
(479,327,o),
(475,325,o),
(470,328,cs),
(465,332,o),
(466,339,o),
(470,342,cs),
(548,389,o),
(598,448,o),
(634,536,cs),
(637,542,o),
(641,543,o),
(646,541,cs),
(652,539,o),
(652,533,o),
(649,526,cs)
);
}
);
width = 753;
}
);
unicode = 57458;
},
{
glyphname = attack;
lastChange = "2025-11-11 09:29:29 +0000";
layers = (
{
layerId = m01;
shapes = (
{
closed = 1;
nodes = (
(518,255,o),
(601,324,o),
(601,469,cs),
(601,484,l),
(437,484,l),
(437,504,l),
(601,504,l),
(601,764,ls),
(601,792,o),
(584,809,o),
(558,809,cs),
(532,809,o),
(516,792,o),
(516,764,cs),
(516,611,ls),
(516,604,o),
(513,600,o),
(508,600,cs),
(502,600,o),
(500,603,o),
(500,611,cs),
(500,876,ls),
(500,904,o),
(484,921,o),
(458,921,cs),
(432,921,o),
(415,904,o),
(415,876,cs),
(415,611,ls),
(415,603,o),
(413,600,o),
(408,600,cs),
(402,600,o),
(399,603,o),
(399,611,cs),
(399,902,ls),
(399,930,o),
(383,947,o),
(357,947,cs),
(331,947,o),
(314,930,o),
(314,902,cs),
(314,611,ls),
(314,604,o),
(311,600,o),
(306,600,cs),
(300,600,o),
(298,603,o),
(298,611,cs),
(298,857,ls),
(298,885,o),
(282,902,o),
(256,902,cs),
(230,902,o),
(213,885,o),
(213,857,cs),
(213,797,l),
(264,778,l),
(264,756,l),
(213,775,l),
(213,560,l),
(323,546,o),
(384,501,o),
(384,410,cs),
(384,387,o),
(378,355,o),
(369,330,cs),
(366,323,o),
(363,320,o),
(358,320,cs),
(353,320,o),
(350,325,o),
(352,330,cs),
(363,357,o),
(368,384,o),
(368,411,cs),
(368,492,o),
(314,529,o),
(213,544,c),
(140,614,ls),
(131,623,o),
(118,630,o),
(103,630,cs),
(78,630,o),
(60,613,o),
(60,588,cs),
(60,574,o),
(67,561,o),
(77,551,cs),
(114,514,o),
(159,472,o),
(207,382,c),
(295,470,l),
(295,441,l),
(217,363,l),
(260,288,o),
(319,255,o),
(408,255,cs)
);
},
{
closed = 1;
nodes = (
(101,273,o),
(103,278,o),
(109,284,cs),
(207,382,l),
(208,380,o),
(208,380,o),
(209,378,cs),
(211,374,o),
(214,368,o),
(217,363,c),
(123,269,ls),
(119,265,o),
(111,263,o),
(107,267,cs)
);
},
{
closed = 1;
nodes = (
(76,843,o),
(82,845,o),
(90,842,cs),
(213,797,l),
(213,775,l),
(83,823,ls),
(75,826,o),
(71,829,o),
(74,837,cs)
);
},
{
closed = 1;
nodes = (
(601,504,l),
(700,504,ls),
(708,504,o),
(713,501,o),
(713,494,cs),
(713,486,o),
(708,484,o),
(700,484,cs),
(601,484,l)
);
}
);
width = 773;
}
);
unicode = 57459;
},
{
glyphname = break;
lastChange = "2025-11-11 09:29:24 +0000";
layers = (
{
layerId = m01;
shapes = (
{
pos = (-5,326);
ref = SideHand_Base;
},
{
closed = 1;
nodes = (
(519,867,l),
(500,867,l),
(402,594,ls),
(387,552,o),
(383,520,o),
(383,501,cs),
(383,482,o),
(395,459,o),
(405,437,cs),
(429,382,o),
(451,319,o),
(451,285,cs),
(451,277,o),
(449,257,o),
(434,211,cs),
(433,208,o),
(433,205,o),
(433,201,cs),
(433,161,o),
(496,130,o),
(547,130,cs),
(577,130,o),
(604,140,o),
(616,158,cs),
(643,205,o),
(659,247,o),
(659,287,cs),
(659,339,o),
(637,387,o),
(614,427,cs),
(572,499,l),
(572,641,ls),
(572,669,o),
(553,686,o),
(529,686,cs),
(505,686,o),
(487,669,o),
(487,641,cs),
(487,528,ls),
(487,522,o),
(483,519,o),
(479,519,cs),
(475,519,o),
(471,522,o),
(471,528,cs),
(471,641,ls),
(471,674,o),
(491,702,o),
(528,702,cs),
(532,702,o),
(536,702,o),
(541,701,c),
(581,831,l)
);
}
);
width = 955;
}
);
unicode = 57460;
},
{
glyphname = build;
lastChange = "2025-11-11 09:29:19 +0000";
layers = (
{
background = {
guides = (
{
angle = 90;
pos = (195,527);
}
);
shapes = (
{
closed = 1;
nodes = (
(289,141,ls),
(167,141,o),
(65,239,o),
(65,369,cs),
(65,536,o),
(202,610,o),
(334,610,cs),
(356,610,o),
(377,607,o),
(398,604,cs),
(429,600,o),
(445,588,o),
(445,562,cs),
(445,557,o),
(444,550,o),
(442,544,c),
(360,544,ls),
(355,544,o),
(352,541,o),
(352,536,cs),
(352,531,o),
(355,528,o),
(360,528,cs),
(536,528,ls),
(554,528,o),
(576,509,o),
(576,483,cs),
(576,448,o),
(553,437,o),
(495,437,c),
(499,441,l),
(537,438,o),
(585,433,o),
(585,389,cs),
(585,341,o),
(537,337,o),
(512,333,c),
(493,346,l),
(519,340,o),
(564,334,o),
(564,288,cs),
(564,242,o),
(519,237,o),
(493,233,c),
(472,245,l),
(499,241,o),
(545,236,o),
(545,190,cs),
(545,154,o),
(515,141,o),
(479,141,cs)
);
}
);
};
layerId = m01;
shapes = (
{
pos = (0,240);
ref = ClosedFistFront_Base;
},
{
pos = (0,-237);
ref = ClosedFistBack_Base;
}
);
width = 601;
}
);
unicode = 57461;
},
{
glyphname = captured;
lastChange = "2025-11-11 09:29:12 +0000";
layers = (
{
layerId = m01;
shapes = (
{
closed = 1;
nodes = (
(425,625,o),
(435,700,o),
(502,789,c),
(290,994,ls),
(270,1014,o),
(246,1014,o),
(228,995,cs),
(210,976,o),
(211,953,o),
(231,933,cs),
(406,764,ls),
(412,758,o),
(412,754,o),
(408,750,cs),
(405,747,o),
(400,747,o),
(395,752,cs),
(187,953,ls),
(167,973,o),
(143,972,o),
(125,954,cs),
(107,935,o),
(108,912,o),
(128,892,cs),
(336,691,ls),
(341,685,o),
(341,681,o),
(337,677,cs),
(334,673,o),
(330,674,o),
(325,680,cs),
(136,863,ls),
(116,882,o),
(92,882,o),
(73,863,cs),
(55,844,o),
(56,821,o),
(77,802,cs),
(265,619,ls),
(271,613,o),
(272,609,o),
(268,605,cs),
(264,602,o),
(259,602,o),
(254,607,cs),
(146,712,ls),
(126,732,o),
(102,732,o),
(84,713,cs),
(66,695,o),
(67,671,o),
(87,651,cs),
(297,447,ls),
(334,411,o),
(371,390,o),
(407,380,c),
(401,422,o),
(421,495,o),
(487,567,c)
);
},
{
closed = 1;
nodes = (
(622,706,l),
(600,784,o),
(596,844,o),
(595,890,cs),
(595,905,o),
(590,918,o),
(580,928,cs),
(562,945,o),
(537,944,o),
(520,926,cs),
(510,915,o),
(507,902,o),
(506,888,cs),
(503,851,o),
(510,818,o),
(513,778,c),
(454,695,o),
(444,632,o),
(497,578,c)
);
},
{
closed = 1;
nodes = (
(423,375,o),
(420,364,o),
(413,357,cs),
(351,295,o),
(428,163,o),
(536,163,cs),
(578,163,o),
(584,229,o),
(650,239,cs),
(706,248,o),
(742,260,o),
(780,298,cs),
(885,403,ls),
(911,429,o),
(919,464,o),
(889,494,cs),
(880,504,o),
(866,510,o),
(854,508,c),
(864,526,o),
(863,548,o),
(843,569,cs),
(828,584,o),
(811,588,o),
(794,584,c),
(807,603,o),
(807,627,o),
(786,649,cs),
(766,668,o),
(743,668,o),
(726,657,c),
(733,673,o),
(730,690,o),
(715,705,cs),
(689,731,o),
(660,721,o),
(636,697,cs),
(529,590,ls),
(459,520,o),
(422,452,o),
(423,390,cs)
);
}
);
width = 968;
}
);
unicode = 57462;
},
{
glyphname = crouch;
lastChange = "2025-11-11 09:29:05 +0000";
layers = (
{
layerId = m01;
shapes = (
{
pos = (-5,-182);
ref = SideHand_Base;
},
{
closed = 1;
nodes = (
(358,621,l),
(428,692,ls),
(430,694,o),
(431,695,o),
(435,695,cs),
(438,695,o),
(442,692,o),
(442,688,cs),
(442,685,o),
(441,683,o),
(438,680,cs),
(355,597,ls),
(353,595,o),
(352,594,o),
(350,594,cs),
(348,594,o),
(347,595,o),
(345,597,cs),
(261,680,ls),
(258,683,o),
(257,685,o),
(257,688,cs),
(257,692,o),
(261,695,o),
(264,695,cs),
(268,695,o),
(269,694,o),
(271,692,cs),
(342,621,l),
(342,903,ls),
(342,909,o),
(345,912,o),
(350,912,cs),
(355,912,o),
(358,909,o),
(358,903,cs)
);
}
);
width = 955;
}
);
unicode = 57463;
},
{
glyphname = death_western;
lastChange = "2025-11-11 09:28:53 +0000";
layers = (
{
layerId = m01;
name = Regular;
shapes = (
{
closed = 1;
nodes = (
(469,677,o),
(468,674,o),
(464,674,cs),
(460,674,o),
(460,677,o),
(460,684,cs),
(461,926,ls),
(461,954,o),
(444,971,o),
(418,971,cs),
(391,971,o),
(375,955,o),
(375,927,cs),
(375,726,ls),
(375,719,o),
(375,714,o),
(369,714,cs),
(365,714,o),
(363,718,o),
(360,725,cs),
(270,925,ls),
(263,941,o),
(251,952,o),
(232,952,cs),
(204,952,o),
(188,934,o),
(188,910,cs),
(188,903,o),
(190,897,o),
(193,890,cs),
(281,698,ls),
(284,692,o),
(286,688,o),
(282,684,cs),
(278,681,o),
(275,683,o),
(269,688,cs),
(132,797,ls),
(123,804,o),
(114,808,o),
(100,808,cs),
(82,808,o),
(60,794,o),
(60,767,cs),
(60,754,o),
(67,742,o),
(80,731,c),
(242,603,ls),
(296,561,o),
(327,426,o),
(325,365,cs),
(323,289,ls),
(322,263,o),
(367,229,o),
(409,229,cs),
(444,229,o),
(487,229,o),
(500,260,cs),
(541,356,ls),
(550,377,o),
(557,389,o),
(575,400,cs),
(593,412,o),
(606,422,o),
(607,441,cs),
(610,465,o),
(591,486,o),
(558,489,cs),
(538,491,o),
(506,474,o),
(485,449,c),
(445,473,o),
(411,508,o),
(391,545,cs),
(386,553,o),
(388,563,o),
(397,563,cs),
(401,563,o),
(403,561,o),
(405,557,cs),
(418,524,o),
(452,491,o),
(483,469,c),
(502,489,o),
(526,502,o),
(554,505,c),
(544,533,ls),
(534,564,o),
(538,614,o),
(546,647,cs),
(589,803,ls),
(590,808,o),
(592,818,o),
(593,823,cs),
(595,850,o),
(576,869,o),
(551,869,cs),
(530,869,o),
(515,858,o),
(509,836,cs),
(471,684,ls)
);
}
);
width = 667;
}
);
unicode = 57464;
},
{
glyphname = death_italy;
lastChange = "2025-11-11 09:28:48 +0000";
layers = (
{
layerId = m01;
shapes = (
{
closed = 1;
nodes = (
(335,90,l),
(405,161,ls),
(407,163,o),
(408,164,o),
(412,164,cs),
(415,164,o),
(419,161,o),
(419,157,cs),
(419,154,o),
(418,152,o),
(415,149,cs),
(332,66,ls),
(330,64,o),
(329,63,o),
(327,63,cs),
(325,63,o),
(324,64,o),
(322,66,cs),
(238,149,ls),
(235,152,o),
(234,154,o),
(234,157,cs),
(234,161,o),
(238,164,o),
(241,164,cs),
(245,164,o),
(246,163,o),
(248,161,cs),
(319,90,l),
(319,1127,ls),
(319,1133,o),
(322,1136,o),
(327,1136,cs),
(332,1136,o),
(335,1133,o),
(335,1127,cs)
);
},
{
closed = 1;
nodes = (
(63,833,o),
(60,836,o),
(60,841,cs),
(60,846,o),
(63,849,o),
(69,849,cs),
(563,849,l),
(492,920,ls),
(490,922,o),
(489,923,o),
(489,927,cs),
(489,930,o),
(492,934,o),
(496,934,cs),
(499,934,o),
(501,933,o),
(504,930,cs),
(587,846,ls),
(589,844,o),
(590,843,o),
(590,841,cs),
(590,839,o),
(589,838,o),
(587,836,cs),
(504,753,ls),
(501,750,o),
(499,749,o),
(496,749,cs),
(492,749,o),
(489,753,o),
(489,756,cs),
(489,760,o),
(490,761,o),
(492,763,cs),
(563,833,l),
(69,833,ls)
);
},
{
pos = (484,-35);
ref = PointingFinger;
}
);
width = 1067;
}
);
unicode = 57465;
},
{
glyphname = evacuate;
lastChange = "2025-11-11 09:28:42 +0000";
layers = (
{
layerId = m01;
shapes = (
{
closed = 1;
nodes = (
(346,979,o),
(182,933,o),
(83,828,c),
(111,925,ls),
(115,938,o),
(99,942,o),
(96,930,cs),
(60,808,l),
(185,776,ls),
(196,773,o),
(200,789,o),
(189,792,cs),
(92,816,l),
(191,916,o),
(342,962,o),
(508,879,cs),
(519,873,o),
(525,888,o),
(515,893,cs)
);
},
{
angle = 120;
pos = (1148,436);
ref = LShapedHand_Base;
}
);
width = 841;
}
);
unicode = 57466;
},
